<?xml version='1.0' encoding='utf-8'?>
<svg xmlns="http://www.w3.org/2000/svg" width="359.73013mm" height="340.68414mm" viewBox="0 0 359.73013 340.68414" version="1.1" id="svg5" xml:space="preserve"><defs id="defs2" /><g id="layer1"><path style="fill:#000000" d="m 145.7429000000002 340.53090000000157 c -0.3638,-0.1176 -1.2657,-0.1578 -2.0042,-0.089 -0.8459,0.079 -1.9229,-0.046 -2.9104,-0.3358 -1.15,-0.3379 -2.6253,-0.4699 -5.5365,-0.4953 -3.5624,-0.031 -4.1103,-0.099 -5.3517,-0.6599 -1.6353,-0.7394 -3.3086,-2.4551 -3.7762,-3.8721 -0.5149,-1.5601 -0.2048,-4.7601 0.6327,-6.5305 1.7146,-3.6244 5.5914,-6.0377 9.6989,-6.0377 0.5749,0 1.0453,-0.094 1.0453,-0.2084 0,-0.1146 -0.6067,-0.7993 -1.3482,-1.5214 -2.8143,-2.7408 -5.9533,-7.1643 -8.5356,-12.0283 l -1.4641,-2.758 -0.5565,1.3127 c -1.6254,3.8344 -3.7563,7.4134 -6.0588,10.1763 -1.6021,1.9225 -3.7688,4.2333 -3.9694,4.2334 -0.2954,2e-4 0.3993,-21.4177 1.4159,-43.6563 0.3559,-7.7854 0.7762,-17.0723 0.9338,-20.6375 0.5063,-11.4474 1.7689,-19.2487 6.1238,-37.8355 4.1084,-17.5352 4.9836,-21.7448 6.0234,-28.9718 1.0361,-7.2013 1.1822,-10.0344 1.2148,-23.548 0.032,-13.0412 0.042,-13.2884 0.7378,-17.3975 0.9285,-5.4839 1.5429,-8.1957 4.9604,-21.8931 5.2051,-20.862 6.3439,-28.3717 6.3395,-41.8041 0,-7.7055 0.098,-7.3089 -2.1804,-8.599 -1.028,-0.5821 -2.8579,-1.8025 -4.0664,-2.712 -1.2085,-0.9095 -2.3082,-1.6536 -2.4439,-1.6536 -0.1356,0 -1.1413,0.6106 -2.2349,1.3569 l -1.9884,1.3569 2.9533,2.1097 c 3.9214,2.8014 4.7724,3.7026 1.1609,1.2296 -1.5678,-1.0737 -3.2537,-2.2149 -3.7463,-2.536 l -0.8956,-0.584 -1.1485,0.8229 c -1.6778,1.202 -6.145,5.1156 -7.132,6.248 -1.8881,2.1664 -3.9986,4.367 -3.4736,3.622 1.7992,-2.5532 6.5464,-7.2831 9.6972,-9.662 0.8138,-0.6145 1.4787,-1.1922 1.4774,-1.2838 0,-0.1614 -2.147,-1.5751 -3.8975,-2.5689 l -0.8571,-0.4867 -5.0661,3.4288 c -2.7864,1.8859 -5.2582,3.5257 -5.4929,3.644 -1.1185,0.5637 1.5957,-1.4404 5.5814,-4.1211 2.4313,-1.6352 4.4256,-3.0358 4.4317,-3.1123 0.016,-0.202 -4.2915,-2.3839 -4.6966,-2.3788 -0.1881,0 -0.962,0.4705 -1.7197,1.0402 -2.8756,2.1621 -7.0934,4.3611 -10.3736,5.4084 -9.2641,2.9579 -21.11,1.6961 -29.5304,-3.1455 l -1.22,-0.7014 -3.0133,1.8075 c -5.4202,3.2513 -11.255,7.9595 -15.7995,12.749 -0.9205,0.9701 -1.4392,1.4067 -1.1527,0.9701 0.9144,-1.393 7.7612,-7.8778 10.421,-9.8699 2.1602,-1.6179 7.9851,-5.2937 9.0298,-5.6983 0.3021,-0.117 -0.031,-0.4262 -1.7769,-1.6498 l -0.7837,-0.5493 -3.6466,1.5186 c -5.3724,2.2374 -9.0409,4.2243 -14.4482,7.8257 -2.6579,1.7703 -4.8326,3.1791 -4.8326,3.1308 0,-0.2412 6.2383,-4.648 8.6989,-6.1451 3.7343,-2.2719 6.0734,-3.4307 10.2907,-5.0979 3.9218,-1.5505 3.8233,-1.3549 1.6134,-3.2051 l -1.2792,-1.071 -4.7009,1.1953 c -5.6758,1.4432 -11.2013,3.2032 -15.0509,4.7941 -1.5688,0.6483 -2.8904,1.1407 -2.937,1.0941 -0.1338,-0.1338 3.7786,-1.8609 6.58,-2.9046 3.3118,-1.234 8.8861,-2.8543 12.3954,-3.6031 1.528,-0.326 2.8635,-0.6709 2.9678,-0.7664 0.1044,-0.096 -0.3646,-0.8725 -1.042,-1.7264 l -1.2318,-1.5528 -3.059,0.1808 c -3.716,0.2196 -7.8568,0.7768 -11.9225,1.6044 -4.5996,0.9362 -4.7208,0.9546 -3.4396,0.5232 0.6549,-0.2205 2.9171,-0.7531 5.0271,-1.1834 3.4128,-0.6962 5.4745,-0.9658 11.2702,-1.4743 l 1.613,-0.1415 -1.613,-2.8624 -1.6129,-2.8624 -3.9713,-0.1927 c -3.5037,-0.17 -7.8772,0.041 -11.11,0.5356 l -0.7937,0.1215 0.7541,-0.2477 c 1.6785,-0.5515 5.9004,-0.8648 10.3452,-0.7679 4.0796,0.089 4.634,0.052 4.4983,-0.3003 -0.085,-0.221 -0.4652,-1.5329 -0.8448,-2.9153 -0.6142,-2.2367 -0.6918,-3.009 -0.7044,-7.0115 -0.016,-5.1394 0.3465,-7.0709 2.2098,-11.7717 1.0284,-2.5943 1.0565,-2.7462 0.8223,-4.4529 -0.4798,-3.4976 -0.5821,-7.6683 -0.2964,-12.0858 0.3471,-5.3661 1.152,-11.2386 1.8723,-13.6604 0.8249,-2.7731 2.2752,-3.3205 4.6426,-1.7524 2.5119,1.6638 12.5523,12.1737 15.6984,16.4324 0.7738,1.0474 1.2601,1.4809 1.5674,1.3973 2.9064,-0.7904 9.9529,-1.0886 14.7331,-0.6234 l 2.1167,0.206 1.3633,-1.9258 c 2.1094,-2.9796 5.4418,-6.8603 9.2981,-10.8282 3.7522,-3.8606 5.8415,-5.6336 6.971,-5.9153 1.0854,-0.2706 2.2037,0.4565 2.7324,1.7768 0.484,1.2085 1.7252,9.1081 1.7269,10.9904 0,1.7694 0.4495,1.3127 0.6488,-0.6615 0.2803,-2.7753 1.1584,-6.1845 1.8708,-7.2631 0.8135,-1.2316 2.0056,-1.5331 3.4158,-0.8639 2.4202,1.1484 12.5397,12.5744 15.9385,17.9962 0.5735,0.9148 0.8729,1.1646 1.2781,1.0662 2.9476,-0.716 10.2727,-0.8059 13.608,-0.1671 0.6449,0.1235 1.2997,0.1677 1.4552,0.098 0.1555,-0.069 1.0566,-1.0282 2.0025,-2.1306 0.9458,-1.1023 3.7863,-4.1276 6.3122,-6.7227 l 4.5924,-4.7185 0.2133,-3.6492 c 0.3259,-5.5762 0.7219,-7.0458 1.9837,-7.3625 1.3041,-0.3273 2.0507,0.1908 6.0599,4.205 3.9616,3.9666 8.0475,8.7545 11.2218,13.1501 0.8932,1.2369 1.8404,2.5245 2.1048,2.8614 l 0.4807,0.6125 2.3671,-0.4051 c 3.7966,-0.6496 6.8757,-0.7788 10.3047,-0.4322 1.7462,0.1764 3.4723,0.34 3.8357,0.3635 0.555,0.036 1.0573,-0.4862 3.141,-3.2647 7.5615,-10.0828 13.5747,-16.9338 15.227,-17.3485 2.9334,-0.7363 3.8007,2.5465 4.0459,15.3143 0.1427,7.427 -0.091,11.4897 -0.8501,14.7989 l -0.3488,1.52 1.276,2.5811 c 0.7019,1.4196 1.4817,3.2937 1.733,4.1648 l 0.4568,1.5838 0.3641,-1.4227 c 0.2003,-0.7824 0.6004,-1.9567 0.8891,-2.6096 0.4527,-1.0233 0.5252,-1.7747 0.5261,-5.4527 0,-7.1339 0.8436,-14.6465 2.2908,-20.4439 1.1971,-4.7959 1.953,-5.2706 4.8893,-3.0704 3.7164,2.7846 12.0415,11.6694 14.8225,15.8191 0.9083,1.3553 1.2577,1.6842 1.6766,1.5782 3.3159,-0.8394 9.8995,-1.03 13.626,-0.3944 1.2369,0.211 2.3224,0.3858 2.4121,0.3885 0.09,0 1.0792,-1.1262 2.1987,-2.5086 4.9922,-6.1649 13.0012,-14.1807 15.4242,-15.4375 1.1866,-0.6155 2.0569,-0.2916 2.5798,0.96 1.6448,3.9366 3.012,19.5241 2.2885,26.0909 -0.2958,2.6845 -0.2869,2.7903 0.3765,4.4485 1.5756,3.9382 1.8121,5.3647 1.8114,10.9256 -5e-4,4.4438 -0.077,5.4273 -0.5546,7.091 l -0.5539,1.9316 1.8914,-0.2118 c 2.4776,-0.2775 10.2003,-0.2721 12.1664,0.01 2.5741,0.3673 1.5302,0.4484 -1.8245,0.1418 -2.2841,-0.2087 -4.2231,-0.2084 -7.0071,0 -5.7035,0.4295 -5.2128,0.2005 -6.621,3.0905 l -1.2091,2.4813 1.0768,0.1312 c 0.5922,0.072 2.0887,0.2029 3.3257,0.2905 4.3314,0.3068 12.2033,1.7864 14.5521,2.7352 1.1013,0.4449 0.3614,0.3345 -2.3334,-0.3482 -4.5323,-1.1482 -12.5584,-2.276 -15.9229,-2.2373 -1.1557,0.013 -1.2279,0.065 -2.4598,1.7462 -0.698,0.9529 -1.2338,1.7582 -1.1906,1.7895 0.043,0.031 1.6263,0.3878 3.5181,0.7923 5.3683,1.1478 16.6535,5.0857 17.2252,6.0107 0.088,0.1427 -0.2986,0.026 -0.8595,-0.2596 -2.8299,-1.4404 -11.659,-4.2693 -17.1241,-5.4868 l -3.1397,-0.6994 -1.2921,1.2727 c -0.7106,0.6999 -1.2921,1.3417 -1.2921,1.4261 0,0.084 1.0418,0.6145 2.3151,1.1779 6.7481,2.9862 14.6221,7.5684 17.5287,10.2008 l 0.926,0.8386 -1.0883,-0.8112 c -1.9628,-1.4631 -7.3258,-4.8059 -10.0242,-6.2481 -2.4846,-1.328 -9.7111,-4.631 -10.1285,-4.6294 -0.1046,4e-4 -0.726,0.4833 -1.3809,1.0732 -0.751,0.6765 -1.0686,1.124 -0.8602,1.2119 0.8759,0.3694 4.6901,3.0112 6.8719,4.7595 2.978,2.3864 6.9251,6.1339 9.127,8.6656 1.0627,1.2218 0.2015,0.4831 -2.4506,-2.1019 -4.3816,-4.2708 -7.6242,-6.9811 -11.6147,-9.7081 l -2.4985,-1.7074 -1.7751,1.1483 c -0.9763,0.6315 -2.7233,1.6214 -3.8822,2.1997 l -2.1072,1.0515 -0.1732,1.5321 c -0.9643,8.5315 -0.9109,35.3021 0.1042,52.1999 0.9187,15.2942 2.232,25.6852 5.1328,40.6135 2.1809,11.2233 2.8134,15.5381 3.59,24.4925 1.2483,14.393 3.4279,20.9606 13.6914,41.2565 8.6049,17.0158 10.9772,24.5861 11.3685,36.2781 0.3222,9.6255 -1.1762,18.0758 -4.874,27.4865 -2.0055,5.1039 -4.5764,9.986 -6.8619,13.0307 -0.6439,0.8578 -0.9899,1.5214 -0.7933,1.5214 0.1918,0 1.5898,-0.35 3.1066,-0.7777 16.6166,-4.6857 28.1556,-12.9042 33.6576,-23.9723 2.2024,-4.4305 2.9637,-7.6366 2.9188,-12.2917 -0.056,-5.7715 -1.3682,-9.2122 -5.8038,-15.2136 -3.1336,-4.2398 -3.9245,-5.5864 -4.6351,-7.891 -0.6544,-2.1229 -0.5723,-4.0833 0.2163,-5.1594 2.285,-3.118 7.978,-1.4885 13.6617,3.9105 6.1117,5.8055 9.254,14.6331 8.8102,24.7504 -0.5541,12.6311 -4.8458,22.2251 -14.0671,31.4463 -9.7581,9.7582 -23.0358,15.9943 -39.0014,18.3179 -2.407,0.3503 -4.7496,0.6373 -5.2058,0.6379 h -0.8294 l 0.1313,1.6536 c 0.2536,3.1936 -1.0117,5.5387 -3.7418,6.9349 -1.3177,0.6739 -1.8752,0.7967 -3.8251,0.8422 -1.5425,0.036 -2.6258,0.2089 -3.341,0.5333 -1.0325,0.4683 -4.247,0.6788 -10.3358,0.6769 -4.3669,0 -7.0602,-2.5526 -7.0687,-6.6957 0,-1.6576 0.2051,-2.316 1.605,-5.0697 0.055,-0.1091 -0.8101,-0.1984 -1.9235,-0.1984 h -2.0245 l 0.5105,0.7276 c 1.344,1.9158 1.4422,4.9597 0.2267,7.0337 -1.7168,2.9295 -4.748,4.3343 -8.7112,4.0372 -1.197,-0.09 -2.5931,-0.1347 -3.1024,-0.1 -2.5168,0.172 -4.7323,-0.028 -5.9702,-0.5392 -0.9383,-0.3874 -2.0879,-0.5694 -4.084,-0.6467 -3.8047,-0.1474 -5.6818,-1.0911 -6.9649,-3.5013 -0.8583,-1.6122 -0.7954,-4.5815 0.1349,-6.3606 0.8289,-1.5853 2.5605,-3.2396 4.118,-3.934 0.6185,-0.2758 1.1245,-0.5781 1.1245,-0.6718 0,-0.094 -0.8065,-0.8926 -1.7922,-1.7751 -3.6679,-3.2839 -7.7124,-8.6836 -10.3491,-13.8166 -5.1793,-10.0832 -7.7059,-24.1154 -6.9101,-38.3773 0.8471,-15.1802 4.0727,-27.2176 11.7037,-43.676 5.1829,-11.1784 6.4366,-14.408 7.3849,-19.0229 0.4379,-2.1314 0.5597,-4.267 0.7561,-13.2563 0.3663,-16.7679 0.928,-21.456 5.3887,-44.9792 4.4314,-23.3686 5.794,-33.5066 6.5093,-48.431 0.3039,-6.3403 0.3626,-19.5071 0.099,-22.2945 l -0.1702,-1.8016 -1.3493,-0.6784 c -1.677,-0.8431 -5.1315,-3.1206 -6.9646,-4.5917 l -1.3819,-1.109 -3.6452,1.4645 c -4.8753,1.9588 -6.691,2.7818 -6.6724,3.0243 0.01,0.111 1.348,1.1355 2.9766,2.2767 1.6286,1.1412 3.4373,2.4952 4.0194,3.0089 l 1.0583,0.934 -1.3229,-0.9274 c -5.8462,-4.0985 -7.1387,-4.9581 -7.4546,-4.9581 -0.1984,0 -2.7443,1.2059 -5.6576,2.6797 -2.9132,1.4739 -5.345,2.6315 -5.404,2.5725 -0.059,-0.059 2.2769,-1.3386 5.1909,-2.8436 2.9141,-1.505 5.1994,-2.8317 5.0785,-2.9483 -0.6458,-0.623 -7.308,-3.9854 -7.6424,-3.8571 -0.2162,0.083 -1.0754,0.6139 -1.9093,1.1798 -3.7386,2.5374 -8.589,4.4468 -13.2428,5.2132 -4.1486,0.6833 -11.15,0.4372 -14.7008,-0.5166 -4.2342,-1.1375 -9.3847,-3.8396 -11.6652,-6.1202 -0.5036,-0.5036 -0.9813,-0.9156 -1.0614,-0.9156 -0.08,0 -0.9441,-0.8462 -1.9196,-1.8804 l -1.7738,-1.8803 -0.8635,1.0204 c -0.8978,1.0612 -1.0612,1.5436 -0.6,1.7723 0.1491,0.074 0.1193,0.1 -0.066,0.058 -0.4791,-0.1089 -1.2639,0.34 -1.2604,0.721 0,0.3688 3.3389,1.8682 3.6829,1.6557 0.1251,-0.077 0.2899,0.022 0.3663,0.2213 0.076,0.199 1.0711,0.7494 2.2105,1.2231 2.0632,0.8578 8.0752,3.957 7.6903,3.9643 -0.1112,0 -1.7671,-0.7803 -3.6798,-1.7387 -2.2561,-1.1305 -3.6925,-1.7016 -4.0893,-1.6257 -0.3364,0.064 -0.5463,0.011 -0.4665,-0.118 0.08,-0.1291 -1.2478,-0.8969 -2.9504,-1.7062 l -3.0955,-1.4715 -1.2791,1.2599 c -0.7035,0.6929 -1.2233,1.3499 -1.1553,1.46 0.2775,0.449 4.7658,2.6435 5.1833,2.5343 0.2608,-0.068 0.4046,0.01 0.3416,0.183 -0.06,0.1654 1.0906,1.1185 2.5566,2.118 3.2714,2.2305 6.0696,4.4776 7.646,6.1403 1.1397,1.202 1.1112,1.1885 -0.6668,-0.3162 -2.6071,-2.2063 -5.7362,-4.563 -8.1544,-6.1416 l -2.0628,-1.3467 -1.5695,0.9811 c -0.8632,0.5396 -1.5694,1.0418 -1.5694,1.1161 0,0.074 0.9624,1.201 2.1387,2.5039 1.1763,1.3029 2.6187,2.9689 3.2052,3.7022 0.5866,0.7333 0.1308,0.3212 -1.0129,-0.9157 -1.1436,-1.2369 -2.6752,-2.8769 -3.4036,-3.6445 l -1.3243,-1.3955 -2.1167,1.4171 c -4.259,2.8514 -4.8602,3.0376 -0.9436,0.2922 1.2273,-0.8602 2.3584,-1.6575 2.5136,-1.7717 0.2994,-0.2203 -1.9856,-2.4725 -3.1299,-3.0849 -0.5706,-0.3054 -0.7813,-0.2366 -2.1817,0.7124 -0.8525,0.5777 -2.0701,1.3149 -2.7058,1.6382 l -1.1557,0.5877 0.1391,9.3052 c 0.2236,14.9546 1.1817,21.9158 5.3773,39.0709 3.5991,14.7159 5.4463,24.0807 6.341,32.1469 0.2274,2.05 0.4788,7.3995 0.5629,11.9792 0.084,4.5513 0.1833,8.2423 0.2214,8.2021 0.038,-0.04 0.4412,-2.1427 0.8957,-4.6724 0.8045,-4.4777 2.432,-11.1265 5.9662,-24.3725 4.3641,-16.3565 7.1846,-33.1329 8.096,-48.1541 0.3776,-6.2227 0.01,-14.9691 -0.9694,-23.0959 l -0.1848,-1.5324 1.2945,0.5062 c 0.712,0.2785 2.4256,0.786 3.808,1.1279 2.2254,0.5503 3.1052,0.6192 7.673,0.6014 4.5762,-0.018 5.4733,-0.096 7.9375,-0.6921 1.5279,-0.3695 2.8096,-0.643 2.8481,-0.6077 0.038,0.035 -0.1722,0.8479 -0.4681,1.8059 -2.6216,8.4879 -3.6046,26.0642 -2.2227,39.746 1.0263,10.1616 1.8316,14.9921 6.2192,37.3063 3.2853,16.7076 4.2248,22.2343 4.7547,27.9678 0.4369,4.7276 0.1744,16.6499 -0.5212,23.6697 -0.3052,3.08 -0.8542,9.9856 -1.2201,15.3458 -0.3658,5.3602 -0.8994,13.0201 -1.1858,17.0219 -0.2863,4.0018 -0.6424,9.0399 -0.7912,11.1958 -0.4639,6.7179 -1.861,49.9618 -2.0373,63.0558 l -0.168,12.4715 1.0049,1.0223 c 2.5088,2.5526 2.952,6.5349 0.987,8.8702 -1.0758,1.2785 -2.0336,1.5448 -5.5555,1.5448 -5.2877,0 -7.2299,-0.9783 -8.137,-4.0987 -0.7899,-2.7172 0.187,-5.2883 2.4103,-6.3433 0.5229,-0.2481 1.0018,-0.4 1.0643,-0.3375 0.062,0.062 -0.063,0.6138 -0.2786,1.2251 -0.9479,2.6867 -0.7489,5.0891 0.5493,6.632 0.972,1.1551 1.2266,0.9932 0.501,-0.3187 -1.21,-2.188 -1.0882,-5.4594 0.2783,-7.4729 0.6388,-0.9414 0.6455,-1.0154 0.6514,-7.2233 0.01,-6.2031 0.2628,-16.942 0.7801,-32.5981 0.1467,-4.4384 0.3886,-12.7132 0.5376,-18.3886 0.2567,-9.7747 0.7565,-24.0695 1.3136,-37.5708 0.5158,-12.4999 0.583,-16.9873 0.3073,-20.5052 -0.3176,-4.0527 -0.5224,-5.2917 -0.8747,-5.2917 -0.1349,0 -0.3794,0.387 -0.5433,0.8599 -0.7053,2.0358 -2.9259,6.0187 -4.2409,7.6068 -1.8561,2.2416 -3.5257,3.1772 -5.6558,3.1692 -1.9083,-0.01 -3.3475,-0.6239 -4.9909,-2.1387 -1.5168,-1.3981 -2.7014,-3.397 -4.3469,-7.3344 -1.0739,-2.5698 -1.3072,-2.9542 -1.4738,-2.429 -0.1089,0.3431 -0.1243,5.4547 -0.034,11.3591 0.09,5.9044 0.2236,20.4389 0.2968,32.2988 0.073,11.8599 0.2224,33.1126 0.3318,47.2281 0.1093,14.1155 0.1988,26.8255 0.1988,28.2443 0,1.4189 0.07,2.5797 0.1564,2.5797 0.086,0 0.5,0.6251 0.9201,1.389 0.6618,1.2038 0.7639,1.6714 0.7654,3.5058 0,1.7601 -0.1091,2.3172 -0.6555,3.3073 -1.5252,2.7631 -6.1974,3.5493 -8.265,1.3907 -1.9977,-2.0856 -2.0583,-5.8467 -0.1444,-8.9673 l 0.6271,-1.0224 -0.1956,-20.2406 c -0.4344,-44.9678 -1.3833,-82.6829 -2.3465,-93.2656 -0.27,-2.9661 -1.5505,-11.8163 -1.7386,-12.0165 -0.2341,-0.2491 -0.079,4.748 0.285,9.1562 0.6333,7.6812 0.937,15.1723 1.0759,26.5405 0.072,5.8936 0.1771,11.8467 0.2336,13.2291 l 0.1027,2.5136 -0.6452,-1.9844 c -2.1256,-6.5377 -6.1098,-11.3416 -10.2176,-12.3195 -0.6748,-0.1607 -0.7276,-0.1137 -0.7276,0.6492 0,0.5641 0.128,0.8224 0.4074,0.8224 1.5227,0 4.6091,2.6338 6.3393,5.4099 2.5759,4.1328 4.1617,9.5777 4.8974,16.8151 0.2712,2.6675 1.1119,62.6401 0.8836,63.0271 -0.061,0.1037 -0.8631,0.1757 -1.782,0.16 -1.1758,-0.02 -1.9099,0.1129 -2.4784,0.4487 -0.8063,0.4763 -0.8099,0.4757 -2.0781,-0.3643 -1.7343,-1.1488 -3.5076,-1.6244 -6.0388,-1.6195 -2.6214,0 -3.331,0.3276 -1.6508,0.7507 1.6795,0.4229 3.3465,1.7857 4.2631,3.4853 1.0775,1.9977 1.2736,5.1191 0.4401,7.0035 -0.3099,0.7005 -0.5104,1.3265 -0.4457,1.3913 0.2658,0.2658 2.2543,-0.2728 2.6594,-0.7204 0.3827,-0.4229 0.3971,-0.6731 0.1172,-2.0312 -0.8184,-3.9697 2.1748,-7.9485 5.803,-7.7139 0.7239,0.047 1.231,0.2081 1.231,0.3915 0,0.1716 -0.642,0.6478 -1.4267,1.0583 -0.7847,0.4106 -1.7968,1.204 -2.249,1.7632 -0.7712,0.9536 -0.8222,1.1521 -0.8222,3.1976 0,1.9803 0.071,2.2837 0.7745,3.2985 0.426,0.6148 1.0085,1.2429 1.2944,1.3959 0.3897,0.2085 0.3022,-0.025 -0.3495,-0.9322 -1.9673,-2.7395 -1.0669,-6.6195 1.8858,-8.1258 0.5637,-0.2877 1.025,-0.4754 1.025,-0.4173 0,0.058 -0.3124,0.7881 -0.6943,1.6222 -0.9941,2.1714 -1.1385,4.4882 -0.3778,6.0595 0.3213,0.6638 0.9618,1.5258 1.4234,1.9155 l 0.8393,0.7087 -2.0881,-0.1878 c -1.1485,-0.1033 -2.6963,-0.3902 -3.4396,-0.6377 l -1.3514,-0.4499 -1.0584,0.7325 c -1.1142,0.7713 -3.7139,1.3618 -4.7974,1.0899 -0.3328,-0.084 -1.1675,0.063 -1.8549,0.3254 -0.843,0.322 -1.837,0.4593 -3.0535,0.4218 -2.1605,-0.067 -2.1867,-0.066 -4.7773,0.1121 -4.2133,0.2896 -7.7856,-0.8017 -9.6839,-2.9583 -1.0867,-1.2346 -1.3653,-1.4032 -1.3653,-0.8267 0,0.772 -1.8587,2.492 -3.489,3.2287 -1.4774,0.6677 -2.0218,0.7631 -4.713,0.8266 -1.6735,0.039 -3.3404,-0.025 -3.7042,-0.1423 z m 6.8349,-2.0246 c 3.2997,-0.9799 4.7146,-4.0122 3.6092,-7.7347 -0.2221,-0.7478 -0.7981,-1.8763 -1.28,-2.5076 l -0.8763,-1.148 -0.044,-12.0262 c -0.024,-6.6145 -0.1052,-14.0504 -0.1802,-16.5242 -0.075,-2.4739 -0.2551,-9.3795 -0.4003,-15.3459 -0.3549,-14.5868 -0.727,-25.7003 -1.0585,-31.6177 -0.7742,-13.8144 -1.4126,-23.1068 -2.2541,-32.8083 -1.5502,-17.8721 -2.1168,-25.3536 -1.9034,-25.1354 0.071,0.073 0.5155,1.2038 0.9876,2.5135 2.5183,6.9869 5.5224,10.4292 9.1153,10.4452 3.5778,0.016 6.4972,-3.3817 8.7727,-10.2096 0.5281,-1.5848 1.0215,-2.941 1.0964,-3.0137 0.3127,-0.3038 -0.2043,17.1169 -0.8285,27.9135 -0.9658,16.7079 -1.4203,26.7891 -1.8785,41.6719 -0.2218,7.2033 -0.5195,16.4306 -0.6615,20.5052 -0.1419,4.0746 -0.4379,14.0758 -0.6577,22.225 -0.2198,8.1492 -0.471,16.1264 -0.5584,17.7271 l -0.1588,2.9104 -1.1381,0.7007 c -1.5683,0.9654 -2.5407,2.6965 -2.7118,4.8278 -0.2359,2.939 0.8713,4.8706 3.436,5.9944 1.13,0.4951 2.001,0.6316 4.6418,0.7271 2.8357,0.1026 3.3165,0.058 3.7652,-0.3478 0.675,-0.6109 0.9314,-2.0708 0.5704,-3.2472 -0.2728,-0.8887 -0.2635,-0.9163 0.1633,-0.4892 0.3482,0.3484 0.4451,0.8804 0.4208,2.3097 l -0.032,1.8571 1.4869,-0.1757 c 3.2158,-0.3801 4.913,-1.853 5.2313,-4.5399 0.3567,-3.0121 -1.4935,-5.7723 -4.688,-6.9938 l -1.7023,-0.651 0.038,-15.9934 c 0.021,-8.7963 0.1686,-18.7318 0.3286,-22.0788 2.7091,-56.6615 3.7328,-72.6118 6.3085,-98.2927 1.1187,-11.1547 1.2343,-12.9452 1.2377,-19.1823 0.01,-12.3422 -1.2557,-20.5547 -6.5896,-42.8625 -4.5432,-19.001 -5.3633,-24.7933 -5.6088,-39.6125 -0.1344,-8.1155 -0.1865,-8.9003 -0.5768,-8.6945 -0.2359,0.1244 -1.6791,0.5444 -3.2071,0.9333 -5.1598,1.3132 -12.359,1.1503 -17.275,-0.3909 -0.9035,-0.2833 -1.7618,-0.5162 -1.9073,-0.5176 -0.17,0 -0.2735,2.8121 -0.2894,7.868 -0.043,13.6349 -0.7921,18.4585 -6.4575,41.5738 -4.3362,17.6924 -5.1865,22.427 -5.4701,30.4581 -0.312,8.8383 0.7696,18.6857 4.5189,41.1427 1.8564,11.1191 2.6339,16.4742 3.3034,22.7542 2.0125,18.8781 2.2448,21.3976 3.1843,34.5281 0.7375,10.3082 0.7885,11.3004 1.2183,23.6802 0.3815,10.9874 0.4761,36.1833 0.1569,41.7857 l -0.1648,2.892 -1.9468,0.4776 c -2.9754,0.7299 -4.5382,1.9049 -5.5724,4.1895 -0.7487,1.6539 -0.6968,3.0561 0.177,4.7812 0.7978,1.575 2.0049,2.4464 3.7826,2.7307 1.5547,0.2486 1.778,0.061 1.64,-1.3741 -0.073,-0.7595 0.032,-1.6054 0.2696,-2.1699 l 0.3891,-0.9252 -0.1298,1.2411 c -0.1602,1.5319 0.056,2.4511 0.736,3.1313 0.4558,0.4558 0.8875,0.5224 3.3848,0.5224 1.8094,0 3.3681,-0.1502 4.2371,-0.4082 z m 130.7038,-0.5442 c 0.5243,-0.6074 0.6036,-0.9476 0.5291,-2.2685 -0.075,-1.3393 -0.039,-1.4892 0.2634,-1.0848 0.2378,0.3179 0.3198,1.0552 0.2542,2.286 l -0.097,1.8167 2.0467,-0.1185 c 3.5331,-0.2045 5.194,-1.8936 4.9127,-4.9959 -0.2374,-2.6183 -1.9033,-4.672 -4.4656,-5.505 -0.6673,-0.2169 -1.0167,-0.514 -1.1285,-0.9595 -0.4912,-1.9573 1.1273,-37.2966 2.3686,-51.7181 1.3584,-15.7803 2.9678,-39.8058 4.3943,-65.5961 0.5191,-9.385 0.5532,-11.2323 0.2784,-15.0812 -0.3922,-5.4941 -1.2887,-11.6705 -2.9773,-20.5136 -3.6881,-19.3143 -4.8162,-28.6525 -5.8506,-48.431 -0.6672,-12.7574 -0.3597,-43.995 0.4601,-46.7316 0.1125,-0.3756 -0.1764,-0.3502 -2.3032,0.2022 -3.2831,0.8527 -7.0081,1.2407 -9.8857,1.0297 -2.5716,-0.1886 -6.8166,-0.9672 -8.4877,-1.5568 l -1.0373,-0.366 -0.024,10.2175 c -0.05,21.3534 -1.2726,32.0643 -7.3879,64.7217 -5.3823,28.7425 -5.5459,32.9679 -2.9001,74.8771 0.2205,3.4925 0.635,9.2075 0.9212,12.7 1.526,18.6277 2.8958,37.4488 3.6876,50.6677 0.2919,4.8749 0.7173,11.9592 0.9452,15.7427 0.2278,3.7836 0.4874,9.945 0.5768,13.6922 0.1603,6.7235 0.1554,6.813 -0.3746,6.813 -0.8382,0 -2.7538,0.7471 -3.836,1.496 -2.1315,1.4749 -3.0425,5.2969 -1.7277,7.248 0.9075,1.3466 2.0857,1.9042 4.3282,2.0481 l 1.9548,0.1254 v -1.7253 c 0,-1.3621 0.1145,-1.8567 0.5441,-2.3499 0.5118,-0.5875 0.5275,-0.5903 0.2646,-0.047 -0.3702,0.7654 -0.3558,2.5373 0.028,3.3784 0.2923,0.6415 0.4099,0.6739 2.4474,0.6725 1.1772,-9e-4 2.5782,-0.1231 3.1133,-0.2718 1.5188,-0.4218 3.4271,-1.8567 4.0263,-3.0273 0.6578,-1.2853 0.6832,-3.3696 0.056,-4.5829 -0.4553,-0.8805 -2.3491,-2.4353 -2.9661,-2.4353 -0.1899,0 -0.4075,-0.387 -0.4835,-0.8599 -0.2828,-1.7576 -1.1295,-18.2748 -2.1329,-41.6057 -0.219,-5.0933 -0.5191,-11.1655 -0.6668,-13.4938 -1.2243,-19.2954 -2.0691,-49.8334 -1.3431,-48.551 0.2526,0.4462 1.1994,6.9522 1.5979,10.9802 0.6822,6.8958 1.6619,25.8119 3.5835,69.1885 0.5125,11.5689 0.9977,21.4313 1.0782,21.9164 0.1079,0.65 0.2523,0.8414 0.5488,0.7276 0.2213,-0.085 2.0494,-0.1544 4.0624,-0.1544 h 3.6599 l 0.1497,-1.9182 c 0.082,-1.0551 0.3356,-6.145 0.5629,-11.311 0.2273,-5.166 0.6441,-14.2742 0.9261,-20.2406 0.4864,-10.2879 0.8082,-17.5612 1.7209,-38.8937 0.6319,-14.77 1.1487,-21.8074 2.1663,-29.5011 l 0.4724,-3.5719 0.1674,2.6459 c 0.3341,5.2821 0.2138,16.3865 -0.2994,27.6489 -0.2885,6.3302 -0.7644,16.9863 -1.0576,23.6802 -0.2931,6.694 -0.8371,18.1835 -1.2088,25.5323 -0.3717,7.3488 -0.8335,16.5137 -1.0262,20.3665 -0.3102,6.2009 -0.4042,7.036 -0.8189,7.276 -2.9979,1.7349 -4.3609,5.4191 -2.9856,8.0702 0.98,1.8891 3.116,2.742 6.3031,2.5169 1.1807,-0.083 1.5715,-0.2376 2.072,-0.8174 z m -146.0087,-0.1721 c 0,-0.036 -0.3591,-0.7675 -0.7938,-1.6247 -0.5527,-1.0899 -0.7904,-1.9424 -0.7904,-2.8344 0,-3.1163 2.2437,-6.3873 5.0941,-7.4266 l 1.6196,-0.5906 -0.9094,-0.4091 c -0.6576,-0.2958 -1.7889,-0.4092 -4.0845,-0.4094 -2.9614,-2e-4 -3.2729,0.05 -4.6302,0.7451 -5.9076,3.0257 -6.7593,10.5407 -1.3821,12.1946 1.0077,0.31 5.8893,0.605 5.8767,0.3551 z m 113.132,-0.6403 c -1.4766,-3.848 -0.097,-7.8948 3.3662,-9.8726 l 1.3279,-0.7584 -1.0338,-0.2182 c -1.6424,-0.3468 -4.3547,-0.2166 -5.8433,0.2803 -2.062,0.6883 -3.3606,1.7588 -4.1899,3.4539 -1.9419,3.969 0.6101,7.4531 5.522,7.539 0.8483,0.015 0.9919,-0.057 0.8509,-0.424 z m 45.8859,-0.4442 c 3.7327,-1.7841 2.8179,-8.0617 -1.4336,-9.8376 -1.1411,-0.4767 -3.9268,-0.6201 -5.5779,-0.287 l -1.0583,0.2134 0.9613,0.4944 c 1.3227,0.6801 3.0157,2.6765 3.5168,4.147 0.5132,1.5062 0.5182,3.5606 0.012,4.9653 -0.2097,0.5821 -0.3831,1.0825 -0.3853,1.112 -0.019,0.2593 3.0336,-0.3625 3.9648,-0.8075 z m -5.424,-12.3472 c 0.7434,-0.1156 2.2148,-0.085 3.3586,0.071 l 2.0356,0.2763 1.573,-1.3627 c 7.6071,-6.5901 13.1162,-15.14 16.6979,-25.9143 2.4619,-7.4057 3.5211,-13.7887 3.5211,-21.2199 0,-7.6328 -1.1811,-14.1272 -3.8974,-21.4313 -1.3076,-3.5161 -3.2965,-8.2021 -3.4813,-8.2021 -0.244,0 -5.0812,3.5968 -6.5428,4.865 -2.0352,1.7659 -4.5478,4.7106 -6.4198,7.5239 -1.7596,2.6445 -4.464,8.1781 -5.643,11.5464 -0.9573,2.7354 -1.0993,2.9793 -0.9096,1.5637 0.9141,-6.8235 2.0885,-10.0387 5.4964,-15.0471 3.042,-4.4709 6.6271,-7.5959 11.0804,-9.6587 1.4132,-0.6545 2.5713,-1.3404 2.5736,-1.5241 0,-0.1837 -1.8921,-4.0532 -4.2099,-8.5989 -6.4467,-12.6436 -9.1107,-18.9765 -10.7671,-25.5952 l -0.7615,-3.0427 -0.058,2.1167 c -0.3186,11.5765 -2.493,45.7708 -3.9118,61.5156 -1.2143,13.475 -2.1132,29.4271 -2.3781,42.2011 -0.081,3.929 -0.2094,7.9037 -0.2844,8.8326 l -0.1363,1.6889 0.8708,-0.1991 c 0.479,-0.1095 1.4662,-0.2916 2.1938,-0.4047 z m -147.0789,-23.4115 c -0.1252,-15.3745 -0.3612,-23.899 -0.9633,-34.7927 -0.5213,-9.4326 -0.8895,-11.1173 -3.5852,-16.4042 -2.5094,-4.9214 -6.1048,-8.7379 -10.8416,-11.5081 -0.9441,-0.5521 -1.6665,-1.0539 -1.6052,-1.1152 0.1821,-0.1821 3.3166,1.4739 5.5888,2.9527 3.8267,2.4904 6.3922,5.2352 8.3625,8.9468 0.5688,1.0714 1.0189,1.6814 1.0221,1.3853 0.011,-0.9786 -1.0158,-11.5625 -2.1013,-21.6677 -1.1624,-10.8202 -2.0497,-17.2189 -3.7097,-26.7511 -0.5829,-3.3469 -1.4797,-8.6979 -1.9928,-11.891 -0.5132,-3.1931 -0.9895,-5.8621 -1.0585,-5.9311 -0.069,-0.069 -0.1254,0.4256 -0.1254,1.0992 0,4.3435 -2.0672,15.507 -5.7914,31.275 -5.3899,22.821 -7.0234,33.4071 -7.0019,45.3761 0.028,15.3126 2.4397,29.7424 6.6007,39.4865 1.6994,3.9798 4.3628,9.0241 6.3415,12.0105 2.4386,3.6804 6.5622,8.0586 8.8797,9.4278 l 1.687,0.9968 0.2127,-3.378 c 0.117,-1.8579 0.1536,-10.6408 0.081,-19.5176 z m 34.736,21.008 c 1.7548,-0.049 -0.1593,-0.4471 -2.2878,-0.4764 -1.6133,-0.022 -1.9182,0.043 -1.9182,0.4082 0,0.3743 0.2254,0.411 1.6263,0.2646 0.8945,-0.094 2.0553,-0.1819 2.5797,-0.1964 z m -2.9077,-36.1196 c 4.6435,-9.9229 5.956,-20.8568 3.6126,-30.0948 -0.604,-2.3808 -1.6349,-5.1411 -1.8327,-4.9069 -0.05,0.059 0.069,1.2977 0.2634,2.7529 0.1946,1.4552 0.4321,5.3843 0.5277,8.7312 0.248,8.6727 -0.1862,12.4011 -2.3877,20.5053 -1.4949,5.5027 -1.5168,5.8618 -0.1833,3.0123 z m 77.1259,-21.0334 c -1.8548,-8.1552 -7.0312,-15.1305 -14.1735,-19.0994 -2.6336,-1.4634 -2.5113,-1.1866 0.3096,0.7012 5.8414,3.9091 9.59,9.2002 13.4838,19.0324 0.3335,0.842 0.6551,1.4821 0.7148,1.4224 0.06,-0.06 -0.091,-0.9851 -0.3347,-2.0566 z m -71.4496,-51.5644 c 2.9072,-6.9441 3.405,-8.3013 3.3965,-9.2604 0,-0.5093 -0.427,-3.3668 -0.9389,-6.35 -0.5119,-2.9832 -1.0772,-6.654 -1.2563,-8.1575 -0.179,-1.5034 -0.4096,-2.575 -0.5123,-2.3812 -0.1027,0.1937 -0.323,1.9596 -0.4895,3.9241 -0.1665,1.9646 -0.7148,8.513 -1.2185,14.5521 -0.5036,6.0391 -0.9685,11.3969 -1.0331,11.9063 -0.085,0.6743 -0.056,0.7822 0.1089,0.3968 0.1245,-0.291 0.9989,-2.3746 1.9432,-4.6302 z m -20.726,-133.8877 c 3.1256,-0.3809 6.5842,-1.4039 9.3858,-2.7762 2.4061,-1.1787 6.493,-3.9588 6.6805,-4.5444 0.1348,-0.4211 -4.2107,-2.4863 -7.0774,-3.3636 -1.2369,-0.3785 -2.4276,-0.8046 -2.6458,-0.9468 -1.5439,-1.0059 5.5435,1.3594 8.3233,2.7778 l 2.2065,1.1259 1.5138,-1.5297 c 1.3678,-1.3823 1.466,-1.5549 1.0189,-1.7918 -1.0677,-0.5657 -9.109,-1.8929 -11.5256,-1.9024 -0.6826,0 -1.3147,-0.1239 -1.4047,-0.2694 -0.091,-0.1472 0.1075,-0.2644 0.4475,-0.2643 1.6964,9e-4 8.0814,0.8934 10.4878,1.466 1.5032,0.3577 2.8724,0.6474 3.0427,0.6438 0.3552,-0.01 2.9669,-3.3773 2.7701,-3.5741 -0.071,-0.072 -1.7216,-0.251 -3.6672,-0.3991 -3.3069,-0.2517 -11.152,0.023 -12.8824,0.4504 -0.3274,0.081 -0.5953,0.029 -0.5953,-0.1161 0,-0.4565 1.5442,-0.603 7.9375,-0.7528 3.7996,-0.089 6.8351,-0.039 7.8052,0.1288 l 1.5875,0.2745 0.8843,-0.9791 c 0.4864,-0.5385 1.1237,-1.4446 1.4161,-2.0135 l 0.5316,-1.0345 -3.5327,0.1732 c -5.289,0.2593 -11.7583,1.3301 -16.4311,2.7198 -0.2547,0.076 -0.463,0.021 -0.463,-0.1207 0,-0.3113 5.7615,-1.7264 9.2604,-2.2745 3.0993,-0.4855 9.0527,-1.0008 10.3105,-0.8924 0.905,0.078 0.9489,0.038 1.5066,-1.3739 1.3865,-3.5106 1.8012,-8.7668 1.0154,-12.8733 -0.2181,-1.1402 -0.7594,-3.2408 -1.2028,-4.6681 l -0.8062,-2.595 0.5875,-3.3589 c 0.4974,-2.8439 0.5862,-4.3122 0.5791,-9.5766 -0.013,-9.5934 -0.7298,-14.6149 -2.3369,-16.3686 l -0.8714,-0.9508 -3.1341,2.9289 c -4.5977,4.2967 -14.898,15.3536 -15.3051,16.4293 -0.011,0.03 -0.9684,-0.1067 -2.1269,-0.3037 -3.385,-0.5755 -6.9299,-0.7287 -9.9115,-0.4282 -1.528,0.1539 -3.433,0.3458 -4.2334,0.4264 l -1.4552,0.1465 -1.3779,-2.0644 c -1.9377,-2.9031 -5.7466,-7.6203 -9.47,-11.7281 -4.345,-4.7937 -5.8883,-5.9228 -6.7223,-4.918 -0.4723,0.5691 -1.5449,5.7937 -1.853,9.0255 -0.1526,1.6007 -0.4073,6.006 -0.566,9.7896 l -0.2886,6.8791 0.792,2.3813 c 1.3814,4.1538 1.7514,6.4683 1.7552,10.9802 0,4.3571 -0.1455,5.2239 -1.493,8.672 -1.0099,2.5839 -0.9936,2.7051 0.3638,2.7051 2.365,0 17.2033,3.4146 17.9102,4.1215 0.3785,0.3785 -0.433,0.2456 -2.7586,-0.4518 -4.2182,-1.2649 -14.3684,-3.3777 -16.334,-3.3999 -0.6604,-0.01 -0.584,0.4187 0.4688,2.6155 l 0.9318,1.9443 4.1615,-0.183 c 4.5062,-0.1982 12.4494,0.2287 12.8926,0.6928 0.1837,0.1924 -0.1806,0.2294 -1.1906,0.1212 -3.028,-0.3245 -10.0703,-0.4957 -12.7844,-0.3107 l -2.8225,0.1924 0.8244,1.1479 c 0.4534,0.6314 1.1514,1.5397 1.5511,2.0184 l 0.7267,0.8705 2.0851,-0.5954 c 3.2048,-0.9151 6.0383,-1.3815 9.229,-1.5191 1.6007,-0.069 2.7913,-0.07 2.6458,0 -0.1455,0.068 -2.0237,0.3117 -4.1737,0.5417 -3.753,0.4016 -8.7666,1.4583 -9.2601,1.9518 -0.289,0.289 2.3777,2.8425 2.8609,2.7394 0.1859,-0.04 1.224,-0.4815 2.3068,-0.9818 1.6942,-0.7828 7.179,-2.5179 7.9592,-2.5179 0.647,0 -0.2422,0.3553 -3.0346,1.2126 -2.4074,0.7391 -6.223,2.2357 -6.8239,2.6766 -0.2324,0.1705 1.1965,1.4464 3.0706,2.742 5.812,4.0178 13.5262,5.8794 20.7278,5.0019 z m -9.1647,-10.1601 c -0.8299,-0.3613 -1.9547,-1.3898 -1.9547,-1.7875 0,-0.3727 0.5523,-0.2342 1.3606,0.3413 1.1877,0.8458 2.5271,0.9099 3.9276,0.1882 0.8842,-0.4557 1.248,-0.8292 1.425,-1.4634 0.3073,-1.101 -0.1072,-1.7431 -2.281,-3.5333 -2.1142,-1.7411 -2.4335,-2.4572 -1.4665,-3.289 1.4679,-1.2626 6.1107,-1.4811 8.5756,-0.4034 2.074,0.9067 1.8956,1.6569 -0.9457,3.9762 -2.2805,1.8614 -2.5253,2.2375 -2.2557,3.4648 0.4076,1.8559 3.1073,2.3878 5.2435,1.0331 1.4218,-0.9017 1.4978,-0.9243 1.4978,-0.4464 0,0.4831 -1.3039,1.6785 -2.2,2.0171 -1.6504,0.6235 -4.1168,-0.017 -5.0174,-1.3027 -0.3727,-0.5321 -0.374,-0.5321 -0.8774,0.034 -0.6676,0.7504 -2.4247,1.5398 -3.4146,1.5341 -0.4365,0 -1.1642,-0.1658 -1.6171,-0.3629 z m 6.7907,-5.5993 c 0.5015,-0.5232 1.4246,-1.3075 2.0513,-1.7428 0.6984,-0.4852 1.1072,-0.9587 1.0562,-1.2236 -0.1211,-0.6289 -1.8838,-1.0679 -4.3123,-1.0741 -2.405,-0.01 -3.9688,0.4112 -3.9688,1.0592 0,0.2381 0.7541,0.9999 1.6758,1.6927 0.9217,0.6929 1.8136,1.4803 1.9819,1.7498 0.4088,0.6545 0.4621,0.6383 1.5159,-0.4612 z m -16.9009,-9.6352 c -4.5095,-0.948 -7.9461,-4.6968 -8.4146,-9.1791 l -0.1675,-1.603 1.1589,-0.6729 c 3.1144,-1.8083 7.5694,-2.4114 10.4674,-1.4171 2.7831,0.9549 4.9217,3.3004 5.9129,6.4849 0.5937,1.9079 0.9687,5.332 0.5838,5.332 -0.3169,0 -0.5917,-0.6244 -0.5917,-1.3445 0,-0.6947 -0.3836,-0.6369 -0.8886,0.1339 -1.0715,1.6353 -5.3452,2.8367 -8.0606,2.2658 z m 0.1005,-2.3209 c -0.48,-1.8524 -0.5427,-5.6673 -0.1144,-6.963 0.1635,-0.4947 0.6351,-1.3332 1.0481,-1.8634 l 0.7509,-0.964 -0.5851,-0.1568 c -1.4313,-0.3838 -5.2238,0.263 -7.2962,1.2442 -0.9898,0.4686 -1.2435,0.7293 -1.3145,1.3506 -0.2186,1.9117 1.5837,5.3862 3.6376,7.013 1.0118,0.8013 3.985,2.2285 4.1983,2.0152 0.048,-0.048 -0.098,-0.8019 -0.3247,-1.6758 z m 4.8694,1.0295 c 0.7249,-0.2754 1.7977,-0.8807 2.3841,-1.3451 0.8977,-0.7111 1.066,-0.9975 1.0658,-1.8143 -2e-4,-1.2581 -1.2695,-3.924 -2.5352,-5.325 -0.9624,-1.0653 -2.4105,-2.032 -2.664,-1.7785 -0.068,0.068 0.081,0.5825 0.3302,1.144 0.8533,1.9212 0.5062,5.6733 -0.8526,9.2142 -0.216,0.563 0.6329,0.5274 2.2717,-0.095 z m -2.6353,-7.6689 c 0,-0.2732 -0.1786,-0.645 -0.3969,-0.8261 -0.3383,-0.2808 -0.3968,-0.2076 -0.3968,0.4968 0,0.5579 0.1288,0.8261 0.3968,0.8261 0.2183,0 0.3969,-0.2235 0.3969,-0.4968 z m 24.9786,8.9554 c -1.5499,-0.3073 -3.3487,-1.2109 -4.219,-2.1193 -0.4126,-0.4307 -0.8338,-0.783 -0.9359,-0.783 -0.1021,0 -0.263,0.4125 -0.3576,0.9167 -0.2429,1.295 -0.6816,1.4399 -0.6761,0.2233 0.01,-1.6208 0.6924,-4.4063 1.4525,-5.9062 2.6218,-5.1739 7.9358,-6.9435 14.2879,-4.7581 2.434,0.8375 2.7683,1.1333 2.6098,2.31 -0.5927,4.4018 -1.9973,6.9641 -4.8048,8.7657 -2.1364,1.3709 -4.7942,1.8589 -7.3568,1.3509 z m 2.0089,-0.7328 c 0,-0.1164 -0.1079,-0.3247 -0.2398,-0.463 -0.1319,-0.1382 -0.4891,-1.0676 -0.7938,-2.0651 -0.7402,-2.4239 -0.755,-5.9196 -0.032,-7.5128 0.2807,-0.6185 0.4519,-1.1245 0.3805,-1.1245 -0.3779,0 -2.3312,1.1674 -3.1367,1.8745 -1.1855,1.041 -2.4309,3.2189 -2.8305,4.9504 -0.2988,1.2943 -0.2842,1.379 0.3254,1.8843 1.7967,1.4894 6.3267,3.2481 6.3267,2.4562 z m 4.4659,-1.2023 c 2.3419,-1.3739 4.2085,-4.3312 4.668,-7.3957 l 0.1856,-1.2379 -1.284,-0.5504 c -1.785,-0.7652 -4.2003,-1.2997 -5.8937,-1.3043 -1.3564,0 -1.408,0.02 -1.0023,0.4687 0.2353,0.26 0.6965,1.0637 1.0249,1.786 0.7361,1.619 0.792,4.953 0.1245,7.4368 -0.2402,0.8942 -0.4368,1.7059 -0.4368,1.8038 0,0.3008 1.12,-0.1307 2.6138,-1.007 z m -3.6721,-7.5602 c 0,-0.4578 -0.3212,-1.08 -0.5575,-1.08 -0.13,0 -0.2363,0.2977 -0.2363,0.6615 0,0.4116 0.1499,0.6615 0.3969,0.6615 0.2183,0 0.3969,-0.1094 0.3969,-0.243 z m -40.315,-10.559 c -0.4051,-7.2946 -0.4824,-14.1063 -0.1942,-17.1145 0.3348,-3.4942 0.7876,-6.2293 1.0867,-6.5632 0.2669,-0.2979 5.6025,5.0875 8.29,8.3675 2.2335,2.7259 5.3961,6.9975 5.9576,8.0468 0.3532,0.66 0.3671,0.6486 -1.548,1.2664 -3.854,1.2431 -8.8959,4.2926 -11.6653,7.0554 l -1.77,1.7658 z m 50.6635,0.7212 c -2.7347,-2.5503 -7.0253,-5.0929 -10.9604,-6.4952 -1.0459,-0.3728 -1.9884,-0.7579 -2.0945,-0.8559 -0.3894,-0.3598 3.4676,-5.0451 7.7081,-9.3634 4.8814,-4.9708 7.0283,-6.7889 7.4815,-6.3357 0.9018,0.9018 0.9543,16.5581 0.073,21.6877 -0.2563,1.4916 -0.5371,2.7075 -0.624,2.7019 -0.087,-0.01 -0.7993,-0.6083 -1.5833,-1.3394 z m 97.0723,43.2736 c 4.6775,-0.7577 10.1044,-3.0869 14.0038,-6.0105 l 1.436,-1.0767 -2.4944,-0.9015 c -1.3719,-0.4958 -3.5064,-1.142 -4.7433,-1.436 -2.5729,-0.6115 -3.7091,-1.1356 -1.8658,-0.8607 1.5544,0.2318 4.9414,1.1964 7.4867,2.1321 l 2.0491,0.7533 1.2454,-1.2455 c 0.685,-0.685 1.1853,-1.3056 1.1118,-1.3792 -0.5849,-0.5849 -7.691,-1.7331 -10.7392,-1.7353 -1.3595,0 -2.238,-0.1162 -2.3573,-0.3091 -0.4325,-0.7 8.9673,0.2523 12.2948,1.2455 l 1.4204,0.424 0.7172,-0.6871 c 0.3944,-0.3779 0.9765,-1.1486 1.2935,-1.7126 l 0.5763,-1.0255 -3.243,-0.1815 c -1.7837,-0.1 -5.3696,-0.052 -7.9687,0.1056 -5.4643,0.3319 -5.5241,0.332 -4.7278,0.012 0.8237,-0.3308 9.25,-0.7807 13.2899,-0.7095 l 3.3073,0.058 1.0196,-1.9461 1.0196,-1.9462 -1.1519,0.177 c -4.7836,0.735 -12.266,2.1467 -14.8809,2.8075 -3.4706,0.8771 -4.8084,0.9039 -1.8814,0.038 2.8413,-0.8408 7.4277,-1.8022 12.9646,-2.7175 2.7649,-0.4571 5.1707,-0.9679 5.3463,-1.1352 0.7645,-0.7285 1.6927,-5.2782 1.8499,-9.0684 l 0.1551,-3.7371 -2.485,-0.1254 c -1.3668,-0.069 -2.9814,-0.3047 -3.588,-0.524 l -1.103,-0.3986 -0.2687,1.5256 c -0.3523,2 -1.1291,3.4749 -2.7111,5.1477 -2.3988,2.5363 -5.3869,3.5891 -8.5614,3.0162 -1.9041,-0.3436 -2.7993,-0.7729 -4.4203,-2.1196 l -1.2341,-1.0253 -0.1805,1.0685 c -0.5763,3.4112 -1.9339,-2.9413 -2.1621,-10.1167 -0.1761,-5.5397 0.1426,-9.4099 1.102,-13.3781 0.4234,-1.7513 0.5136,-2.5264 0.3036,-2.6068 -1.3146,-0.5036 -10.9586,-0.5179 -11.4595,-0.017 -0.089,0.089 0.035,1.1423 0.2753,2.3407 0.7778,3.8778 1.1012,10.2532 0.7377,14.5406 -0.3703,4.3673 -1.3826,10.0651 -1.8138,10.2089 -0.1615,0.054 -0.3707,-0.2531 -0.4649,-0.682 l -0.1712,-0.7799 -1.3284,0.8939 c -2.6,1.7497 -6.2474,2.2089 -9.0921,1.1445 -3.0846,-1.154 -6.0081,-4.8693 -6.3937,-8.1252 -0.091,-0.7679 -0.2375,-1.3558 -0.3258,-1.3066 -1.5799,0.881 -2.4634,1.0756 -4.9815,1.097 l -2.7044,0.023 0.1309,2.3812 c 0.2717,4.9444 0.3754,5.6585 1.1931,8.2199 0.4614,1.4455 1.0067,2.9555 1.2119,3.3557 l 0.3729,0.7276 h 2.9698 c 3.3736,0 8.999,0.7508 13.2885,1.7697 3.0227,0.718 3.2208,0.7848 2.9947,1.0109 -0.075,0.075 -1.4338,-0.1703 -3.0196,-0.545 -1.5858,-0.3747 -4.3721,-0.9083 -6.1917,-1.1859 -3.4963,-0.5332 -9.7907,-0.9819 -9.7907,-0.6979 0,0.092 0.3562,0.7469 0.7916,1.4545 l 0.7916,1.2865 7.8735,0.1617 c 4.3304,0.089 8.2307,0.2702 8.6673,0.4029 0.4951,0.1505 -2.3669,0.1891 -7.6068,0.1027 -7.1016,-0.1172 -8.3997,-0.081 -8.3951,0.2327 0,0.2043 0.5118,0.9501 1.1306,1.6574 l 1.1252,1.286 2.5074,-0.4223 c 4.8075,-0.8097 12.1647,-1.3981 12.1647,-0.9729 0,0.1688 -0.7555,0.2804 -1.9182,0.2834 -1.6314,0 -5.7924,0.4668 -10.8479,1.2061 -0.6913,0.1011 -1.2568,0.3107 -1.2568,0.4659 0,0.482 1.6647,2.0272 2.184,2.0272 0.271,0 1.8848,-0.3464 3.5861,-0.7697 1.7014,-0.4233 3.9864,-0.9084 5.0778,-1.078 1.0914,-0.1695 2.1927,-0.367 2.4474,-0.4388 0.2547,-0.072 0.463,-0.025 0.463,0.1045 0,0.1293 -0.9227,0.378 -2.0505,0.5528 -1.7175,0.2661 -7.7734,1.6412 -9.0349,2.0515 -0.5378,0.1749 2.5394,2.4778 5.5128,4.1256 5.9886,3.3188 13.3627,4.6047 20.1247,3.5095 z m -10.2357,-9.3672 c -0.7389,-0.4505 -1.406,-1.2645 -1.406,-1.7155 0,-0.3448 0.7464,-0.1114 1.1816,0.3695 1.3778,1.5224 3.6616,1.1325 4.6438,-0.7927 0.4837,-0.9481 0.5193,-1.2174 0.2476,-1.8733 -0.3413,-0.824 -1.5565,-1.9977 -2.874,-2.776 -1.04,-0.6143 -1.1269,-1.7416 -0.1821,-2.3607 1.0701,-0.7011 3.9785,-1.0206 6.1015,-0.6703 3.1626,0.5219 3.8694,1.4913 2.0774,2.8493 -0.5362,0.4063 -1.5702,1.2894 -2.2976,1.9623 l -1.3226,1.2235 0.4593,1.2025 c 0.2525,0.6613 0.7465,1.3907 1.0976,1.6208 1.0067,0.6595 2.5927,0.5365 3.5584,-0.2761 0.8779,-0.7387 1.2193,-0.7103 0.9527,0.079 -0.4256,1.2601 -2.8706,2.0355 -4.409,1.3983 -0.4563,-0.189 -1.153,-0.79 -1.5482,-1.3355 l -0.7185,-0.992 -0.4682,0.7925 c -1.0139,1.7164 -3.405,2.324 -5.0937,1.2943 z m 8.9357,-7.4611 c 1.1392,-0.8842 0.8888,-1.1951 -1.2887,-1.6 -1.246,-0.2317 -2.0487,-0.225 -3.4702,0.029 -2.4277,0.4339 -2.7748,0.8431 -1.4333,1.69 0.5574,0.3518 1.4293,1.1116 1.9377,1.6884 l 0.9243,1.0487 1.2135,-1.0775 c 0.6675,-0.5926 1.62,-1.393 2.1167,-1.7786 z m -95.6239,16.0289 c 1.6864,-1.0787 1.8123,-0.8354 -1.4165,-2.7376 -2.0399,-1.2018 -2.3269,-1.2031 -3.3948,-0.015 l -0.5263,0.5851 0.6615,0.4294 c 0.3638,0.2361 1.1972,0.9336 1.8521,1.5499 0.6548,0.6163 1.2261,1.1232 1.2695,1.1266 0.043,0 0.7429,-0.4186 1.5545,-0.9379 z m -49.5609,-3.0673 2.0009,-1.3655 -1.3384,-1.5449 c -0.7361,-0.8497 -1.5077,-1.5449 -1.7146,-1.5449 -0.5554,0 -5.9413,2.7195 -5.8593,2.9586 0.1015,0.2956 4.2229,2.8622 4.5961,2.8622 0.1729,0 1.2148,-0.6145 2.3153,-1.3655 z m 108.3262,0.3455 c 0.8326,-0.4155 3.2687,-1.4423 5.4137,-2.2817 l 3.8998,-1.5262 -1.0474,-1.251 c -1.4873,-1.7765 -1.6868,-1.9104 -2.4274,-1.6288 -0.3488,0.1326 -1.806,0.4407 -3.2382,0.6847 -2.4531,0.4179 -4.2172,0.8798 -8.8711,2.3229 l -1.9635,0.6089 3.2865,1.8853 c 1.8075,1.037 3.3196,1.8979 3.3601,1.9133 0.041,0.015 0.7549,-0.3119 1.5875,-0.7274 z m -113.2894,-3.4779 c 1.4162,-0.7276 2.7268,-1.3229 2.9125,-1.3229 0.7968,0 0.5901,-0.6993 -0.8634,-2.9207 l -1.5459,-2.3627 h -1.7499 c -1.7385,0 -1.7547,0 -2.4681,1.0321 -0.395,0.5699 -1.4878,1.7753 -2.4285,2.6786 -0.9407,0.9033 -1.6756,1.6574 -1.633,1.6758 0.043,0.018 1.149,0.5962 2.4587,1.2842 1.3097,0.6881 2.4626,1.2536 2.562,1.2568 0.099,0 1.3394,-0.5895 2.7556,-1.3171 z m 112.0219,-2.1212 1.1875,-0.3144 -0.7906,-0.3482 c -1.0039,-0.4422 -0.5539,-0.4566 0.6523,-0.021 0.769,0.2778 1.314,0.2497 3.4396,-0.1772 1.3892,-0.2789 2.6282,-0.6044 2.7534,-0.7232 0.2047,-0.1943 -1.1432,-2.4621 -1.62,-2.7257 -0.3194,-0.1765 -6.4531,0.7964 -7.6651,1.2158 -0.616,0.2131 -1.0574,0.2862 -0.9808,0.1623 0.2303,-0.3726 2.5101,-0.9543 5.6117,-1.4319 l 2.9267,-0.4507 -0.8375,-1.5429 -0.8376,-1.5429 -3.0427,-0.083 c -7.6279,-0.2072 -16.7362,0.464 -21.11,1.5557 -2.3894,0.5964 -1.8329,0.7276 0.9079,0.214 4.1953,-0.7861 8.3355,-1.1969 13.815,-1.3706 l 5.3868,-0.1707 -0.4009,0.7705 c -0.2204,0.4238 -1.0123,1.5971 -1.7597,2.6074 l -1.3589,1.837 0.6063,0.3365 c 0.9607,0.5332 0.2984,0.409 -1.019,-0.1911 -0.6596,-0.3005 -2.0717,-0.7133 -3.1379,-0.9173 -3.1745,-0.6073 -14.6837,-1.3459 -14.6837,-0.9423 0,0.1157 2.2097,0.2946 4.9104,0.3975 5.9231,0.2258 12.5521,1.1293 12.5521,1.7107 0,0.098 -0.8964,1.0687 -1.9919,2.1565 -1.8244,1.8114 -1.9412,1.9901 -1.3891,2.1245 0.3454,0.084 1.9022,-0.2735 3.6456,-0.8373 1.6734,-0.5412 3.577,-1.1255 4.2301,-1.2984 z m -8.8736,1.6315 c -0.7964,-0.7135 -10.1582,-3.58 -12.6868,-3.8847 -0.582,-0.07 0.4344,0.2774 2.2588,0.7722 1.8244,0.4949 4.8605,1.4303 6.7469,2.0788 3.7365,1.2845 4.0637,1.3763 3.6811,1.0337 z m -152.2491,-1.7667 c 2.113,-0.6172 5.3277,-1.443 7.1438,-1.8349 3.7872,-0.8175 4.087,-0.9003 3.9081,-1.0793 -0.5476,-0.5475 -14.7489,3.2442 -15.6875,4.1885 -0.1772,0.1784 -0.09,0.1972 0.2646,0.057 0.2911,-0.115 2.258,-0.7141 4.371,-1.3314 z m 113.792,0.4138 c 1.2514,-0.4079 3.8708,-1.1424 5.8208,-1.6323 1.95,-0.4899 3.2788,-0.9286 2.9529,-0.9749 -1.1642,-0.1654 -11.2149,2.758 -11.8429,3.4446 -0.1877,0.2052 -0.1108,0.2334 0.2645,0.097 0.2911,-0.1059 1.5532,-0.5263 2.8047,-0.9342 z m -73.9712,-0.3227 c -2.326,-1.226 -10.8938,-3.6794 -12.6997,-3.6366 -0.4402,0.011 0.5093,0.3193 2.11,0.6863 1.6007,0.367 4.7559,1.2919 7.0115,2.0553 4.6423,1.5711 5.0587,1.6753 3.5782,0.895 z m 89.6651,-1.9875 c 0.5943,-0.4135 1.3041,-1.2072 1.5772,-1.7638 l 0.4966,-1.0118 0.4083,0.843 c 1.2197,2.5184 4.0433,3.6193 5.7423,2.2388 l 0.5291,-0.4299 -0.5291,0.1989 c -0.2911,0.1094 -1.0055,0.2472 -1.5875,0.3062 -1.2534,0.1272 -2.5552,-0.6275 -3.4995,-2.0287 -1.0958,-1.6261 -0.8813,-2.2162 1.8,-4.9503 2.7155,-2.7691 2.8945,-3.3368 1.3026,-4.132 -0.7137,-0.3565 -1.5935,-0.4624 -3.8365,-0.4615 -3.0418,0 -4.6253,0.2806 -5.1464,0.9085 -0.484,0.5832 0.4654,2.1259 2.607,4.2363 1.5986,1.5752 1.8483,1.9437 1.7387,2.566 -0.2154,1.2227 -0.5679,1.9132 -1.3555,2.6553 -1.2869,1.2128 -3.1428,1.6098 -4.7208,1.0099 -0.4477,-0.1702 -0.6369,-0.1717 -0.5334,0 0.2646,0.4282 1.7849,0.7824 2.8902,0.6733 0.5699,-0.056 1.5224,-0.4405 2.1167,-0.854 z m -113.1729,-0.066 c 0.4622,-0.2818 1.1056,-0.8712 1.4299,-1.3098 l 0.5895,-0.7974 1.3015,1.1701 c 0.7836,0.7045 1.6724,1.2397 2.2337,1.345 1.0967,0.2058 2.5979,-0.2052 3.527,-0.9656 l 0.6615,-0.5414 -1.0544,0.5422 c -0.6252,0.3214 -1.5639,0.5421 -2.3059,0.5421 -1.0264,0 -1.4222,-0.1499 -2.2003,-0.8331 -2.06,-1.8087 -2.1971,-3.0836 -0.5093,-4.7342 1.5056,-1.4725 3.1722,-3.6338 3.4129,-4.4261 0.1562,-0.514 0.037,-0.6614 -0.826,-1.022 -0.798,-0.3335 -1.6717,-0.3963 -4.1867,-0.3012 -5.5824,0.2113 -5.8432,0.8082 -2.0819,4.7652 1.1155,1.1736 1.9464,2.2784 1.9464,2.5882 0,2.3881 -3.2351,4.8048 -5.3816,4.0202 -0.759,-0.2775 -0.7888,-0.2698 -0.3225,0.083 0.7351,0.5567 2.758,0.4893 3.7662,-0.1254 z m 99.0029,-1.9529 c 3.9476,-0.025 7.1782,-0.1356 7.1792,-0.2447 0,-0.2428 -10.7788,-0.2645 -13.5845,-0.027 -1.1134,0.094 -2.0243,0.275 -2.0243,0.402 0,0.1269 0.2817,0.16 0.6261,0.074 0.3444,-0.086 3.8559,-0.178 7.8035,-0.2035 z m -118.2183,-0.4777 c 3.6359,-0.2235 6.2692,-0.2419 8.8635,-0.062 3.6759,0.2549 4.0623,0.2475 3.7436,-0.071 -0.6482,-0.6482 -20.5324,-0.1685 -20.1282,0.4856 0.081,0.1302 0.6418,0.1757 1.2473,0.1011 0.6056,-0.075 3.4288,-0.2786 6.2738,-0.4535 z m 48.3337,-0.1253 c -0.088,-0.088 -0.3161,-0.097 -0.5071,-0.021 -0.2111,0.084 -0.1484,0.1471 0.1598,0.1598 0.279,0.012 0.4352,-0.051 0.3473,-0.1389 z m -1.0198,-0.2261 c -0.4407,-0.4407 -6.94,-0.9323 -11.8205,-0.8942 l -5.4766,0.043 6.0854,0.2188 c 3.347,0.1203 6.7998,0.3236 7.673,0.4516 1.8012,0.2642 3.7201,0.3623 3.5387,0.1809 z m 4.4819,-1.1354 c -0.3018,-0.6913 -0.5812,-1.2949 -0.6211,-1.3415 -0.085,-0.1 -1.711,2.226 -1.711,2.4475 0,0.083 0.6482,0.1507 1.4403,0.1507 h 1.4404 z m 73.6033,0.078 c 0,-0.5714 -10.3177,-2.8192 -12.6514,-2.7561 -1.1127,0.03 -1.0508,0.058 0.6057,0.2698 2.6564,0.3404 7.9462,1.4423 9.7968,2.0408 1.6469,0.5327 2.2489,0.6519 2.2489,0.4455 z m -113.001,-0.5205 c -0.2717,-0.2716 -6.7166,-1.7443 -9.2916,-2.1232 -2.9221,-0.4299 -12.9325,-1.4873 -13.6792,-1.445 -1.1717,0.066 1.6694,0.5185 5.6645,0.9012 5.9018,0.5654 10.786,1.2986 13.8907,2.0851 2.4055,0.6095 3.6562,0.8225 3.4156,0.5819 z m 19.8677,-1.5764 c 3.5803,-0.8389 9.8054,-1.4861 14.5268,-1.5103 3.6483,-0.019 4.4551,-0.083 3.7294,-0.2966 -1.3479,-0.3971 -8.9604,-0.059 -13.3614,0.5932 -4.486,0.6649 -7.2761,1.2754 -7.2761,1.5922 0,0.1293 0.1489,0.1877 0.3308,0.1298 0.1819,-0.058 1.1046,-0.2867 2.0505,-0.5083 z m 93.5255,0.093 c -0.4924,-0.7967 -10.9695,-5.1137 -11.3901,-4.6932 -0.06,0.06 1.632,0.755 3.7596,1.5448 2.1275,0.7899 4.6563,1.8776 5.6194,2.4171 1.8203,1.0197 2.2964,1.1928 2.0111,0.7313 z m 18.0296,-0.4221 c 5.3605,-2.3943 11.7581,-3.9012 18.3553,-4.3236 l 3.0427,-0.1948 -2.6458,-0.035 c -4.1148,-0.054 -9.2794,0.788 -13.7584,2.2428 -2.3385,0.7596 -6.4726,2.4349 -6.8659,2.7824 -0.4809,0.4249 0.3106,0.2253 1.8721,-0.4721 z m -130.8697,0.2034 c 0,-0.3582 -4.3291,-2.254 -7.843,-3.4346 -6.4355,-2.1622 -13.8761,-3.7977 -16.8557,-3.7052 -1.0397,0.032 -1.1432,0.067 -0.4367,0.1458 2.7402,0.306 7.7434,1.2777 11.2448,2.184 3.8756,1.0031 10.7068,3.403 12.7405,4.4759 1.2039,0.6351 1.1501,0.6195 1.1501,0.3341 z m 154.5095,-0.3691 c 0,-0.036 -0.3373,-0.9913 -0.7408,-2.122 l -0.7337,-2.0559 -0.726,1.7913 c -0.3994,0.9852 -0.7931,1.9401 -0.875,2.122 -0.1102,0.2448 0.2712,0.3308 1.4669,0.3308 0.8887,0 1.6126,-0.03 1.6086,-0.066 z m -136.1836,-1.6896 c 3.4519,-1.7851 11.9783,-4.0954 17.3929,-4.7128 4.8539,-0.5535 5.6435,-0.6761 5.4701,-0.8495 -0.3849,-0.3849 -9.03,0.8086 -12.7462,1.7596 -5.1584,1.3202 -12.9258,4.2356 -11.2846,4.2356 0.1819,0 0.7074,-0.1948 1.1678,-0.4329 z m 157.2251,-5.7782 c 0.7276,-0.357 1.7817,-1.0294 2.3423,-1.494 0.9596,-0.7954 1.0093,-0.9084 0.8475,-1.9277 -0.4229,-2.6647 -2.5519,-5.5394 -4.8654,-6.5697 -0.6305,-0.2808 -1.1966,-0.4604 -1.2579,-0.3991 -0.061,0.061 0.075,0.4843 0.3019,0.94 0.2273,0.4557 0.4819,1.2513 0.5657,1.768 0.1992,1.2271 -0.3453,4.5447 -1.1232,6.8439 l -0.6177,1.8259 1.242,-0.1691 c 0.683,-0.093 1.8372,-0.4611 2.5648,-0.8182 z m 24.3517,0.4564 c -1.0131,-2.6223 -1.2626,-3.809 -1.2653,-6.0193 0,-1.6174 0.1363,-2.7126 0.4312,-3.4141 0.2388,-0.568 0.3941,-1.0729 0.3451,-1.1218 -0.049,-0.049 -0.6935,0.2121 -1.4323,0.5803 -2.2909,1.1416 -4.3576,3.7587 -4.9358,6.2502 -0.1387,0.5975 0.01,0.8587 0.9602,1.6851 2.1838,1.8996 6.4072,3.3603 5.8969,2.0396 z m 5.7871,-1.9247 c 1.6606,-1.5306 3.314,-4.9662 3.3279,-6.915 0,-0.6237 -3.5871,-1.8009 -6.0823,-1.9936 l -1.9844,-0.1532 0.5827,0.6351 c 1.014,1.1053 1.4017,2.4409 1.4017,4.8292 0,1.4899 -0.1751,2.7924 -0.5257,3.9111 -0.2892,0.9225 -0.5273,1.7685 -0.5292,1.8801 -0.01,0.3883 2.6976,-1.1689 3.8093,-2.1937 z m -36.1401,0.6018 c -0.3825,-1.0604 -0.5557,-2.2071 -0.5716,-3.7841 -0.02,-1.9726 0.073,-2.4584 0.7244,-3.7897 0.4109,-0.8399 0.9126,-1.5906 1.115,-1.6682 0.8045,-0.3088 0.2941,-0.6136 -1.0211,-0.6099 -1.6453,0 -4.0795,0.5443 -5.8191,1.2899 l -1.2504,0.536 0.1424,1.2679 c 0.3284,2.925 2.6671,6.3355 5.215,7.6052 1.99,0.9916 2.1048,0.9252 1.4654,-0.8471 z m -171.8143,-2.2033 c 0.6303,-0.2963 1.649,-0.9692 2.2637,-1.4954 1.0461,-0.8954 1.1098,-1.0277 0.993,-2.0637 -0.2731,-2.4225 -2.0217,-5.1709 -4.1475,-6.5191 -1.6448,-1.0431 -1.9513,-0.9901 -1.4052,0.2429 0.7148,1.6138 0.5756,5.5105 -0.2906,8.1359 -0.384,1.1642 -0.6998,2.2212 -0.7017,2.349 -0.01,0.3529 1.9969,-0.043 3.2883,-0.6496 z m -4.8791,0.4271 c 0,-0.067 -0.2615,-0.752 -0.5811,-1.5213 -0.4738,-1.141 -0.5836,-1.9356 -0.5953,-4.3093 -0.012,-2.5258 0.064,-3.0572 0.5792,-4.0207 0.3264,-0.6107 0.8026,-1.2321 1.0583,-1.381 0.7243,-0.4219 -2.2441,-0.362 -3.6943,0.075 -2.2466,0.6761 -4.9689,2.0714 -4.9689,2.5468 0,0.8501 1.0286,3.4356 1.8306,4.6013 0.9388,1.3645 2.3171,2.5123 4.1423,3.4495 1.1856,0.6088 2.2292,0.871 2.2292,0.5602 z m 142.0812,-0.1084 c 0,-0.1271 -0.2665,-0.8117 -0.5923,-1.5214 -0.508,-1.1067 -0.5927,-1.7423 -0.5953,-4.4654 0,-2.8376 0.061,-3.284 0.603,-4.2005 0.3334,-0.5641 0.5479,-1.0837 0.4769,-1.1548 -0.2967,-0.2966 -2.5749,1.1027 -3.5922,2.2064 -1.2174,1.3207 -2.6496,4.1027 -2.6499,5.1475 -2e-4,0.7023 0.9495,1.7546 2.6152,2.8977 1.4634,1.0042 3.7346,1.6674 3.7346,1.0905 z m -113.0554,-0.4967 c -0.077,-0.2547 -0.4158,-1.1774 -0.7528,-2.0505 -0.8191,-2.1219 -0.9009,-6.901 -0.1419,-8.2922 l 0.4822,-0.8838 -0.6145,0.1837 c -2.1792,0.6514 -4.2786,2.8138 -5.2732,5.4314 -0.766,2.0159 -0.6747,2.4293 0.836,3.7876 1.9882,1.7875 5.8422,3.0739 5.4642,1.8238 z m 5.1394,-1.2817 c 1.5197,-1.1156 2.6781,-2.703 3.5648,-4.8853 0.995,-2.4486 0.9076,-2.8032 -0.8868,-3.5979 -1.6675,-0.7385 -5.0727,-1.6783 -6.0808,-1.6783 h -0.6384 l 0.5321,0.6764 c 1.5107,1.9204 1.818,6.7383 0.6048,9.4809 -0.3131,0.7079 -0.5693,1.3857 -0.5693,1.5062 0,0.3988 2.1515,-0.5315 3.4736,-1.502 z m 111.6182,1.0843 c 2.5094,-1.2717 4.8065,-4.521 5.1938,-7.347 l 0.1615,-1.178 -1.9491,-0.8057 c -2.4482,-1.0121 -3.7983,-1.3826 -5.0452,-1.3845 h -0.9796 l 0.604,0.6518 c 0.8563,0.9239 1.2228,2.3854 1.2228,4.8756 0,1.4805 -0.1662,2.6318 -0.5291,3.6643 -0.8648,2.4604 -0.7611,2.58 1.3209,1.525 z m -28.1762,-0.7859 c 0.7276,-0.3324 1.829,-1.0452 2.4474,-1.584 1.4332,-1.2486 1.463,-2.0429 0.1733,-4.6208 -0.6919,-1.383 -1.3115,-2.1862 -2.2727,-2.946 -1.4818,-1.1713 -2.5581,-1.4316 -2.0583,-0.4978 0.977,1.8256 0.7193,5.9763 -0.5378,8.6627 -0.437,0.9339 -0.7946,1.7535 -0.7946,1.8215 0,0.2386 1.7332,-0.2374 3.0427,-0.8356 z m -4.8947,0.4094 c 0,-0.1338 -0.1937,-0.997 -0.4304,-1.9183 -0.7316,-2.8476 -0.1795,-7.017 1.1191,-8.4521 0.648,-0.716 0.057,-0.8355 -3.1094,-0.6286 -3.2348,0.2113 -3.3701,0.3001 -2.9282,1.9217 0.1478,0.5423 0.6314,2.3365 1.0746,3.9871 0.9511,3.5422 1.2254,4.0202 2.7351,4.7675 1.2633,0.6254 1.5392,0.6832 1.5392,0.3227 z m -90.5714,-1.6585 c -0.084,-0.2111 -0.1471,-0.1484 -0.1598,0.1598 -0.012,0.2789 0.051,0.4352 0.1389,0.3473 0.088,-0.088 0.097,-0.3161 0.021,-0.5071 z m 99.2188,-0.7938 c -0.084,-0.211 -0.1472,-0.1483 -0.1599,0.1599 -0.011,0.2789 0.051,0.4352 0.139,0.3472 0.088,-0.088 0.097,-0.3161 0.021,-0.5071 z m 87.0009,-1.0111 c 0.2541,-0.4112 -0.1235,-1.3205 -0.5485,-1.3205 -0.2207,0 -0.379,0.2579 -0.379,0.6173 0,0.8927 0.5518,1.311 0.9275,0.7032 z m -29.109,-0.2567 c 0.187,-0.3026 -0.3065,-1.3284 -0.6391,-1.3284 -0.3267,0 -0.5578,0.7255 -0.3793,1.1906 0.172,0.4481 0.7761,0.5298 1.0184,0.1378 z m -35.889,-4.1226 c -0.1228,-0.6335 -0.6472,-0.772 -0.8567,-0.2262 -0.2092,0.5452 0.3476,1.2954 0.7,0.9431 0.1362,-0.1363 0.2067,-0.4589 0.1567,-0.7169 z m -141.8239,-0.03 c -0.096,-0.8099 -0.6666,-1.1284 -0.9057,-0.5054 -0.2259,0.5888 0.066,1.2126 0.5666,1.2126 0.3028,0 0.399,-0.2008 0.3391,-0.7072 z m 28.7294,0.2222 c -0.015,-0.1698 -0.044,-0.5468 -0.066,-0.8379 -0.045,-0.6054 -0.7775,-0.718 -0.9944,-0.1529 -0.1921,0.5006 0.3787,1.5356 0.7742,1.4037 0.1721,-0.057 0.3009,-0.2432 0.2864,-0.4129 z m 84.6708,-0.2137 c 0.2248,-0.5858 -0.081,-1.4718 -0.4632,-1.3444 -0.5847,0.1947 -0.5384,1.7786 0.052,1.7786 0.1345,0 0.3196,-0.1954 0.4112,-0.4342 z m 92.5779,-4.1771 c 0.7543,-0.2104 1.6096,-0.4357 1.9007,-0.5008 0.426,-0.095 0.4002,-0.1237 -0.1323,-0.1461 -1.5086,-0.063 -4.7625,1.3882 -4.7625,2.1247 0,0.1485 0.3651,-0.037 0.8113,-0.4126 0.4463,-0.3755 1.4285,-0.8549 2.1828,-1.0652 z m -25.782,0.9975 c -0.5492,-0.6635 -3.4317,-1.9444 -4.3319,-1.9249 -0.6094,0.013 -0.4557,0.1072 0.6614,0.4044 0.8004,0.213 1.991,0.7306 2.6459,1.1502 1.4223,0.9115 1.4939,0.9374 1.0246,0.3703 z m -179.3322,-4.0602 c -0.8876,-0.7589 -2.8863,-1.6044 -3.7067,-1.568 -0.2288,0.01 0.1198,0.1842 0.7747,0.3869 0.6548,0.2027 1.7264,0.7209 2.3812,1.1516 1.5174,0.998 1.6947,1.0075 0.5508,0.029 z m 137.9617,0.2606 c 0.2752,-0.4453 2.7535,-1.6043 3.9273,-1.8366 l 1.0967,-0.2171 -0.9499,-0.029 c -0.5767,-0.018 -1.5802,0.286 -2.5537,0.7724 -1.5608,0.78 -2.5574,1.5799 -1.9684,1.5799 0.1548,0 0.3564,-0.1213 0.448,-0.2696 z m -23.9278,-0.6351 c -0.7212,-0.7677 -2.6624,-1.6379 -4.1211,-1.8474 -0.9414,-0.1353 -0.8975,-0.099 0.3969,0.3299 1.7819,0.5901 2.9698,1.1947 3.4251,1.7433 0.1891,0.2279 0.4691,0.4143 0.6221,0.4143 0.1531,0 0.01,-0.288 -0.323,-0.6401 z m -87.7302,-0.5262 c 0.4361,-0.3027 1.5672,-0.7525 2.5135,-0.9997 0.9463,-0.2471 1.4148,-0.4562 1.041,-0.4646 -1.2172,-0.027 -3.2686,0.7423 -4.2152,1.5814 -0.9739,0.8633 -0.6758,0.8105 0.6607,-0.1171 z m 17.7708,-0.7519 c -0.073,-0.1819 -0.1335,-0.033 -0.1335,0.3307 0,0.3638 0.06,0.5127 0.1335,0.3308 0.073,-0.182 0.073,-0.4796 0,-0.6615 z m 173.6553,-1.9844 c 0,-3.9724 -1.1691,-14.0242 -1.6893,-14.5443 -0.4523,-0.4523 -9.4225,9.0687 -9.4225,10.0012 0,0.1133 0.6846,0.4042 1.5213,0.6464 2.7062,0.7833 7.096,3.2272 8.5207,4.7436 0.3484,0.371 0.7319,0.6745 0.852,0.6745 0.1202,0 0.2182,-0.6846 0.2178,-1.5214 z m -49.3264,-2.4651 c 1.1739,-0.5715 3.1682,-1.3063 4.4317,-1.6329 1.2636,-0.3267 2.2975,-0.7213 2.2975,-0.8769 0,-0.8324 -9.5454,-11.0341 -9.9478,-10.6317 -0.3424,0.3425 -1.3965,5.2497 -1.8066,8.4107 -0.2291,1.7652 -0.4165,4.3888 -0.4165,5.8301 v 2.6204 l 1.6537,-1.3404 c 0.9095,-0.7372 2.6141,-1.8079 3.788,-2.3793 z m -16.003,-7.2583 c 0.2321,-3.6206 0.2309,-5.7076 0,-8.704 -0.4071,-5.174 -1.0585,-8.6262 -1.6276,-8.6262 -1.155,0 -11.0198,12.2568 -14.1078,17.5286 -1.1899,2.0315 -0.4125,1.4229 1.1437,-0.8953 3.4548,-5.1466 10.1547,-13.6462 12.1511,-15.4152 0.5632,-0.499 0.5681,-0.4969 0.9321,0.3969 1.065,2.6145 1.298,11.1929 0.5922,21.8006 l -0.1408,2.1167 0.3784,-1.7198 c 0.2081,-0.9459 0.5157,-3.8629 0.6836,-6.4823 z m -165.8503,6.3111 c 1.9881,-1.4775 5.7734,-3.313 8.1366,-3.9453 0.9459,-0.2531 1.8033,-0.5319 1.9054,-0.6196 0.5731,-0.4924 -9.4463,-11.4035 -10.4717,-11.4035 -0.4447,0 -0.8547,2.5336 -1.2214,7.5479 -0.2686,3.6726 -0.3521,9.65 -0.1349,9.65 0.072,0 0.876,-0.5533 1.786,-1.2295 z m 53.6438,-3.8637 c -9e-4,-2.6619 -0.1782,-5.2054 -0.5212,-7.4745 -0.7743,-5.1225 -0.8411,-5.424 -1.201,-5.424 -0.485,0 -4.8942,4.0853 -6.5892,6.1052 -1.5074,1.7963 -3.3291,4.6134 -3.3291,5.1481 0,0.1673 0.6846,0.456 1.5214,0.6415 3.239,0.7181 7.7708,2.9365 9.1802,4.4939 0.2711,0.2996 0.5935,0.5447 0.7165,0.5447 0.123,0 0.223,-1.8157 0.2224,-4.0349 z m 71.6664,-3.263 c -1.7999,-2.9698 -7.0714,-9.4457 -7.0896,-8.7094 0,0.1455 0.9487,1.4552 2.1163,2.9104 1.1676,1.4552 2.9187,3.8147 3.8913,5.2434 1.8368,2.6982 2.6262,3.1035 1.082,0.5556 z m -14.4006,-12.8766 c 0.1196,-0.8244 0.086,-1.2568 -0.098,-1.2568 -0.1618,0 -0.2808,0.5795 -0.2808,1.367 0,1.6366 0.1312,1.5984 0.3792,-0.1102 z m -94.2453,332.5806 c -0.4757,-0.1525 -1.2666,-0.7218 -1.7574,-1.2651 -1.4729,-1.6304 -1.7343,-4.2472 -0.6965,-6.973 0.4567,-1.1994 0.1091,-1.1255 -0.5217,0.1109 -1.161,2.2759 -0.9393,5.2946 0.5023,6.8378 0.4153,0.4446 0.7081,0.8556 0.6505,0.9132 -0.2443,0.2442 -2.2677,-0.323 -2.7811,-0.7796 -1.3518,-1.2024 -1.9023,-3.9532 -1.2566,-6.2787 0.3625,-1.3054 2.1177,-3.0663 3.8836,-3.8959 l 1.365,-0.6414 0.01,-2.9104 c 0.017,-5.5706 -1.6808,-33.9475 -2.8893,-48.2864 -0.4232,-5.0205 -0.8428,-10.4974 -0.9325,-12.1709 -0.1768,-3.2974 -0.5743,-7.8284 -1.5901,-18.1239 -1.5402,-15.612 -3.6599,-37.6208 -4.625,-48.0219 -0.2769,-2.9832 -0.7185,-7.6861 -0.9815,-10.451 -0.6763,-7.1094 -0.6713,-21.0229 0.01,-26.0615 0.7721,-5.7155 2.1493,-12.8973 4.1222,-21.4963 3.9511,-17.221 5.3371,-25.61 6.1282,-37.0909 0.3644,-5.2876 0.1775,-20.0214 -0.2882,-22.7263 -0.171,-0.9934 -0.2449,-1.8723 -0.1641,-1.953 0.081,-0.081 1.1928,0.1178 2.4712,0.4414 6.3779,1.6142 13.9237,1.2842 21.2668,-0.93 0.3749,-0.1131 0.4396,0.6116 0.5852,6.5583 0.1708,6.9796 0.8827,15.7204 1.7944,22.0312 0.7481,5.179 1.5702,9.2872 3.8123,19.05 5.5955,24.3652 7.9249,40.7384 7.4153,52.1229 -0.3293,7.3566 -1.4888,24.5328 -2.2595,33.4698 -2.6678,30.9388 -5.3045,79.0852 -5.9879,109.339 -0.165,7.3026 -0.1453,7.8714 0.2721,7.8714 0.7706,0 2.4269,0.9857 3.2701,1.9461 1.0727,1.2216 1.4753,2.5455 1.3405,4.408 -0.2138,2.9559 -2.376,4.9602 -5.633,5.2216 -3.2503,0.261 -5.7128,-0.8382 -6.7783,-3.0254 -0.8671,-1.7799 -0.8785,-4.7402 -0.025,-6.4336 0.585,-1.1604 0.6064,-1.4928 0.8444,-13.0969 0.1343,-6.5484 0.31,-13.2159 0.3903,-14.8167 0.08,-1.6007 0.3236,-6.5418 0.5406,-10.9802 0.217,-4.4384 0.513,-10.332 0.6578,-13.0969 0.1448,-2.7649 0.3851,-7.7655 0.5339,-11.1125 0.1489,-3.3469 0.5621,-11.2646 0.9183,-17.5947 2.0587,-36.5866 2.0963,-41.8839 0.3362,-47.3605 -0.6011,-1.87 -0.9284,-1.8493 -0.4583,0.029 0.1598,0.6388 0.3587,3.2702 0.4419,5.8474 0.1798,5.5703 -0.069,11.148 -1.6369,36.7215 -0.2097,3.4197 -0.6838,13.0042 -1.0537,21.2989 -0.3698,8.2947 -0.8461,18.6531 -1.0585,23.0188 -0.5448,11.2006 -0.9525,21.8925 -1.1554,30.3039 l -0.1744,7.2268 -3.175,-0.059 c -3.5374,-0.066 -6.8258,0.3138 -7.7055,0.8902 l -0.5793,0.3796 -0.1528,-2.7019 c -0.084,-1.486 -0.4569,-9.2503 -0.8285,-17.2539 -0.3717,-8.0037 -0.909,-19.0765 -1.1939,-24.6063 -0.285,-5.5298 -0.7577,-14.9357 -1.0505,-20.9021 -0.507,-10.3303 -0.7477,-14.5693 -1.7576,-30.9562 -0.6161,-9.9973 -0.6522,-26.6258 -0.063,-28.9057 0.2352,-0.9095 0.3178,-1.6537 0.1835,-1.6537 -0.3483,0 -1.1828,1.9927 -1.7281,4.1265 -0.8516,3.3321 -0.536,18.2307 0.8569,40.4558 0.9963,15.8964 1.1968,19.2512 1.5733,26.3261 0.2208,4.1473 0.7009,14.1485 1.067,22.225 0.3661,8.0764 0.7786,16.5893 0.9166,18.9177 0.138,2.3283 0.3211,6.4955 0.407,9.2604 0.1846,5.9486 0.3164,7.0991 0.7923,6.9165 0.9845,-0.3778 2.2551,2.5076 2.2449,5.0979 -0.014,3.5832 -2.3439,5.6221 -6.3441,5.5519 -0.8004,-0.014 -1.8445,-0.1503 -2.3203,-0.3029 z m 30.8953,-0.6775 c 0,-0.1183 0.355,-0.5552 0.789,-0.971 1.1505,-1.1022 1.6983,-2.7362 1.5145,-4.5171 -0.2209,-2.141 -1.2097,-3.6514 -3.2356,-4.943 -1.0107,-0.6444 -1.6185,-1.2006 -1.5387,-1.4083 0.1644,-0.4286 3.1541,-0.7747 4.5043,-0.5214 3.2424,0.6082 5.0986,3.0194 5.0986,6.6228 0,2.9793 -1.0705,4.7245 -3.4026,5.5473 -1.2125,0.4278 -3.7295,0.5565 -3.7295,0.1907 z m 107.9453,-0.8064 c 1.2432,-1.3068 1.7147,-2.8019 1.4687,-4.6565 -0.1939,-1.4612 -1.1173,-3.4908 -2.1429,-4.7096 -0.9603,-1.1413 -1.459,-2.2139 -1.2647,-2.7202 0.1401,-0.3651 0.4707,-0.4242 1.9163,-0.3425 3.8637,0.2183 7.0622,3.2437 7.6033,7.1917 0.2016,1.4712 -0.2458,2.8528 -1.3202,4.0765 -1.1376,1.2957 -2.7405,1.9442 -5.226,2.1146 l -2.0775,0.1424 z m 4.329,-2.3782 c 0.662,-1.1335 0.6291,-3.3908 -0.069,-4.7598 -0.578,-1.1329 -1.9499,-2.4238 -2.5759,-2.4238 -0.2439,0 -0.079,0.2677 0.4288,0.6947 1.8087,1.522 2.6005,4.6838 1.6352,6.5303 -0.6306,1.2064 -0.1266,1.1705 0.5812,-0.041 z m -165.0719,2.598 c -5.092,-0.4192 -6.4603,-1.0462 -8.0006,-3.6663 -0.6135,-1.0437 -0.7175,-1.5176 -0.7175,-3.271 0,-1.6905 -0.073,-2.0506 -0.417,-2.0506 -1.3716,0 -6.5913,-0.6421 -8.8434,-1.0879 -9.9355,-1.9668 -18.5309,-5.6976 -26.0614,-11.3119 -4.3964,-3.2777 -9.4944,-8.7656 -12.6911,-13.6616 -8.7423,-13.3896 -10.6973,-33.2146 -4.7483,-48.1503 4.2606,-10.697 13.6263,-20.8491 21.2482,-23.0326 4.7709,-1.3667 7.8544,1.5888 6.2913,6.0302 -0.7911,2.2478 -2.5031,4.6096 -6.664,9.1933 -5.5547,6.1191 -7.6392,9.3715 -9.3824,14.639 -1.3473,4.071 -1.8271,7.2885 -1.8217,12.2162 0.01,7.5274 1.7193,13.9993 5.3947,20.4062 5.2712,9.1884 15.6425,16.772 27.9021,20.4022 l 3.3628,0.9958 1.3368,1.7198 c 1.55,1.994 6.6373,7.1437 7.0573,7.1437 0.5646,0 0.2397,-0.4423 -2.485,-3.3841 -6.4951,-7.0124 -10.5353,-13.9189 -13.4651,-23.0175 -4.0019,-12.4283 -4.4874,-24.0393 -1.5125,-36.1723 1.8838,-7.6828 4.5854,-13.9293 10.8712,-25.1355 7.2283,-12.8865 8.4121,-15.0712 10.4801,-19.3407 4.2893,-8.856 8.1181,-18.9445 10.3829,-27.3582 l 1.0326,-3.8365 0.1555,1.4552 c 0.086,0.8004 0.2263,2.2887 0.313,3.3073 0.087,1.0187 0.5629,5.543 1.0582,10.0542 0.4954,4.5111 1.6177,15.7625 2.4942,25.0031 0.8764,9.2406 1.8237,19.1228 2.105,21.9604 0.2812,2.8377 0.5659,6.0506 0.6325,7.1398 l 0.1211,1.9804 -0.887,-2.4535 c -2.4206,-6.6954 -5.921,-11.0222 -10.3425,-12.7843 -2.0441,-0.8147 -6.6116,-0.8908 -8.7481,-0.1459 -2.7988,0.9759 -5.867,3.3836 -8.3189,6.5281 -1.6222,2.0805 -1.4179,2.0419 0.8661,-0.1636 1.2235,-1.1814 2.814,-2.5213 3.5345,-2.9775 5.8088,-3.678 12.316,-2.8298 17.0322,2.2202 4.9432,5.2932 7.1226,13.846 8.898,34.9199 0.5246,6.2262 1.8966,28.338 2.2875,36.8652 0.357,7.7867 0.3661,7.7475 -1.6788,7.2325 -2.0877,-0.5257 -7.409,-0.8906 -10.5187,-0.7214 -3.178,0.173 -6.7393,0.6403 -6.5236,0.8559 0.069,0.069 2.6107,0.1124 5.6482,0.096 5.3224,-0.028 10.3046,0.3166 10.7303,0.7423 0.1126,0.1126 -0.3171,0.7494 -0.9549,1.415 -0.8522,0.8894 -1.2478,1.5778 -1.4922,2.5966 -0.416,1.7339 -0.1869,4.1492 0.526,5.5466 0.2931,0.5745 0.5329,1.1089 0.5329,1.1874 0,0.2087 -13.21,0.1017 -16.0205,-0.1297 z m 31.0158,-1.2097 c 0.597,-1.3039 0.6649,-1.7427 0.5649,-3.6478 -0.095,-1.8035 -0.2546,-2.4259 -0.9567,-3.7223 -0.4638,-0.8561 -0.8069,-1.5929 -0.7625,-1.6373 0.2569,-0.2569 6.9197,-0.6487 8.5052,-0.5001 2.8598,0.268 2.7927,0.1485 1.8607,3.3168 -0.5717,1.9434 -0.4103,4.7755 0.3575,6.2733 0.314,0.6127 0.571,1.1783 0.571,1.2568 0,0.079 -2.4342,0.1429 -5.4093,0.1429 h -5.4094 z m 103.2734,1.3617 c 0,-0.066 0.2945,-0.5545 0.6545,-1.0849 0.3599,-0.5305 0.7322,-1.3787 0.8272,-1.8851 0.3033,-1.617 -0.038,-4.6238 -0.6778,-5.9705 -0.3282,-0.6906 -0.535,-1.4164 -0.4597,-1.6127 0.2891,-0.7534 9.0463,-0.8318 11.7375,-0.1051 l 1.1015,0.2975 -0.909,1.0619 c -1.9805,2.3137 -2.1958,5.7051 -0.519,8.176 0.3493,0.5147 0.5659,1.005 0.4813,1.0896 -0.1796,0.1796 -12.2365,0.2124 -12.2365,0.033 z m 12.9936,-11.1798 -0.5914,-0.479 0.2808,-32.2764 c 0.1545,-17.7521 0.2811,-42.0255 0.2812,-53.9408 l 4e-4,-21.6643 1.4248,-1.4363 c 0.7837,-0.7899 1.9445,-2.3849 2.5797,-3.5445 1.8138,-3.3113 1.7334,-3.2638 1.9633,-1.1596 0.2091,1.914 -0.1546,17.1841 -0.8129,34.1231 -0.7301,18.7878 -2.0067,56.4493 -2.3228,68.5271 l -0.3186,12.1708 -0.9465,0.079 c -0.6154,0.052 -1.1534,-0.088 -1.538,-0.3995 z m -12.6241,-0.9147 c -0.06,-0.097 -0.2298,-13.2535 -0.3775,-29.2365 -0.692,-74.9254 -0.798,-84.4177 -0.9523,-85.2839 -0.118,-0.663 0.1993,-0.2121 1.1173,1.5875 0.8953,1.7552 1.7635,2.9996 2.8777,4.1246 2.0424,2.0621 3.5062,2.6082 6.523,2.4336 l 2.084,-0.1207 -0.01,31.6401 c 0,30.1132 -0.2952,60.3595 -0.6757,70.4016 l -0.1754,4.6302 h -5.1535 c -2.8343,0 -5.2025,-0.079 -5.2625,-0.1765 z m -153.0837,-259.4282 c 0.191,-0.076 0.4192,-0.067 0.5071,0.021 0.088,0.088 -0.068,0.1505 -0.3472,0.139 -0.3082,-0.013 -0.3709,-0.075 -0.1599,-0.1599 z" id="path3" /></g></svg>