<?xml version='1.0' encoding='utf-8'?>
<svg xmlns="http://www.w3.org/2000/svg" width="408.12869mm" height="486.22122mm" viewBox="0 0 408.12869 486.22122" version="1.1" id="svg5" xml:space="preserve"><defs id="defs2" /><g id="layer1"><path style="fill:#000000" d="m 229.28499999999985 485.8337999999985 c -3.54,-0.393 -10.077,-1.996 -12.64,-3.099 -4.115,-1.77 -6.003,-5.443 -5.616,-10.926 0.311,-4.404 1.816,-7.28 6.027,-11.515 8.277,-8.323 17.295,-10.319 34.204,-7.57 3.761,0.611 5.004,0.991 8.234,2.517 7.222,3.411 12.726,4.844 21.62,5.63 4.709,0.416 14.335,0.241 19.402,-0.353 l 2.293,-0.269 -1.94,-0.05 c -5.849,-0.166 -17.784,-1.812 -23.971,-3.305 l -3.335,-0.804 4.224,-0.445 c 6.78,-0.713 7,-0.98 1.034,-1.25 -2.911,-0.131 -6.721,-0.543 -8.467,-0.914 -3.68,-0.782 -9.48,-2.617 -10.76,-3.404 l -0.882,-0.543 1.059,0.242 c 0.582,0.134 2.01,0.475 3.175,0.76 2.579,0.63 16.968,0.995 20.108,0.51 1.931,-0.298 1.711,-0.331 -2.497,-0.37 -15.309,-0.143 -29.152,-4.031 -41.354,-11.617 -7.286,-4.528 -14.522,-11.043 -16.307,-14.681 -2.128,-4.336 -3.965,-15.078 -3.957,-23.134 0,-5.821 0.704,-9.255 2.576,-12.674 0.748,-1.367 0.848,-1.697 0.329,-1.084 -1.263,1.49 -3.172,4.526 -4.286,6.815 l -1.06,2.18 0.239,-1.757 c 0.592,-4.355 2.991,-8.655 6.826,-12.238 5.506,-5.143 9.767,-6.578 24.389,-8.212 12.204,-1.365 18.486,-1.704 34.925,-1.885 l 16.757,-0.184 -3.704,-0.648 c -11.481,-2.011 -26.583,-3.053 -35.072,-2.421 -6.557,0.488 -16.287,1.613 -21.549,2.491 -16.34,2.726 -24.882,9.164 -27.89,21.02 -3.142,12.39 -2.004,26.842 2.84,36.061 3.132,5.96 9.105,11.195 20.017,17.545 1.306,0.759 2.377,1.5 2.381,1.646 0,0.145 -0.449,0.264 -1.007,0.264 -1.665,0 -7.465,1.603 -10.064,2.781 -2.92,1.324 -3.612,1.344 -8.149,0.24 -6.892,-1.677 -15.38,-5.038 -21.342,-8.451 -3.209,-1.837 -5.818,-3.686 -5.562,-3.942 0.07,-0.07 1.313,0.349 2.758,0.938 4.415,1.797 15.406,4.792 16.287,4.438 0.265,-0.107 0.179,-0.193 -0.21,-0.209 -1.823,-0.08 -16.808,-5.712 -17.542,-6.596 -0.51,-0.614 0.242,-2.511 2.135,-5.389 0.688,-1.046 1.469,-2.239 1.736,-2.651 0.444,-0.686 0.32,-0.979 -1.476,-3.482 -1.078,-1.503 -2.436,-3.739 -3.017,-4.97 -2.169,-4.589 -2.094,-3.568 -2.533,-34.532 l -0.404,-28.489 1.003,-1.194 c 0.552,-0.657 2.883,-3.395 5.181,-6.084 5.019,-5.873 7.007,-8.815 9.742,-14.415 2.379,-4.872 6.289,-14.64 5.861,-14.64 -0.06,0 -1.111,1.786 -2.331,3.969 -4.643,8.309 -10.716,16.629 -19.484,26.69 l -3.199,3.671 -0.735,-0.886 c -0.404,-0.488 -0.924,-1.187 -1.155,-1.555 -0.747,-1.188 -0.63,1.775 1.138,28.789 1.546,23.614 2.436,33.077 3.332,35.434 0.198,0.521 0.36,1.044 0.36,1.162 0,0.366 -4.533,-6.823 -6.004,-9.52 -2.223,-4.079 -1.623,-2.252 0.88,2.676 3.048,6.001 5.844,9.986 9.683,13.797 l 3.178,3.155 -1.94,2.035 c -3.991,4.184 -5.235,8.507 -5.967,20.735 -0.676,11.283 -0.848,13.166 -1.441,15.808 -1.142,5.088 -5.276,10.766 -9.184,12.615 -1.748,0.827 -4.475,1.569 -7.726,2.101 l -1.411,0.231 1.764,-1.205 c 0.97,-0.663 2.558,-1.949 3.528,-2.857 l 1.764,-1.652 -1.874,1.372 c -3.472,2.541 -7.392,4.312 -10.482,4.737 -4.224,0.58 -38.055,0.572 -41.423,0 -3.368,-0.582 -5.449,-1.513 -6.887,-3.084 l -1.147,-1.252 -2.255,0.354 c -4.651,0.729 -16.509,1.173 -31.711,1.185 -19.951,0.02 -26.598,-0.558 -28.505,-2.466 -0.811,-0.811 -0.859,-1.051 -0.679,-3.398 0.106,-1.389 0.524,-3.405 0.928,-4.48 1.438,-3.827 6.307,-8.693 12.354,-12.344 2.679,-1.619 2.873,-1.801 1.696,-1.596 -1.136,0.197 -4.282,1.175 -6.785,2.109 -1.226,0.457 0.85,-1.179 2.658,-2.095 3.69,-1.87 10.76,-2.952 19.918,-3.048 l 5.294,-0.06 -4.939,-0.392 -4.939,-0.393 3.704,-0.276 3.704,-0.277 1.524,-1.48 c 5.779,-5.613 8.185,-13.879 8.746,-30.055 0.744,-21.46 -3.93,-42.518 -13.856,-62.429 -1.697,-3.405 -2.072,-4.396 -1.467,-3.88 0.447,0.38 4.862,4.591 9.812,9.355 16.691,16.067 31.717,30.098 39.745,37.113 l 3.934,3.437 0.135,6.085 c 0.128,5.739 0.192,6.216 1.129,8.378 1.919,4.433 1.918,4.42 0.287,7.961 -1.854,4.028 -2.966,8.66 -4.12,17.168 -1.519,11.204 -0.953,9.723 -4.419,11.566 -1.648,0.876 -3.727,2.097 -4.619,2.714 -3.853,2.663 -7.18,7.609 -8.11,12.055 -0.443,2.116 -0.07,5.954 0.782,8.008 0.415,1.003 0.433,0.972 0.695,-1.15 0.591,-4.786 3.099,-9.245 7.902,-14.048 4.893,-4.892 6.636,-5.838 12.972,-7.037 6.799,-1.287 9.738,-1.591 15.956,-1.653 l 5.292,-0.05 -3.881,-0.306 c -2.134,-0.169 -5.408,-0.425 -7.275,-0.568 l -3.394,-0.261 2.929,-6.222 c 7.075,-15.025 7.646,-19.386 4.541,-34.647 -1.575,-7.742 -7.36,-28.769 -7.795,-28.334 -0.07,0.07 0.354,2.136 0.942,4.594 1.067,4.464 3.514,17.241 3.342,17.445 -0.117,0.139 -4.182,-2.347 -7.526,-4.603 -1.427,-0.963 -4.523,-3.354 -6.879,-5.315 -4.628,-3.85 -24.225,-23.226 -29.358,-29.026 -4.74,-5.355 -12.829,-14.317 -13.826,-15.315 -0.483,-0.485 1.331,1.896 4.033,5.291 2.702,3.396 6.015,7.603 7.363,9.349 1.348,1.746 3.947,5.001 5.774,7.232 l 3.323,4.057 -2.967,-2.807 c -15.163,-14.338 -25.691,-25.031 -37.676,-38.266 -6.42,-7.09 -7.882,-9.1 -10.718,-14.738 -3.358,-6.675 -5.248,-11.438 -6.982,-17.589 -0.814,-2.886 -1.295,-4.188 -1.166,-3.153 0.351,2.802 3.109,13.536 4.12,16.034 0.507,1.252 0.874,2.325 0.815,2.384 -0.174,0.173 -3.597,-6.159 -5.148,-9.523 -3.806,-8.257 -5.489,-18.744 -4.076,-25.41 1.026,-4.843 4.309,-10.089 9.133,-14.595 4.031,-3.764 6.207,-5.045 11.714,-6.899 6.683,-2.25 10.361,-2.869 17.172,-2.893 3.056,-0.01 5.556,-0.05 5.556,-0.07 0,-0.03 -1.23,-0.843 -2.734,-1.806 -3.445,-2.207 -7.491,-4.261 -9.843,-4.999 l -1.818,-0.571 2.095,-4.575 c 5.618,-12.269 9.374,-22.193 12.28,-32.445 2.168,-7.647 2.463,-9.3 0.947,-5.292 -8.149,21.54 -16.191,36.201 -24.864,45.332 l -2.848,2.999 2.828,-6.527 c 4.998,-11.538 8.579,-21.614 10.55,-29.686 2.307,-9.445 3.784,-28.335 3.928,-50.218 0.06,-8.525 0.419,-6.756 1.013,4.939 0.356,7.011 0.327,10.08 -0.172,18.521 l -0.156,2.646 0.68,-2.822 c 2.046,-8.49 3.078,-20.154 2.494,-28.194 -0.219,-3.023 -0.49,-5.734 -0.602,-6.026 -0.112,-0.291 -0.114,-0.529 0,-0.529 0.216,0 2,5.611 2.86,8.998 l 0.536,2.114 -0.196,-2.469 c -0.298,-3.751 -1.801,-10.053 -3.483,-14.609 -0.831,-2.249 -1.471,-4.136 -1.422,-4.194 0.05,-0.06 1.312,0.638 2.808,1.546 1.497,0.909 3.94,2.166 5.431,2.795 2.81,1.185 8.035,2.644 9.469,2.644 1.357,0 1.615,1.328 1.379,7.101 -0.253,6.194 -1.009,11.893 -2.16,16.291 -1.22,4.658 -1.318,5.179 -0.681,3.595 2.452,-6.096 4.435,-15.999 4.489,-22.426 l 0.04,-4.081 1.783,0.284 c 3.67,0.584 19.31,1.294 18.863,0.856 -0.08,-0.08 -1.973,-0.322 -4.204,-0.54 -8.293,-0.808 -18.035,-2.681 -24.342,-4.678 -5.796,-1.836 -10.403,-4.65 -16.923,-10.337 -7.385,-6.441 -13.735,-15.912 -16.79,-25.041 -1.612,-4.817 -1.59,-5.153 0.436,-6.7 l 1.648,-1.258 0.979,1.189 c 1.097,1.33 4.692,3.339 7.896,4.412 6.577,2.204 19.539,5.35 22.039,5.35 0.795,0 2.247,1.02 6.499,4.566 11.705,9.762 16.313,12.258 24.261,13.142 2.995,0.333 4.764,0.332 8.145,0 5.323,-0.529 10.846,-1.49 10.846,-1.886 0,-0.162 -2.925,-0.295 -6.501,-0.295 -12.522,0 -19.478,-1.738 -26.839,-6.704 -3.786,-2.555 -8.769,-6.627 -18.342,-14.987 -12.485,-10.903 -12.753,-11.118 -13.916,-11.118 -1.408,0 -5.705,0.917 -8.485,1.81 -2.615,0.84 -7.476,3.336 -10.001,5.134 l -1.71,1.219 -1.288,-0.855 c -4.887,-3.241 -8.036,-9.08 -8.426,-15.627 l -0.195,-3.27 3.313,-1.058 c 3.592,-1.148 3.449,-1.463 -0.242,-0.536 -1.26,0.317 -2.385,0.481 -2.5,0.366 -0.115,-0.115 0.09,-1.128 0.454,-2.251 l 0.663,-2.041 2.998,0.05 2.999,0.05 -2.646,-0.468 c -1.455,-0.258 -2.699,-0.479 -2.764,-0.491 -0.427,-0.08 3.223,-4.06 5.169,-5.636 2.002,-1.622 6.639,-4.191 6.937,-3.844 0.05,0.06 0.262,1.09 0.469,2.29 1.385,8.032 11.822,20.111 19.646,22.738 0.968,0.325 3.238,0.466 7.232,0.45 6.889,-0.03 9.534,-0.599 14.793,-3.188 2.603,-1.281 3.88,-2.19 5.863,-4.173 3.051,-3.051 4.295,-4.952 1.899,-2.901 -1.782,1.526 -4.093,2.318 -7.562,2.594 -2.978,0.237 -5.044,-0.263 -6.306,-1.525 -0.828,-0.828 -0.927,-1.185 -0.883,-3.195 0.04,-2.042 -0.05,-2.369 -0.967,-3.345 -1.289,-1.372 -3.464,-2.386 -5.14,-2.396 -1.723,-0.01 -1.948,0.465 -0.474,0.998 0.652,0.236 1.755,1.059 2.451,1.829 1.05,1.162 1.265,1.666 1.265,2.96 0,3.375 3.336,5.247 9.433,5.291 3.488,0.03 3.584,0.05 2.822,0.633 -1.154,0.887 -5.381,2.33 -8.022,2.738 -7.53,1.164 -17,-0.536 -18.248,-3.275 -0.874,-1.917 -1.246,-5.269 -1.076,-9.681 0.09,-2.465 0.05,-4.14 -0.109,-3.722 -0.265,0.718 -1.128,6.042 -1.576,9.734 -0.186,1.533 -0.277,1.671 -0.975,1.471 -3.419,-0.981 -8.238,-4.798 -10.493,-8.312 -1.197,-1.866 -1.202,-2.385 -0.02,-1.75 1.17,0.626 2.413,0.07 4.079,-1.84 1.549,-1.77 1.562,-1.776 2.462,-1.186 1.146,0.75 1.147,0.431 0,-1.066 -1.489,-1.953 -2.579,-1.478 -3.975,1.731 -0.896,2.056 -1.744,2.182 -3.419,0.507 -1.505,-1.504 -2.055,-3.581 -1.859,-7.01 0.255,-4.43 2.074,-7.079 5.526,-8.047 4.009,-1.125 7.015,-1.503 10.264,-1.29 8.016,0.525 18.58,3.825 25.332,7.913 1.413,0.856 3.949,2.851 5.635,4.433 2.221,2.084 2.74,2.458 1.884,1.359 -3.777,-4.852 -9.789,-9.007 -17.4,-12.027 -4.194,-1.665 -10.677,-3.254 -14.161,-3.472 -1.762,-0.111 -2.915,-0.315 -2.64,-0.469 1.474,-0.825 12.775,-3.226 18.884,-4.012 6.128,-0.789 17.149,-1.307 23.396,-1.101 l 5.468,0.18 -4.057,-0.679 c -2.231,-0.374 -4.701,-0.727 -5.489,-0.785 l -1.431,-0.106 3.423,-3.352 c 3.881,-3.799 6.689,-7.832 9.887,-14.199 2.147,-4.274 2.525,-5.413 0.82,-2.47 -2.721,4.699 -8.255,11.115 -11.852,13.742 -2.706,1.976 -5.632,3.706 -5.868,3.471 -0.111,-0.112 -0.01,-2.224 0.217,-4.695 0.23,-2.471 0.399,-5.762 0.376,-7.314 l -0.04,-2.823 -0.476,4.135 c -0.818,7.118 -2.004,9.777 -4.672,10.482 -3.723,0.984 -11.435,0.729 -15.907,-0.525 -1.287,-0.361 -2.628,-1.028 -3.268,-1.626 -1.025,-0.958 -1.072,-1.116 -0.847,-2.859 0.962,-7.475 11.022,-17.897 17.275,-17.897 2.181,0 3.958,0.472 4.863,1.291 0.651,0.589 0.625,0.63 -0.842,1.334 -1.348,0.647 -1.525,0.874 -1.624,2.084 -0.13,1.581 0.55,2.535 2.349,3.296 1.038,0.439 1.283,0.432 2.029,-0.06 1.709,-1.12 1.113,-3.908 -1.524,-7.136 -2.299,-2.813 -6.523,-3.925 -10.51,-2.766 -4.223,1.228 -8.142,3.598 -11.948,7.224 l -2.429,2.315 2.033,-3.175 c 9.735,-15.207 26.323,-26.993 44.453,-31.584 7.373,-1.867 11.16,-2.277 20.814,-2.256 9.241,0.02 11.175,0.234 17.41,1.919 l 2.947,0.797 -2.418,1.276 c -4.994,2.636 -9.552,6.287 -14.362,11.503 -3.101,3.364 -6.924,8.001 -8.289,10.055 l -0.821,1.234 0.956,-1.058 c 0.526,-0.582 2.247,-2.549 3.824,-4.372 3.206,-3.702 8.565,-8.668 12.584,-11.66 2.821,-2.1 8.366,-5.163 8.715,-4.814 0.115,0.115 0.04,0.208 -0.164,0.208 -1.565,0 -11.951,8.545 -17.384,14.3 l -1.587,1.682 2.921,-2.194 c 6.113,-4.591 12.652,-8.108 17.893,-9.621 2.439,-0.705 3.564,-0.811 8.29,-0.783 6.302,0.04 9.165,0.643 16.356,3.454 13.698,5.357 24.267,13.193 37.878,28.087 5.67,6.205 12.243,16.046 14.725,22.049 2.108,5.097 2.928,15.242 1.785,22.08 -1.85,11.065 -7.03,21.556 -16.794,34.012 -4.657,5.942 -8.011,11.074 -10.724,16.409 -2.266,4.456 -6.194,12.961 -6.175,13.373 0,0.112 1.001,-1.701 2.215,-4.03 5.835,-11.198 11.318,-19.388 17.712,-26.458 4.866,-5.379 6.231,-7.091 8.84,-11.086 3.963,-6.069 7.051,-13.838 8.491,-21.369 0.762,-3.985 0.853,-12.996 0.169,-16.757 -0.686,-3.773 -2.321,-8.577 -3.943,-11.585 l -1.395,-2.589 1.56,0.871 c 9.604,5.369 12.39,7.215 13.16,8.725 0.245,0.48 1.295,2.785 2.333,5.12 2.519,5.67 6.297,12.435 13.908,24.906 7.691,12.603 11.101,18.629 14.005,24.747 6.18,13.02 7.74,19.633 7.758,32.884 0.01,8.156 -0.299,11.246 -1.774,17.639 -0.268,1.164 -0.49,2.262 -0.493,2.44 -0.03,1.815 2.229,-7.158 2.985,-11.859 1.021,-6.345 1.259,-10.424 0.892,-15.263 -0.793,-10.455 -3.212,-18.067 -9.591,-30.175 -2.507,-4.759 -1.989,-4.491 1.022,0.529 11.858,19.765 18.143,37.327 19.105,53.381 0.957,15.971 -2.198,26.777 -11.395,39.03 -2.298,3.062 -9.079,10.249 -10.238,10.85 -0.702,0.364 -0.701,0.351 0.03,-0.467 2.29,-2.548 7.87,-12.126 9.944,-17.069 1.729,-4.12 1.62,-4.428 -0.262,-0.741 -4.764,9.335 -14.708,21.921 -20.257,25.639 -3.099,2.077 -9.308,5.015 -13.706,6.487 -15.27,5.108 -29.995,4.003 -40.528,-3.041 -8.239,-5.509 -14.85,-16.112 -18.333,-29.402 -1.117,-4.264 -1.338,-4.239 -0.518,0.06 0.799,4.181 2.947,11.651 4.093,14.23 1.544,3.475 0.113,1.376 -1.803,-2.646 -2.777,-5.83 -4.677,-12.566 -5.662,-20.076 -0.555,-4.236 -0.246,-15.597 0.544,-19.964 2.541,-14.046 8.935,-30.401 17.362,-44.406 3.992,-6.635 10.791,-16.432 16.557,-23.857 l 2.739,-3.527 -3.332,3.125 c -1.833,1.719 -4.023,3.941 -4.867,4.939 -0.845,0.997 -1.667,1.953 -1.828,2.124 -0.162,0.172 0.01,-0.888 0.389,-2.354 1.466,-5.721 2.146,-10.898 2.281,-17.359 l 0.133,-6.35 -0.517,5.644 c -0.376,4.103 -0.915,7.234 -1.974,11.465 -1.257,5.02 -2.79,10.06 -2.254,7.409 0.1,-0.485 0.25,-3.581 0.337,-6.879 0.09,-3.299 0.09,-5.521 0,-4.939 -0.09,0.582 -0.411,2.718 -0.715,4.746 -0.602,4.002 -3.07,14.414 -3.711,15.654 -0.218,0.421 -1.465,2.275 -2.771,4.118 -5.675,8.013 -12.067,19.238 -15.514,27.246 l -1.908,4.433 -4.283,2.502 c -6.588,3.846 -15.497,7.933 -23.609,10.831 -2.34,0.835 -4.118,1.527 -3.951,1.537 1.511,0.09 17.826,-5.328 24.92,-8.272 6.084,-2.526 5.979,-2.491 4.939,-1.627 -2.943,2.444 -11.994,7.208 -18.8,9.895 -12.074,4.768 -23.767,7.575 -37.116,8.911 -4.559,0.456 -4.57,0.46 -1.94,0.574 6.737,0.294 23.136,-1.02 30.339,-2.432 7.172,-1.405 14.64,-3.843 20.748,-6.771 1.419,-0.681 2.509,-1.055 2.424,-0.832 -0.09,0.224 -1.118,3.353 -2.293,6.954 -2.495,7.649 -3.363,11.823 -3.178,15.297 0.123,2.319 0.303,2.792 2.681,7.068 2.943,5.293 3.007,5.693 1.709,10.807 -1.202,4.733 -2.888,8.779 -5.365,12.867 -1.916,3.164 -4.983,7.551 -5.278,7.551 -0.06,0 0.695,-1.459 1.679,-3.241 1.645,-2.983 5.48,-11.619 6.08,-13.693 0.14,-0.485 -0.624,0.865 -1.698,2.999 -5.05,10.031 -12.429,19.509 -20.155,25.885 l -1.411,1.164 1.411,-0.801 c 3.364,-1.912 9.655,-6.177 12.641,-8.571 3.099,-2.486 9.17,-8.475 11.374,-11.222 l 1.048,-1.305 3.343,2.926 c 5.09,4.455 9.409,9.897 12.07,15.207 3.524,7.031 5.438,17.029 5.143,26.852 -0.08,2.782 -0.122,5.022 -0.08,4.978 0.192,-0.224 1.275,-7.524 1.503,-10.134 l 0.262,-2.998 0.421,2.293 c 0.775,4.22 1.496,11.413 1.714,17.109 0.189,4.937 -0.03,9.223 -0.75,14.993 -0.449,3.573 2.02,-7.698 2.704,-12.347 0.663,-4.503 0.802,-6.899 0.787,-13.582 -0.01,-4.743 -0.182,-8.769 -0.412,-9.691 l -0.395,-1.578 2.345,2.636 c 10.104,11.359 16.433,16.77 34.522,29.514 23.752,16.733 54.058,47.554 74.763,76.034 1.949,2.68 3.823,5.387 4.165,6.014 l 0.621,1.141 -0.99,-1.22 c -0.544,-0.671 -2.27,-2.832 -3.836,-4.801 -9.596,-12.075 -21.756,-23.482 -34.195,-32.078 -3.248,-2.245 -2.347,-1.355 2.646,2.616 18.727,14.889 41.459,41.835 50.117,59.406 5.328,10.814 8.189,22.771 8.626,36.049 l 0.163,4.939 -0.658,-2.999 c -1.088,-4.962 -2.378,-9.484 -3.874,-13.582 -0.779,-2.134 -1.426,-3.774 -1.437,-3.644 -0.01,0.13 0.523,2.125 1.188,4.434 2.727,9.475 3.94,17.881 3.649,25.285 -0.169,4.293 -0.569,5.774 -2.783,10.307 -1.76,3.601 -4.518,6.701 -7.148,8.031 -1.09,0.552 -1.982,1.039 -1.982,1.083 0,0.04 0.278,0.621 0.617,1.281 0.926,1.8 0.823,5.087 -0.212,6.761 -1.682,2.721 -6.688,4.64 -17.162,6.578 -6.383,1.182 -11.567,1.745 -19.756,2.146 -16.927,0.829 -21.039,1.347 -32.279,4.07 -9.119,2.209 -14.293,3.144 -20.284,3.669 -5.12,0.449 -29.511,0.415 -33.661,-0.05 z m -8.988,-5.949 c 0.03,-2.22 0.218,-2.85 1.713,-5.863 1.45,-2.92 2.182,-3.886 5.431,-7.164 2.065,-2.084 4.626,-4.365 5.69,-5.07 2.181,-1.445 2.026,-1.576 -0.742,-0.623 -6.689,2.301 -11.642,6.365 -13.402,10.997 -0.729,1.918 -0.884,5.408 -0.327,7.351 0.292,1.02 1.275,2.87 1.519,2.862 0.04,0 0.1,-1.122 0.118,-2.49 z m 23.45,-1.946 c 1.716,-3.519 6.21,-8.426 10.561,-11.533 l 0.876,-0.626 -1.234,0.224 c -1.781,0.321 -4.484,1.5 -6.599,2.878 -4.645,3.025 -7.105,8.429 -5.678,12.473 l 0.423,1.199 0.302,-1.235 c 0.166,-0.679 0.773,-2.2 1.349,-3.38 z m -115.884,-1.996 c 2.464,-4.935 8.205,-11.576 13.198,-15.267 1.261,-0.932 2.055,-1.609 1.764,-1.503 -8.896,3.215 -13.361,6.549 -15.96,11.916 -0.938,1.935 -1.134,2.801 -1.26,5.546 -0.169,3.681 0.191,5.364 0.682,3.189 0.163,-0.726 0.873,-2.472 1.576,-3.881 z m 23.195,-2.827 c 1.885,-3.007 5.864,-8.037 7.172,-9.066 1.484,-1.168 0.52,-0.832 -2.156,0.75 -3.091,1.829 -6.846,5.54 -7.968,7.876 -0.894,1.863 -1.135,4.698 -0.569,6.703 0.289,1.025 0.324,0.984 1.109,-1.324 0.445,-1.31 1.531,-3.533 2.412,-4.939 z m -83.904,1.713 c 1.344,-3.306 6.734,-10.133 9.957,-12.61 0.819,-0.629 1.425,-1.209 1.345,-1.288 -0.08,-0.08 -1.305,0.417 -2.724,1.104 -6.576,3.179 -10.582,8.566 -9.945,13.372 0.124,0.936 0.307,1.622 0.406,1.523 0.1,-0.1 0.532,-1.045 0.961,-2.101 z m 273.275,-9.935 c 3.37,-0.628 10.021,-2.476 10.856,-3.015 0.429,-0.277 0.306,-0.32 -0.521,-0.184 -9.37,1.543 -16.069,0.982 -24.848,-2.08 -6.115,-2.133 -14.827,-6.557 -17.198,-8.734 -0.436,-0.401 -0.793,-0.563 -0.793,-0.359 0,0.63 9.241,9.376 11.467,10.853 2.501,1.658 5.439,2.895 8.417,3.543 2.983,0.648 9.079,0.637 12.62,-0.02 z m -252.197,-12.03 c -0.242,-0.1 -0.639,-0.1 -0.882,0 -0.242,0.1 -0.04,0.178 0.441,0.178 0.485,0 0.684,-0.08 0.441,-0.178 z m 198.078,-2.449 c -0.118,-0.118 -0.422,-0.13 -0.676,-0.03 -0.282,0.112 -0.198,0.196 0.213,0.213 0.372,0.01 0.58,-0.07 0.463,-0.185 z m -75.142,-5.998 c -0.117,-0.117 -0.421,-0.129 -0.676,-0.03 -0.282,0.112 -0.198,0.196 0.213,0.213 0.372,0.01 0.58,-0.07 0.463,-0.186 z m 108.257,-70.639 c -0.342,-0.553 -6.014,-3.87 -10.012,-5.855 -6.512,-3.234 -12.943,-5.646 -20.77,-7.791 -6.089,-1.669 -6.564,-1.507 -1.003,0.34 5.135,1.706 11.645,4.48 16.933,7.216 1.941,1.004 3.29,1.751 2.999,1.66 -0.291,-0.09 -2.203,-0.721 -4.248,-1.401 -4.59,-1.527 -9.462,-2.535 -14.901,-3.083 -6.395,-0.645 -16.899,0.211 -23.89,1.946 -1.802,0.448 -1.512,0.469 4.057,0.297 10.341,-0.319 26.381,1.357 41.127,4.298 2.441,0.486 5.616,1.271 7.056,1.743 1.439,0.471 2.666,0.873 2.726,0.892 0.06,0.02 0.03,-0.1 -0.07,-0.262 z m -187.943,-22.635 c -5.163,-17.342 -11.989,-38.159 -13.069,-39.862 -0.277,-0.437 -0.303,-0.424 -0.148,0.08 0.745,2.41 3.378,15.335 5.334,26.194 0.391,2.172 -0.516,0.2 -2.755,-5.986 -4.123,-11.389 -6.237,-18.288 -7.516,-24.518 -0.662,-3.223 -0.886,-12.486 -0.414,-17.109 0.334,-3.27 -0.08,-2.225 -1.854,4.649 -1.72,6.676 -2.44,12.066 -2.504,18.74 l -0.05,5.186 -0.33,-4.057 c -0.622,-7.638 1.066,-20.508 3.764,-28.712 1.533,-4.66 4.38,-11.248 6.534,-15.118 0.945,-1.7 1.661,-3.09 1.591,-3.09 -0.264,0 -6.133,8.426 -8.355,11.995 -2.63,4.223 -4.389,7.608 -6.324,12.17 -1.801,4.248 -1.72,3.332 0.178,-2.005 4.631,-13.02 9.959,-22.015 20.44,-34.504 l 3.112,-3.707 -3.509,3.598 c -13.478,13.821 -21.69,28.904 -23.559,43.273 -0.828,6.362 -0.221,10.232 2.515,16.033 2.855,6.056 8.858,14.277 16.361,22.41 2.605,2.824 3.164,3.621 2.999,4.279 -0.24,0.955 0.508,2.512 4.158,8.66 1.439,2.423 3.311,5.632 4.16,7.132 0.849,1.5 1.581,2.689 1.626,2.644 0.05,-0.05 -1.027,-3.813 -2.385,-8.371 z m 108.11,-19.401 c 3.22,-4.195 4.414,-6.095 6.209,-9.878 2.784,-5.871 4.307,-13.341 4.216,-20.683 l -0.05,-4.188 -0.262,3.881 c -0.144,2.134 -0.522,5.263 -0.839,6.953 -1.426,7.602 -6.344,18.555 -11.768,26.208 -3.098,4.371 -3.07,4.322 -1.532,2.646 0.801,-0.874 2.614,-3.096 4.028,-4.939 z m -124.453,-88.107 c 4.329,-6.546 12.78,-15.666 18.527,-19.995 5.685,-4.283 14.847,-9.576 20.531,-11.861 1.114,-0.447 1.963,-0.875 1.887,-0.951 -0.08,-0.08 -1.859,0.53 -3.964,1.346 -17.421,6.751 -25.687,13.303 -35.129,27.845 -1.449,2.232 -2.823,4.415 -3.053,4.851 -0.76,1.441 -0.163,0.827 1.201,-1.235 z m 18.022,-31.803 c 2.662,-1.624 12.567,-5.562 22.893,-9.103 14.88,-5.104 24.425,-9.913 32.365,-16.307 3.371,-2.715 4.563,-4.092 1.782,-2.058 -5.24,3.83 -13.855,7.982 -26.21,12.631 -11.521,4.335 -21.52,8.925 -28.751,13.199 -2.134,1.261 -3.722,2.296 -3.528,2.3 0.194,0 0.846,-0.295 1.449,-0.662 z m 75.521,-17.387 c -0.112,-0.281 -0.196,-0.198 -0.213,0.213 -0.01,0.372 0.07,0.58 0.185,0.463 0.118,-0.117 0.13,-0.421 0.03,-0.676 z m -37.459,-3.616 c 10.736,-2.011 16.098,-4.401 19.678,-8.77 l 1.314,-1.603 -2.382,1.153 c -3.864,1.871 -13.046,4.752 -20.794,6.525 -5.188,1.186 -9.54,1.928 -16.866,2.875 l -4.939,0.638 10.407,-0.112 c 7.882,-0.08 11.178,-0.256 13.582,-0.706 z m -1.812,-4.813 c 7.267,-0.811 9.969,-1.327 14.856,-2.836 4.567,-1.41 6.969,-2.657 9.358,-4.861 l 1.94,-1.79 -1.588,0.857 c -5.597,3.023 -21.047,7.147 -32.984,8.804 -5.8,0.805 -6.006,0.887 -1.764,0.7 2.134,-0.09 6.716,-0.487 10.182,-0.874 z m -20.097,-40.982 c -0.794,-4.658 -2.599,-8.55 -5.249,-11.315 -2.136,-2.229 -3.673,-2.888 -5.416,-2.324 -1.41,0.456 -4.644,2.013 -4.644,2.236 0,0.08 0.834,-0.08 1.852,-0.355 1.019,-0.271 2.329,-0.494 2.911,-0.495 3.072,0 7.901,5.465 9.726,11.024 0.853,2.599 1.123,3.003 0.82,1.229 z m -26.936,-23.334 c -2.024,-5.096 -4.694,-9.643 -7.789,-13.267 -0.922,-1.079 -0.778,-0.803 1.984,3.795 1.207,2.009 3.201,5.617 4.432,8.016 1.23,2.399 2.284,4.315 2.341,4.258 0.06,-0.06 -0.378,-1.318 -0.968,-2.802 z m 25.348,-2.066 c -4.501,-8.97 -10.726,-14.678 -19.867,-18.215 -5.103,-1.975 -5.781,-2.069 -2.144,-0.299 9.164,4.46 15.89,10.126 20.722,17.456 1.183,1.794 2.206,3.263 2.273,3.263 0.07,0 -0.376,-0.992 -0.984,-2.205 z m 49.074,-21.63 c 4.182,-0.58 8.271,-1.62 10.142,-2.58 l 1.261,-0.647 1.942,1.36 c 1.067,0.748 2.097,1.36 2.288,1.36 0.191,0 -0.282,-0.456 -1.051,-1.013 -1.901,-1.377 -3.58,-3.574 -4.424,-5.788 -0.558,-1.465 -0.765,-3.249 -1.013,-8.721 -0.171,-3.784 -0.472,-7.832 -0.669,-8.996 -0.462,-2.726 -0.405,-3.176 0.177,-1.411 0.719,2.183 0.6,0.436 -0.178,-2.612 -2.458,-9.626 -8.482,-16.113 -16.942,-18.243 -4.604,-1.159 -11.237,-0.179 -16.404,2.423 -2.194,1.105 -6.174,3.682 -6.174,3.998 0,0.1 0.725,-0.318 1.61,-0.927 6.369,-4.382 15.723,-5.779 22.379,-3.341 5.802,2.124 10.179,6.289 13.337,12.689 1.716,3.479 1.836,4.006 0.535,2.354 -1.587,-2.014 -4.357,-2.722 -6.44,-1.645 -1.988,1.028 -1.657,4.2 0.682,6.539 1.77,1.769 3.711,2.344 5.455,1.615 l 1.248,-0.521 v 5.157 c 0,6.252 -0.466,9.285 -1.642,10.682 -2.827,3.36 -16.077,4.627 -24.368,2.331 -11.128,-3.083 -14.048,-8.408 -9.761,-17.797 1.606,-3.517 3.751,-6.427 7.063,-9.581 4.491,-4.277 8.819,-6.134 14.244,-6.113 1.649,0 3.475,0.195 4.057,0.419 2.024,0.778 -0.128,-0.634 -3.188,-2.091 -3.658,-1.742 -5.579,-2.17 -9.689,-2.154 -7.48,0.03 -15.026,3.383 -20.473,9.105 -3.594,3.775 -4.653,5.681 -4.911,8.842 -0.212,2.593 -0.19,2.688 1.207,5.253 3.399,6.237 9.269,11.43 16.928,14.977 4.195,1.942 6.751,2.5 12.365,2.699 4.083,0.144 5.542,0.05 8.419,-0.545 3.58,-0.74 8.068,-2.606 9.349,-3.887 l 0.725,-0.724 0.758,1.064 c 0.417,0.586 0.701,1.113 0.631,1.171 -0.07,0.06 -1.755,0.768 -3.745,1.577 -4.125,1.678 -10.54,3.388 -14.082,3.756 -1.325,0.137 -2.646,0.399 -2.937,0.581 -0.709,0.443 6.48,0.05 11.289,-0.615 z m 35.166,-4.101 c -0.113,-0.281 -0.197,-0.198 -0.213,0.213 -0.02,0.372 0.07,0.581 0.185,0.463 0.117,-0.117 0.13,-0.421 0.03,-0.676 z m -177.784,-4.38 c -0.117,-0.117 -0.422,-0.13 -0.676,-0.03 -0.282,0.113 -0.198,0.196 0.213,0.213 0.372,0.02 0.58,-0.07 0.463,-0.185 z m 50.471,-12.067 c -0.06,-0.325 -0.565,-0.807 -1.117,-1.072 -0.856,-0.41 -1.079,-0.407 -1.508,0.02 -0.629,0.629 -0.326,1.488 0.689,1.952 0.968,0.442 2.095,-0.08 1.936,-0.903 z m -5.422,-2.738 c 0.812,-0.812 0.686,-1.389 -0.523,-2.407 -5.737,-4.827 -20.041,-8.718 -26.833,-7.3 -3.872,0.809 -4.07,1.926 -0.646,3.638 3.25,1.626 15.963,4.94 23.442,6.111 3.798,0.595 3.924,0.594 4.56,-0.04 z m 56.049,-2.571 -0.284,-1.084 -2.646,1.31 -2.646,1.31 2.364,0.177 c 1.301,0.1 2.571,0.386 2.822,0.641 0.377,0.381 0.477,0.31 0.566,-0.404 0.06,-0.476 -0.02,-1.354 -0.176,-1.95 z m -7.336,-6.79 c 0.779,-3.04 2.227,-7.245 3.064,-8.904 1.271,-2.517 0.388,-1.692 -1.427,1.335 -2.993,4.991 -3.725,6.995 -3.742,10.252 0,1.552 0.221,3.616 0.511,4.586 l 0.526,1.764 0.244,-3.389 c 0.135,-1.864 0.506,-4.404 0.824,-5.644 z m -22.317,-8.31 c -0.243,-0.1 -0.64,-0.1 -0.882,0 -0.243,0.1 -0.04,0.178 0.441,0.178 0.485,0 0.683,-0.08 0.441,-0.178 z m 82.957,-5.852 c -3.793,-6.642 -11.155,-12.255 -18.663,-14.231 -3.068,-0.807 -9.628,-0.882 -12.7,-0.146 l -2.117,0.507 3.88,0.227 c 11.216,0.655 21.961,5.327 27.946,12.151 1.688,1.924 2.127,2.321 1.654,1.492 z m -30.583,-16.783 c 2.585,-0.901 1.236,-0.991 -1.604,-0.107 -2.288,0.712 -5.938,2.653 -7.643,4.065 -0.674,0.558 0.441,0.128 3.073,-1.186 2.273,-1.133 5.051,-2.381 6.174,-2.772 z m 18.622,2.393 c -3.325,-1.595 -5.859,-2.107 -10.216,-2.064 l -3.895,0.04 5.005,0.685 c 2.752,0.377 6.245,1.058 7.761,1.514 3.624,1.089 3.902,1.053 1.345,-0.173 z m -85.684,-3.176 c -0.415,-4.979 -1.804,-7.807 -4.514,-9.189 -4.248,-2.167 -12.227,0.336 -17.757,5.571 -2.169,2.053 -2.686,2.938 -0.72,1.233 4.218,-3.659 7.932,-5.505 12.423,-6.174 5.718,-0.852 9.049,2.016 10.061,8.663 0.229,1.503 0.49,2.734 0.58,2.734 0.09,0 0.06,-1.277 -0.07,-2.838 z m -7.343,-15.29 c 0.524,-0.269 2.188,-0.762 3.698,-1.096 3.787,-0.838 7.28,-0.632 9.716,0.573 l 1.866,0.924 -0.784,-0.835 c -2.809,-2.99 -8.845,-2.975 -14.426,0.03 -1.662,0.896 -1.724,1.247 -0.07,0.399 z m 80.151,457.489 c 0,-0.11 0.379,-0.705 0.842,-1.323 2.731,-3.64 3.629,-7.114 4.078,-15.773 0.183,-3.531 0.412,-6.499 0.509,-6.595 0.1,-0.1 1.336,-0.341 2.753,-0.544 2.565,-0.365 2.59,-0.361 5.047,0.879 3.924,1.979 8.839,3.974 13.298,5.397 l 4.125,1.316 -1.022,1.278 c -2.955,3.693 -4.053,9.036 -2.963,14.418 l 0.232,1.147 h -13.449 c -7.398,0 -13.45,-0.09 -13.45,-0.2 z m 28.907,-20.623 c -3.959,-1.178 -8.188,-2.819 -10.503,-4.075 -0.906,-0.492 -1.357,-0.807 -1.003,-0.699 5.722,1.735 11.442,2.855 17.635,3.452 l 0.993,0.1 -1.498,1.147 c -0.824,0.63 -1.668,1.132 -1.875,1.115 -0.207,-0.02 -1.895,-0.484 -3.749,-1.036 z m 153.345,-14.345 c 0.544,-3.838 0.609,-14.48 0.121,-19.689 -0.201,-2.134 -0.399,-4.576 -0.44,-5.426 l -0.08,-1.545 2.429,-1.453 c 10.178,-6.09 17.666,-19.621 19.799,-35.78 1.07,-8.108 0.54,-19.135 -1.291,-26.844 -2.801,-11.792 -9.029,-23.224 -17.56,-32.228 -1.609,-1.698 -2.813,-3.087 -2.676,-3.087 0.651,0 6.546,3.498 9.954,5.906 4.171,2.948 10.955,9.345 14.313,13.497 4.475,5.533 9.662,14.406 11.137,19.05 0.929,2.924 1.682,7.012 2.162,11.723 1.046,10.283 -2.055,26.503 -6.876,35.961 -0.675,1.326 -1.16,2.411 -1.076,2.411 0.263,0 3.581,-5.684 5.146,-8.815 2.294,-4.59 3.806,-8.799 4.46,-12.416 0.685,-3.787 0.776,-12.86 0.165,-16.496 -0.209,-1.25 -0.325,-2.328 -0.257,-2.397 0.07,-0.07 0.464,1.272 0.88,2.978 2.409,9.896 2.427,20.968 0.05,30.972 -3.21,13.516 -11.755,26.64 -24.179,37.135 -5.02,4.241 -12.214,8.555 -15.721,9.427 l -0.905,0.225 z m -334.69,-278.111 c 6.39,-1.532 14.398,-5.663 19.088,-9.846 0.842,-0.751 0.362,-0.528 -1.514,0.702 -8.611,5.65 -19.288,8.85 -26.205,7.853 -6.552,-0.943 -12.631,-6.039 -16.544,-13.866 -4.352,-8.707 -6.552,-21.305 -6.068,-34.749 0.638,-17.731 5.982,-30.033 19.415,-44.697 6.693,-7.305 13.969,-13.996 23.508,-21.616 10.491,-8.382 10.763,-8.462 3.578,-1.047 -8.641,8.916 -12.363,13.605 -16.62,20.935 -1.406,2.422 -5.656,11.41 -5.655,11.961 0,0.135 1.114,-1.711 2.475,-4.101 4.001,-7.026 7.82,-12.459 13.174,-18.741 4.102,-4.813 15.129,-15.827 22.098,-22.071 3.007,-2.695 7.531,-6.841 10.054,-9.215 11.358,-10.686 17.468,-14.891 27.11,-18.656 l 4.18,-1.632 4.938,0.906 c 2.716,0.498 5.359,0.91 5.874,0.915 0.719,0 0.322,0.317 -1.709,1.336 -14.214,7.131 -25.075,17.143 -35.903,33.095 -0.374,0.551 -0.414,0.19 -0.238,-2.161 0.341,-4.545 1.145,-7.507 3.159,-11.642 2.212,-4.54 6.195,-9.982 10.446,-14.271 3.148,-3.175 2.708,-3.068 -2.228,0.542 -5.515,4.034 -8.946,7.971 -11.657,13.377 -1.91,3.809 -2.905,6.904 -4.314,13.414 -1.757,8.12 -2.495,10.702 -4.179,14.632 -2.781,6.486 -5.608,10.79 -12.048,18.344 -4.303,5.047 -6.13,7.693 -7.442,10.779 l -0.923,2.172 -3.937,0.207 c -6.172,0.325 -11.364,1.961 -17.726,5.584 -4.412,2.513 -4.458,2.743 -0.145,0.724 6.177,-2.892 12.48,-4.633 18.822,-5.198 2.604,-0.232 2.761,-0.207 2.584,0.415 -0.103,0.365 -0.291,1.218 -0.417,1.898 -0.375,2.021 -0.555,2.469 -0.994,2.474 -1.037,0.01 -6.951,2.985 -10.054,5.05 -3.674,2.446 -8.496,6.783 -11.883,10.689 l -2.103,2.424 3.343,-3.151 c 3.586,-3.382 8.238,-6.971 12.08,-9.321 2.102,-1.285 8.496,-4.638 8.846,-4.638 0.07,0 0.225,1.389 0.34,3.087 0.325,4.798 2.088,9.366 5.294,13.716 0.877,1.19 2.14,2.579 2.807,3.088 1.066,0.813 1.311,1.322 2.021,4.188 1.837,7.417 4.538,13.387 8.659,19.137 1.251,1.746 2.276,3.306 2.278,3.467 0,0.831 -4.843,7.203 -7.925,10.408 -8.362,8.695 -17.452,13.327 -26.82,13.668 l -3.881,0.141 z m 42.491,-106.968 c 0.319,-4.139 1.093,-6.742 2.94,-9.893 0.887,-1.513 1.675,-2.687 1.753,-2.61 0.08,0.08 -0.04,0.969 -0.254,1.982 -0.22,1.026 -0.279,2.414 -0.134,3.138 0.26,1.293 0.263,1.289 0.724,-0.995 0.943,-4.667 1.139,-4.696 1.171,-0.171 0.02,3.413 -0.09,4.458 -0.587,5.365 -0.585,1.068 -5.243,6.095 -5.647,6.095 -0.104,0 -0.09,-1.31 0.03,-2.911 z" id="path125" /></g></svg>