<?xml version='1.0' encoding='utf-8'?>
<svg xmlns="http://www.w3.org/2000/svg" width="369.50833mm" height="385.78552mm" viewBox="0 0 369.50833 385.78552" version="1.1" id="svg5" xml:space="preserve"><defs id="defs2" /><g id="layer1"><path style="fill:#000000" d="m 85.3119999999999 383.39750000000095 c -0.427,-3.475 -0.316,-15.171 0.186,-19.668 0.239,-2.134 0.84,-6.182 1.336,-8.995 0.659,-3.736 0.864,-5.938 0.76,-8.166 l -0.142,-3.051 3.94,10.459 c 4.87,12.925 5.516,14.563 5.677,14.402 0.07,-0.07 -1.871,-5.828 -4.314,-12.795 -11.962,-34.106 -13.552,-39.939 -13.552,-49.709 0,-16.524 6.418,-28.683 29.411,-55.719 5.733,-6.741 7.464,-9.124 10.646,-14.66 6.272,-10.911 12.12,-24.653 15.654,-36.785 4.018,-13.79 6.301,-30.861 4.846,-36.223 -0.519,-1.911 -0.518,-1.918 0.147,-1.058 1.341,1.731 4.948,9.399 5.634,11.977 l 0.704,2.646 -0.2,-2.175 c -0.65,-7.093 -5.264,-15.783 -11.906,-22.425 -2.867,-2.867 -7.636,-6.69 -10.19,-8.167 l -1.641,-0.949 -3.122,1.292 c -5.098,2.111 -6.349,2.407 -10.177,2.406 -3.453,0 -3.701,-0.06 -11.642,-2.698 -13.214,-4.393 -12.717,-4.314 -26.988,-4.324 -12.9,0 -14.14,-0.125 -19.521,-1.825 -8.528,-2.694 -17.515,-8.915 -19.64,-13.596 -0.378,-0.833 -0.693,-2.229 -0.701,-3.102 -0.01,-1.587 -0.01,-1.588 -1.988,-2.442 -4.762,-2.063 -7.972,-4.875 -11.64,-10.198 -2.914,-4.229 -4.354,-5.78 -6.835,-7.363 -3.845,-2.453 -4.957,-3.931 -6.316,-8.396 -0.414,-1.358 -1.424,-4.136 -2.245,-6.173 -1.26,-3.127 -1.493,-4.089 -1.493,-6.174 0,-3.084 0.975,-5.243 3.511,-7.777 3.4,-3.398 6.712,-4.82 15.104,-6.483 2.956,-0.586 6.406,-1.4 7.667,-1.808 3.806,-1.234 9.19,-4.091 11.995,-6.365 1.455,-1.18 3.042,-2.35 3.527,-2.601 0.837,-0.432 7.747,-1.784 17.152,-3.356 14.097,-2.357 23.904,-5.189 32.06,-9.259 10.343,-5.161 16.238,-11.082 20.645,-20.735 2.427,-5.316 4.556,-7.703 8.284,-9.283 2.118,-0.898 20.416,-6.438 26.458,-8.01 5.221,-1.359 12.346,-2.661 19.579,-3.58 5.058,-0.642 31.515,-0.652 36.689,-0.01 24.66,3.043 38.043,9.015 46.93,20.941 2.172,2.915 5.384,8.91 6.825,12.738 l 0.895,2.38 -0.778,0.509 c -1.208,0.79 -3.244,1.572 -5.161,1.984 -2.424,0.519 -5.344,-0.346 -8.804,-2.611 -4.022,-2.633 -7.445,-4.155 -9.818,-4.364 -1.822,-0.161 -2.291,-0.05 -4.327,1.009 -4.09,2.128 -5.705,5.392 -7.04,14.229 -1.294,8.569 -4.31,15.65 -11.122,26.111 -3.053,4.689 -7.078,10.263 -15.533,21.514 -11.548,15.365 -17.057,24.255 -21.137,34.114 -2.777,6.71 -4.825,15.581 -5.316,23.036 -0.666,10.104 2.7,22.722 7.683,28.8 4.276,5.216 13.562,9.778 24.763,12.167 3.483,0.743 5.514,0.935 11.465,1.08 6.603,0.162 7.692,0.1 12.524,-0.718 8.64,-1.461 15.079,-3.599 23.182,-7.697 8.694,-4.398 15.277,-9.262 22.048,-16.292 4.356,-4.523 6.555,-7.402 12.184,-15.954 5.571,-8.464 7.367,-10.289 14.06,-14.288 7.836,-4.681 9.67,-7.222 9.656,-13.38 -0.01,-4.147 -0.585,-5.299 -0.866,-1.735 -0.369,4.673 -2.055,6.553 -10.878,12.124 -7.082,4.471 -8.899,6.456 -12.938,14.129 -4.864,9.243 -9.295,14.602 -16.788,20.305 -10.417,7.93 -23.219,12.924 -38.073,14.851 -4.988,0.648 -17.027,0.544 -21.343,-0.184 -8.013,-1.352 -14.499,-3.819 -18.588,-7.071 -4.265,-3.392 -7.426,-9.826 -9.157,-18.636 -0.624,-3.181 -0.774,-5.135 -0.752,-9.794 0.05,-10.272 2.079,-18.326 7.2,-28.575 4.128,-8.263 9.421,-15.955 20.753,-30.163 8.4,-10.531 13.056,-17.484 16.768,-25.037 3.111,-6.331 4.599,-10.59 5.457,-15.623 0.403,-2.358 1.031,-4.985 1.397,-5.838 1.34,-3.127 3.925,-5.184 6.515,-5.184 0.696,0 2.895,0.546 4.888,1.212 6.173,2.066 11.15,2.012 17.522,-0.188 5.26,-1.815 8.011,-1.2 11.505,2.573 2.232,2.411 3.226,4.253 6.36,11.778 4.219,10.133 9.025,19.079 16.312,30.363 9.228,14.291 12.442,20.872 14.906,30.519 1.73,6.776 2.301,16.64 1.184,20.428 -0.698,2.365 -2.761,4.482 -5.271,5.41 -0.962,0.356 -3.509,1.489 -5.66,2.519 -5.204,2.49 -7.03,4.208 -11.243,10.572 -3.908,5.904 -6.862,9.88 -11.072,14.904 l -3.033,3.619 0.105,5.553 c 0.06,3.055 -0.165,9.443 -0.496,14.197 -1.412,20.273 0.72,36.608 7.062,54.103 2.171,5.989 3.916,10.034 9.607,22.273 7.715,16.589 9.922,22.49 11.052,29.543 0.553,3.449 0.254,12.126 -0.542,15.789 -1.915,8.802 -6.683,18.521 -12.367,25.208 -2.333,2.744 -2.131,2.719 1.433,-0.18 7.547,-6.138 12.78,-12.964 15.804,-20.618 3.936,-9.961 4.031,-19.534 0.301,-30.354 -0.565,-1.641 -0.968,-2.984 -0.895,-2.984 0.757,0 19.578,14.76 25.952,20.353 5.38,4.72 15.379,14.627 19.515,19.335 12.601,14.345 20.312,28.119 21.725,38.805 0.811,6.141 -0.07,14.025 -2.241,20.109 l -0.505,1.411 -58.525,0.09 -58.526,0.09 0.123,-4.571 c 0.08,-2.811 -0.107,-6.621 -0.476,-9.896 -0.795,-7.062 -1.165,-8.215 -1.204,-3.745 -0.04,4.772 -0.899,9.898 -2.413,14.418 l -1.27,3.792 h -43.72 -43.72 l 0.231,-0.97 c 0.51,-2.14 2.721,-6.173 4.322,-7.886 3.781,-4.043 6.969,-5.332 13.338,-5.392 2.329,-0.02 5.702,0.09 7.497,0.252 2.76,0.246 3.263,0.211 3.263,-0.225 0,-0.525 -5.116,-2.116 -10.407,-3.236 -7.43,-1.572 -13.669,0.324 -17.618,5.356 -2.909,3.706 -4.417,7.318 -4.426,10.602 v 1.499 h -33.663 -33.662 z m 46.098,-93.214 c 12.142,-7.051 24.95,-12.557 37.313,-16.042 6.797,-1.917 8.646,-2.333 17.368,-3.911 11.719,-2.121 20.385,-4.609 26.944,-7.736 3.787,-1.806 8.916,-5.12 11.156,-7.208 l 1.587,-1.48 -1.954,1.252 c -4.09,2.62 -11.433,5.028 -18.331,6.011 -2.037,0.29 -6.72,0.764 -10.407,1.054 -3.686,0.289 -8.528,0.851 -10.759,1.249 -16.326,2.909 -32.958,10.059 -47.697,20.503 -3.813,2.701 -12.622,9.723 -15.627,12.457 -1.568,1.426 -1.334,1.316 2.117,-0.992 2.134,-1.428 5.865,-3.749 8.29,-5.157 z m 15.295,-145.91 c 2.692,-0.693 7.066,-2.718 10.993,-5.09 1.646,-0.994 2.993,-1.859 2.993,-1.922 0,-0.06 -1.117,0.34 -2.482,0.896 -3.218,1.309 -10.772,3.393 -13.923,3.84 -5.283,0.75 -9.034,0.201 -12.331,-1.805 l -1.78,-1.083 1.202,1.259 c 1.353,1.418 5.249,3.587 7.31,4.071 2.175,0.511 5.669,0.438 8.018,-0.166 z m -33.639,-2.851 c 2.442,-1.004 4.599,-3.77 5.125,-6.574 0.194,-1.036 0.135,-1.306 -0.286,-1.306 -0.292,0 -0.616,0.223 -0.721,0.495 -0.352,0.918 -4.533,2.635 -7.293,2.995 -3.949,0.516 -10.974,-0.494 -13.935,-2.002 -1.993,-1.015 -0.26,0.554 3.128,2.832 6.342,4.264 10.001,5.196 13.982,3.56 z m -86.157,-48.164 c 2.153,-0.805 6.429,-4.542 6.429,-5.618 0,-0.861 -0.04,-0.853 -1.878,0.388 -2.779,1.876 -7.562,3.982 -9.042,3.982 -2.634,0 -4.806,-1.767 -8.754,-7.122 -2.054,-2.786 -2.55,-3.126 -3.759,-2.576 -0.786,0.359 -0.909,0.635 -0.909,2.045 0,0.896 0.263,2.183 0.583,2.859 0.684,1.441 3.248,3.456 6.473,5.087 4.302,2.177 6.966,2.411 10.857,0.955 z m 187.055,-35.563 c 0.549,-2.286 0.559,-7.089 0.03,-11.28 -0.495,-3.878 -0.488,-9.705 0.01,-12.075 0.862,-4.063 3.087,-6.838 6.176,-7.703 1.47,-0.411 4.688,-0.329 6.304,0.162 0.388,0.118 0.15,-0.07 -0.53,-0.408 -1.86,-0.938 -6.76,-0.857 -8.647,0.143 -2.075,1.1 -3.319,2.482 -4.509,5.005 -1.574,3.341 -1.681,7.034 -0.408,14.161 1.07,5.997 1.288,11.491 0.556,14.045 -0.24,0.837 -0.511,1.789 -0.603,2.117 -0.09,0.327 0.131,-0.04 0.495,-0.816 0.363,-0.776 0.87,-2.284 1.126,-3.351 z m -69.747,-3.036 c 3.037,-0.677 6.473,-2.233 7.614,-3.448 l 0.827,-0.88 -1.571,-1.663 -1.571,-1.662 -0.799,1.65 c -1.443,2.98 -4.772,4.784 -9.359,5.07 -2.989,0.186 -6.149,-0.436 -7.89,-1.555 -0.454,-0.292 -0.894,-0.461 -0.978,-0.377 -0.291,0.292 2.62,1.985 4.323,2.514 3.46,1.074 5.773,1.161 9.404,0.351 z m 13.648,-1.815 c -3.22,-5.476 -11.335,-14.188 -16.401,-17.609 -3.229,-2.18 -7.533,-4.521 -7.807,-4.246 -0.08,0.08 1.004,1.079 2.417,2.213 9.145,7.343 19.719,17.136 21.595,19.998 0.943,1.44 1.093,1.169 0.196,-0.356 z m -29.012,-11.113 c 0.193,-0.242 0.565,-1.044 0.826,-1.783 0.396,-1.116 0.397,-1.391 0,-1.632 -0.773,-0.478 -1.797,0 -2.369,1.106 -0.484,0.937 -0.482,1.125 0.02,1.895 0.628,0.959 0.999,1.061 1.514,0.414 z m 7.156,-16.469 c -0.594,-1.108 -0.425,-2.26 0.553,-3.768 2.406,-3.71 8.355,-5.68 16.015,-5.301 l 3.704,0.183 -2.293,-0.536 c -1.43,-0.334 -4.218,-0.55 -7.409,-0.576 -4.572,-0.04 -5.335,0.05 -7.189,0.777 -3.672,1.446 -5.937,4.269 -5.34,6.659 0.302,1.213 1.547,3.245 1.987,3.245 0.204,0 0.192,-0.27 -0.03,-0.683 z m 21.411,-8.703 c -0.117,-0.117 -0.421,-0.129 -0.676,-0.03 -0.282,0.113 -0.198,0.197 0.213,0.214 0.372,0.02 0.58,-0.07 0.463,-0.186 z" id="path24" /></g></svg>