<?xml version='1.0' encoding='utf-8'?>
<svg xmlns="http://www.w3.org/2000/svg" width="352.25211mm" height="340.40427mm" viewBox="0 0 352.25211 340.40427" version="1.1" id="svg5" xml:space="preserve"><defs id="defs2" /><g id="layer1"><path style="fill:#000000" d="m 180.61399999999958 339.9893999999995 c -0.971,-0.276 -2.185,-0.662 -2.698,-0.859 -0.677,-0.259 -1.456,-0.219 -2.823,0.145 -4.657,1.239 -9.848,0.388 -13.192,-2.165 -1.276,-0.974 -1.894,-1.205 -3.228,-1.205 -2.136,0 -4.366,-1.092 -5.908,-2.893 -3.256,-3.805 -1.825,-9.71 3.67,-15.141 4.164,-4.115 9.963,-6.635 15.314,-6.654 h 1.718 l 4.103,-4.19 c 4.159,-4.247 6.699,-6.201 11.158,-8.583 2.991,-1.599 2.333,-1.706 -1.708,-0.28 -1.649,0.582 -3.101,1.058 -3.226,1.058 -0.403,0 -2.929,-5.751 -3.486,-7.937 -1.176,-4.609 -1.448,-8.005 -0.952,-11.884 0.741,-5.802 0.838,-8.297 0.393,-10.083 -0.626,-2.512 -2.682,-6.564 -4.404,-8.678 l -1.533,-1.881 1.637,0.301 c 2.878,0.53 9.209,2.394 10.685,3.147 0.785,0.401 1.497,0.659 1.582,0.573 0.309,-0.309 -4.165,-3.879 -6.987,-5.575 -7.18,-4.315 -14.425,-4.864 -21.274,-1.611 -3.321,1.577 -5.761,3.58 -11.65,9.562 -4.014,4.078 -10.759,9.881 -10.759,9.257 0,-0.343 6.499,-14.66 8.155,-17.966 4.485,-8.953 12.151,-21.511 15.071,-24.69 0.488,-0.531 0.79,-1.064 0.67,-1.183 -0.328,-0.329 -9.904,9.164 -12.489,12.38 -4.757,5.918 -8.573,12.133 -11.453,18.651 l -1.538,3.48 -0.291,-1.54 c -0.486,-2.581 -0.362,-9.811 0.231,-13.363 0.66,-3.959 1.976,-8.656 3.199,-11.422 0.481,-1.089 0.765,-1.979 0.63,-1.979 -0.462,0 -4.478,5.994 -5.944,8.87 l -1.466,2.876 -0.258,-2.413 c -0.76,-7.096 2.457,-24.665 6.374,-34.807 0.681,-1.763 1.182,-3.262 1.114,-3.331 -0.21,-0.209 -3.589,6.503 -5.51,10.943 -5.118,11.83 -7.353,22.643 -7.013,33.928 0.08,2.805 0.05,5.1 -0.08,5.1 -0.336,0 -4.284,-4.204 -5.296,-5.64 -0.476,-0.676 -1.629,-2.74 -2.56,-4.586 l -1.694,-3.356 0.215,2.293 c 0.687,7.333 3.42,12.945 9.332,19.164 l 3.013,3.17 -1.382,-0.258 c -3.746,-0.698 -7.663,-2.883 -11.444,-6.386 -1.234,-1.143 -4.603,-4.725 -7.487,-7.96 -6.156,-6.906 -8.331,-8.947 -10.732,-10.071 -2.838,-1.33 -4.757,-0.965 -6.63,1.261 -1.34,1.593 -1.814,3.385 -1.824,6.901 0,2.85 0.107,3.42 1.121,5.563 0.621,1.314 1.888,3.378 2.816,4.587 1.595,2.078 9.288,9.822 10.012,10.078 0.186,0.07 -0.525,-1.17 -1.581,-2.747 -2.047,-3.059 -3.747,-6.782 -4.611,-10.098 -0.677,-2.598 -1.046,-7.156 -0.658,-8.137 0.293,-0.744 0.319,-0.739 2.093,0.402 1.007,0.648 4.251,3.824 7.384,7.229 8.51,9.247 14.901,14.616 20.806,17.478 5.061,2.453 8.377,2.771 12.777,1.224 2.639,-0.927 4.983,-2.771 11.249,-8.85 6.699,-6.498 8.545,-7.556 13.184,-7.556 3.571,0 5.021,0.583 7.428,2.988 4.03,4.027 4.773,9.584 2.62,19.589 -0.501,2.329 -1.02,5.662 -1.154,7.409 l -0.243,3.175 -5.115,0.412 c -2.813,0.226 -8.039,0.425 -11.612,0.441 -3.574,0.02 -6.414,0.112 -6.312,0.214 0.676,0.676 14.456,3.659 20.482,4.433 3.924,0.505 3.862,0.419 2.79,3.848 -0.75,2.4 -0.909,2.433 -6.833,1.42 -11.388,-1.946 -22.247,-5.496 -32.348,-10.575 -4.119,-2.071 -10.182,-5.721 -12.348,-7.433 -1.019,-0.805 -1.924,-1.394 -2.01,-1.308 -0.09,0.09 0.32,1.165 0.902,2.397 1.615,3.415 2.328,7.066 1.815,9.293 -0.829,3.594 -2.975,5.524 -8.716,7.839 -6.843,2.759 -8.056,3.762 -8.653,7.147 -0.231,1.311 -0.709,2.585 -1.182,3.149 -1.711,2.043 -2.65,3.74 -2.649,4.789 0,1.475 1.179,3.319 2.298,3.6 2.037,0.511 6.178,-0.831 8.051,-2.61 1.456,-1.382 1.928,-2.479 2.684,-6.235 0.375,-1.866 0.997,-3.809 1.401,-4.376 0.73,-1.025 2.971,-2.158 4.269,-2.158 0.826,0 0.837,0.102 0.199,1.94 -0.269,0.777 -0.667,2.92 -0.884,4.763 -0.856,7.264 -4.622,11.34 -11.904,12.882 -3.051,0.647 -5.103,0.654 -7.518,0.03 -1.772,-0.459 -2.176,-0.434 -5.633,0.362 -7.777,1.789 -15.239,1.91 -19.747,0.32 -1.013,-0.358 -2.825,-0.539 -5.375,-0.539 -4.189,0 -5.363,-0.315 -7.315,-1.961 -5.752,-4.849 -2.277,-16.258 6.436,-21.13 2.827,-1.581 5.712,-2.309 9.147,-2.309 2.746,0 2.791,-0.01 4.569,-1.5 2.87,-2.395 7.234,-7.893 8.752,-11.024 1.752,-3.615 2.443,-6.606 2.45,-10.597 0.01,-6.345 -1.644,-10.029 -8.866,-19.742 -15.042,-20.231 -19.471,-29.996 -18.298,-40.347 0.678,-5.987 3.043,-13.686 10.688,-34.794 8.064,-22.265 10.004,-29.793 10.222,-39.658 0.05,-2.148 0.112,-3.907 0.144,-3.908 0.03,0 0.932,1.244 2,2.767 4.6,6.565 10.579,9.691 18.579,9.715 4.575,0.01 8.319,-0.786 12.255,-2.617 l 2.907,-1.351 3.09,1.334 c 1.7,0.735 3.964,1.554 5.031,1.822 2.659,0.666 8.451,0.592 11.289,-0.145 10.271,-2.666 17.439,-11.454 17.893,-21.934 0.194,-4.469 -0.709,-8.198 -3.757,-15.52 -2.082,-5.003 -8.542,-18.944 -8.703,-18.781 -0.04,0.04 0.694,2.649 1.641,5.787 2.267,7.517 4.701,16.708 5.605,21.161 2.131,10.503 -0.418,18.227 -7.6,23.03 -3.632,2.43 -6.289,3.196 -11.076,3.196 -4.444,0 -7.21,-0.705 -10.222,-2.607 l -1.932,-1.22 1.05,-0.235 c 3.477,-0.777 5.723,-2.06 7.357,-4.203 1.129,-1.481 1.983,-3.4 1.983,-4.458 0,-0.455 0.698,-1.379 1.773,-2.345 2.415,-2.171 3.541,-4.197 3.776,-6.791 0.437,-4.815 -3.464,-8.968 -10.16,-10.818 -3.234,-0.894 -11.459,-0.899 -15.321,-0.01 -5.535,1.273 -9.778,3.98 -11.486,7.33 -0.619,1.212 -0.733,1.949 -0.626,4.055 0.118,2.343 0.258,2.755 1.566,4.605 0.79,1.117 2.147,2.521 3.016,3.12 0.869,0.599 1.515,1.286 1.434,1.527 -0.255,0.765 1.665,4.198 3.006,5.375 1.833,1.61 3.969,2.454 6.813,2.692 2.333,0.196 2.436,0.241 1.901,0.832 -0.948,1.048 -5.21,3.105 -7.6,3.668 -2.914,0.687 -7.373,0.688 -10.006,0 -6.445,-1.679 -11.573,-7.352 -13.063,-14.453 -1.226,-5.836 -0.564,-11.806 3.747,-33.807 1.173,-5.982 2.064,-10.944 1.982,-11.026 -0.161,-0.162 -7.83,15.525 -8.939,18.286 -0.37,0.92 -0.854,1.675 -1.076,1.675 -0.737,0 -7.37,-7.28 -9.611,-10.552 -1.213,-1.77 -3.061,-5.002 -4.107,-7.181 -1.929,-4.019 -7.6,-18.849 -8.935,-23.364 -3.378,-11.429 -1.751,-24.653 4.568,-37.13 1.106,-2.183 1.947,-3.969 1.87,-3.969 -0.748,0 -9.099,10.693 -10.705,13.708 -0.79,1.483 -1.358,2.3 -1.262,1.815 0.1,-0.486 0.43,-2.298 0.742,-4.028 0.519,-2.874 2.507,-9.251 3.418,-10.966 0.319,-0.599 0.298,-0.641 -0.141,-0.28 -0.758,0.626 -3.624,6.249 -4.638,9.1 -1.554,4.372 -2.133,8.037 -2.145,13.582 0,2.813 0.186,6.147 0.427,7.408 0.894,4.69 3.05,11.737 6.472,21.167 6.477,17.845 7.513,22.693 7.496,35.101 0,7.484 -0.08,8.468 -0.979,12.673 -3.023,14.226 -10.067,23.798 -18.854,25.625 -6.654,1.383 -13.1,-1.196 -20.318,-8.127 -8.16,-7.836 -10.01,-11.915 -15.04,-33.148 -1.899,-8.018 -2.334,-9.395 -4.255,-13.449 -2.63,-5.551 -3.672,-9.929 -3.395,-14.265 l 0.181,-2.823 -0.82,1.764 c -1.222,2.631 -1.704,5.895 -1.516,10.268 0.142,3.298 0.353,4.369 1.488,7.548 0.727,2.037 2.434,6.952 3.792,10.921 1.358,3.97 2.706,7.676 2.995,8.235 0.864,1.67 0.22,1.542 -1.559,-0.309 -4.261,-4.435 -7.801,-10.417 -9.212,-15.568 -0.382,-1.398 -0.878,-4.335 -1.101,-6.527 -0.486,-4.772 0.108,-9.755 1.621,-13.605 2.033,-5.172 8.214,-14.253 18.421,-27.064 11.546,-14.492 27.029,-32.339 31.39,-36.184 3.848,-3.392 6.96,-3.905 12.685,-2.09 3.551,1.126 3.645,1.136 5.115,0.571 0.825,-0.317 2.61,-1.472 3.968,-2.567 21.015,-16.937 48.155,-22.137 74.084,-14.195 5.103,1.563 10.531,3.855 16.677,7.041 3.403,1.764 5.8,2.793 6.504,2.793 0.614,0 2.641,-0.713 4.505,-1.584 7.256,-3.392 9.343,-2.678 21.246,7.27 14.209,11.875 38.675,35.332 44.923,43.071 4.547,5.631 6.217,9.358 6.935,15.478 0.32,2.733 0.321,4.511 0,7.673 -0.524,5.187 -1.43,8.469 -3.571,12.935 -2.264,4.721 -6.275,10.136 -4.975,6.715 0.203,-0.533 0.835,-3.69 1.404,-7.017 0.57,-3.326 1.529,-7.873 2.133,-10.105 1.524,-5.634 1.773,-10.392 0.753,-14.424 -0.848,-3.353 -2.055,-6.158 -3.205,-7.448 -0.652,-0.731 -0.743,-0.761 -0.532,-0.176 1.789,4.96 1.438,11.993 -0.908,18.168 -1.457,3.837 -1.667,4.859 -2.279,11.112 -1.724,17.623 -2.485,22.309 -4.411,27.164 -4.112,10.366 -12.707,19.762 -20.048,21.915 -1.319,0.387 -2.945,0.514 -5.489,0.43 -3.365,-0.111 -3.807,-0.214 -6.416,-1.491 -2.296,-1.125 -3.437,-2.015 -6.329,-4.941 -8.003,-8.098 -12.119,-19.083 -13.233,-35.316 -0.535,-7.792 0.372,-15.422 3.35,-28.182 4.15,-17.782 4.773,-26.358 2.59,-35.67 -1.568,-6.692 -4.953,-13.497 -9.476,-19.05 -1.393,-1.711 -1.324,-1.454 1.405,5.23 1.174,2.876 2.135,5.32 2.135,5.43 0,0.11 -1.389,-1.135 -3.087,-2.766 -2.745,-2.637 -7.913,-6.755 -10.834,-8.634 -1.256,-0.807 -1.128,-0.563 1.463,2.795 5.307,6.874 9.383,15.755 11.284,24.588 0.507,2.359 0.638,4.479 0.621,10.046 -0.02,6.5 -0.112,7.489 -1.15,12.566 -1.548,7.569 -2.917,12.396 -7.24,25.534 -4.381,13.315 -5.098,16.009 -5.528,20.769 -0.36,3.991 -0.437,7.133 -0.169,6.864 0.1,-0.1 0.719,-2.147 1.382,-4.556 2.176,-7.909 5.015,-13.838 9.079,-18.96 0.974,-1.228 1.845,-2.159 1.935,-2.069 0.09,0.09 -0.573,2.048 -1.474,4.35 -3.92,10.017 -5.264,16.932 -5.022,25.853 0.216,7.953 0.883,10.597 4.562,18.08 3.464,7.044 4.178,9.601 4.178,14.958 0,6.25 -1.473,12.214 -4.584,18.567 l -1.434,2.927 1.623,-1.764 c 4.649,-5.052 7.748,-10.177 9.485,-15.681 1.823,-5.78 1.55,-10.369 -1.046,-17.539 l -1.214,-3.356 2.024,1.73 c 5.573,4.76 10.731,8.036 19.241,12.221 11.906,5.854 22.163,9.857 48.93,19.095 25.06,8.65 33.274,12.125 44.572,18.86 17.258,10.287 29.848,24.718 34.81,39.902 3.056,9.353 3.386,18.476 1.235,34.147 -0.489,3.562 -0.889,7.324 -0.889,8.361 0,4.533 1.461,7.977 5.166,12.173 2.976,3.37 4.316,5.319 4.586,6.67 0.335,1.676 -0.732,3.959 -2.719,5.818 l -1.753,1.639 1.908,2.249 c 5.495,6.478 6.344,14.353 2.045,18.975 -2.082,2.24 -4.605,3.384 -8.56,3.883 -2.552,0.322 -3.408,0.29 -5.4,-0.201 -2.347,-0.579 -2.392,-0.577 -5.021,0.306 -2.817,0.945 -7.418,1.204 -10.021,0.564 -0.687,-0.168 -2.537,-0.232 -4.112,-0.141 -3.279,0.19 -5.947,-0.47 -8.307,-2.055 -1.256,-0.844 -1.575,-0.915 -2.698,-0.605 -3.574,0.987 -8.337,-0.653 -10.485,-3.611 -1.534,-2.112 -2.035,-4.054 -1.819,-7.06 0.1,-1.356 0.135,-2.465 0.08,-2.465 -0.05,0 -1.586,0.308 -3.416,0.684 -7.44,1.531 -13.732,2.211 -22.185,2.399 -11.977,0.265 -19.181,-0.651 -25.921,-3.295 -2.178,-0.854 -2.906,-0.958 -6.678,-0.958 -2.328,0 -6.031,0.198 -8.229,0.44 -2.198,0.242 -4.068,0.368 -4.156,0.28 -0.151,-0.15 0.869,-5.145 1.655,-8.105 0.325,-1.228 0.445,-1.323 1.66,-1.323 1.386,0 8.34,-1.068 12.775,-1.962 8.286,-1.671 22.686,-5.953 30.984,-9.214 l 3.997,-1.571 5.881,1.932 c 12.015,3.947 20.256,5.219 43.37,6.699 l 1.858,0.119 -0.783,-0.834 c -1.921,-2.045 -9.879,-6.859 -14.573,-8.815 -3.624,-1.51 -3.346,-1.627 3.349,-1.408 5.423,0.178 13.556,1.199 17.639,2.215 0.485,0.121 -2.208,-1.317 -5.985,-3.196 -11.963,-5.95 -17.768,-9.827 -23.33,-15.577 -5.352,-5.535 -8.481,-10.62 -10.446,-16.973 -0.909,-2.944 -0.957,-3.454 -0.953,-10.328 0,-7.367 0.04,-7.667 1.706,-13.23 0.116,-0.388 -0.416,0.565 -1.183,2.117 -4.286,8.674 -6.47,21.658 -5.281,31.397 1.318,10.798 5.201,18.121 12.663,23.884 l 1.235,0.954 -2.293,0.01 c -6.3,0.03 -15.882,-3.616 -21.341,-8.127 l -1.622,-1.34 -2.894,1.88 c -10.379,6.744 -28.125,13.191 -43.671,15.867 l -1.266,0.218 0.16,-5.385 c 0.114,-3.87 0,-6.455 -0.41,-9.188 -0.314,-2.092 -0.57,-5.537 -0.57,-7.656 0,-6.038 0.74,-8.877 5.374,-20.615 3.76,-9.524 4.814,-13.072 5.091,-17.138 0.638,-9.374 -4.581,-18.578 -14.226,-25.086 -3.526,-2.38 -6.296,-3.489 -8.708,-3.489 -2.623,0 -3.759,0.894 -3.759,2.96 0,1.833 1.012,3.115 5.473,6.936 3.907,3.345 6.857,7.006 8.603,10.674 1.781,3.744 2.27,5.974 2.256,10.298 -0.01,4.675 -0.71,8.356 -3.3,17.462 -2.552,8.972 -3.666,14.003 -4.218,19.05 -0.449,4.093 -0.276,6.751 0.74,11.373 1.935,8.811 -0.318,16.405 -7.298,24.598 l -2.079,2.441 -0.882,-0.812 c -2.072,-1.908 -7.546,-5.124 -7.981,-4.689 -0.08,0.08 1.032,1.127 2.469,2.33 3.094,2.591 5.534,5.588 6.839,8.404 1.333,2.874 1.329,6.718 -0.01,9.96 -0.517,1.252 -0.902,2.314 -0.856,2.36 0.341,0.341 2.69,-1.368 3.785,-2.753 1.857,-2.35 2.52,-4.586 2.553,-8.608 l 0.03,-3.336 0.818,0.769 c 1.528,1.435 2.586,4.107 2.586,6.526 0,5.722 -4.175,10.653 -10.39,12.272 -1.127,0.294 -2.782,0.521 -3.678,0.506 -0.897,-0.01 -2.821,0.319 -4.276,0.744 -3.426,0.998 -10.284,1.297 -12.876,0.56 z m 11.219,-5.41 c 4.704,-2.202 8.404,-7.306 7.846,-10.822 -1.179,-7.415 -10.877,-10.395 -21.368,-6.566 -6.888,2.513 -10.614,6.76 -10.851,12.364 -0.09,2.192 0.01,2.846 0.62,3.814 0.993,1.587 2.738,2.287 4.634,1.861 2.144,-0.481 2.238,-0.692 1.538,-3.437 -0.786,-3.082 -0.328,-5.739 1.373,-7.97 1.028,-1.347 4.277,-3.75 4.604,-3.406 0.08,0.08 -0.177,1.333 -0.559,2.788 -1.17,4.455 -0.439,8.665 1.882,10.829 2.363,2.204 6.29,2.412 10.281,0.545 z m -33.878,-5.749 c 0.24,-2.649 1.436,-5.157 4.051,-8.5 l 1.986,-2.537 -1.526,0.854 c -1.85,1.035 -5.039,4.477 -6.013,6.488 -0.918,1.898 -0.911,3.717 0.02,4.902 0.402,0.511 0.856,0.929 1.009,0.929 0.153,0 0.366,-0.961 0.472,-2.136 z m -73.142,-3.324 c 3.277,-1.156 4.96,-3.346 4.96,-6.451 0,-2.978 -1.816,-5.782 -5.468,-8.439 l -1.058,-0.77 1.724,-0.767 c 3.458,-1.537 8.413,-0.273 11.663,2.976 1.799,1.8 2.134,1.402 0.602,-0.714 -1.533,-2.115 -4.144,-4.248 -5.958,-4.866 -2.327,-0.793 -5.651,-0.711 -8.087,0.201 -1.441,0.539 -2.939,0.775 -5.216,0.82 -3.762,0.08 -5.981,0.82 -8.818,2.963 -3.122,2.356 -5.489,6.659 -5.489,9.976 0,1.361 1.142,3.174 2.367,3.759 1.804,0.86 2.295,0.349 2.8,-2.918 0.636,-4.116 2.15,-6.918 4.785,-8.857 1.166,-0.859 2.42,-1.561 2.787,-1.561 0.366,0 0.664,0.04 0.662,0.09 0,0.05 -0.32,1.095 -0.706,2.325 -0.768,2.45 -0.949,7.132 -0.356,9.199 0.381,1.33 1.57,2.772 2.654,3.221 1.154,0.477 4.566,0.375 6.152,-0.185 z m 236.171,-0.676 c 1.387,-0.579 2.77,-2.31 3.389,-4.239 0.597,-1.86 0.272,-6.514 -0.642,-9.201 -0.396,-1.162 -0.652,-2.18 -0.571,-2.262 0.626,-0.626 4.365,2.556 5.728,4.876 0.891,1.515 0.95,1.878 0.933,5.773 -0.02,4.805 -0.08,4.737 3.728,4.392 2.844,-0.258 5.423,-1.706 6.592,-3.701 0.791,-1.35 0.881,-1.828 0.732,-3.898 -0.348,-4.854 -4.662,-10.651 -7.926,-10.651 -0.658,0 -1.801,0.308 -2.539,0.685 l -1.343,0.686 -2.788,-0.901 c -4.064,-1.312 -9.492,-1.327 -13.121,-0.03 -3.181,1.132 -5.294,2.705 -6.91,5.143 -2.607,3.933 -2.029,10.091 1.215,12.943 0.801,0.705 0.801,0.705 0.525,0 -0.933,-2.378 -1.16,-5.757 -0.537,-8 0.552,-1.987 2.447,-4.525 4.348,-5.823 2.163,-1.476 2.613,-1.483 1.521,-0.02 -1.308,1.747 -1.984,3.256 -2.369,5.29 -0.68,3.583 0.919,7.521 3.586,8.835 1.469,0.724 4.845,0.782 6.449,0.112 z m -25.835,-5.77 c 0.111,-2.671 0.294,-3.419 1.358,-5.556 0.757,-1.522 2.16,-3.451 3.655,-5.027 1.334,-1.407 2.322,-2.558 2.195,-2.558 -0.985,0 -4.968,2.577 -6.747,4.365 -2.719,2.734 -3.843,4.989 -3.859,7.746 -0.01,1.884 0.08,2.143 1.14,3.087 1.867,1.669 2.111,1.446 2.258,-2.057 z m -237.519,-177.888 c 4.855,-9.297 6.25,-20.519 4.102,-32.985 -1.054,-6.122 -2.684,-10.379 -8.038,-20.999 -5.618,-11.143 -7.788,-16.881 -9.068,-23.98 -0.9,-4.992 -1,-13.795 -0.207,-18.336 0.286,-1.639 0.481,-3.019 0.433,-3.066 -0.198,-0.199 -6.267,11.555 -7.226,13.994 -1.423,3.621 -3.178,10.23 -2.715,10.23 0.08,0 0.731,-1.15 1.436,-2.557 1.239,-2.469 3.643,-6.068 3.889,-5.823 0.07,0.07 -0.127,1.066 -0.429,2.222 -1.215,4.648 -1.181,12.348 0.08,18.111 0.819,3.747 1.063,3.991 1.312,1.317 0.12,-1.279 0.449,-2.763 0.732,-3.299 l 0.515,-0.975 0.344,0.882 c 1.972,5.053 3.198,7.701 6.944,14.993 2.391,4.657 4.823,9.899 5.404,11.651 4.024,12.134 4.783,29.088 1.707,38.111 -0.467,1.37 -1.117,3.037 -1.444,3.705 l -0.594,1.214 0.721,-0.882 c 0.397,-0.485 1.343,-2.073 2.103,-3.528 z m 139.726,-7.436 c -2.948,-5.842 -4.521,-12.217 -4.821,-19.552 -0.325,-7.933 0.894,-19.694 2.718,-26.217 0.397,-1.42 1.975,-5.786 3.507,-9.702 2.649,-6.776 4.053,-11.265 4.977,-15.923 0.363,-1.832 0.474,-2.022 0.865,-1.487 0.247,0.338 0.743,1.64 1.102,2.895 0.36,1.254 0.793,2.28 0.963,2.28 0.171,0 0.233,-2.709 0.139,-6.085 -0.186,-6.711 -0.797,-9.821 -2.747,-13.988 -0.581,-1.241 -0.974,-2.34 -0.873,-2.44 0.101,-0.101 1.453,1.121 3.005,2.715 1.552,1.594 2.821,2.772 2.821,2.617 0,-0.155 -0.86,-1.839 -1.912,-3.743 -1.797,-3.252 -10.737,-15.581 -11.062,-15.255 -0.08,0.08 0.191,1.133 0.607,2.335 0.416,1.202 1.085,4.109 1.487,6.461 0.635,3.719 0.706,5.241 0.545,11.685 -0.25,10.02 -1.229,15.032 -5.043,25.825 -4.528,12.81 -5.167,15.292 -5.802,22.513 -0.901,10.24 1.13,20.954 5.634,29.721 1.636,3.186 4.401,7.489 4.811,7.489 0.09,0 -0.325,-0.965 -0.921,-2.144 z m -107.326,-51.655 c 1.836,-0.918 3.194,-1.99 5.301,-4.185 4.522,-4.71 4.561,-5.476 0.166,-3.262 -3.496,1.76 -5.78,2.332 -9.308,2.332 -3.452,0 -5.161,-0.505 -7.662,-2.264 -1.535,-1.08 -5.141,-5.043 -6.908,-7.593 l -0.923,-1.332 2.668,-2.588 c 3.563,-3.454 5.528,-4.8 8.231,-5.634 5.435,-1.679 9.423,-0.162 12.911,4.911 3.686,5.363 7.335,10.311 7.49,10.156 0.233,-0.233 -3.638,-8.475 -5.318,-11.319 -2.794,-4.734 -7.202,-8.293 -10.995,-8.88 -2.128,-0.33 -5.08,0.416 -7.506,1.895 -2.324,1.417 -7.145,5.321 -11.327,9.173 l -2.639,2.431 2.131,2.259 c 1.172,1.242 3.567,3.926 5.322,5.964 6.087,7.069 9.129,9.093 13.74,9.146 1.791,0.02 2.578,-0.185 4.626,-1.21 z m 69.054,-4.284 c 3,-1.022 6.288,-4.58 11.672,-12.63 4.704,-7.033 4.727,-7.078 3.976,-7.647 -1.308,-0.991 -14.119,-7.297 -16.52,-8.131 -3.26,-1.134 -8.715,-1.16 -10.784,-0.05 -2.834,1.517 -5.389,5.353 -6.442,9.673 -0.519,2.127 -1.357,7.923 -1.629,11.255 -0.206,2.539 -0.194,2.599 0.308,1.497 0.287,-0.631 1.173,-3.47 1.969,-6.309 2.131,-7.608 3.504,-9.955 6.835,-11.682 2.425,-1.257 6.263,-1.307 10.096,-0.132 2.784,0.853 8.024,3.441 9.742,4.811 0.951,0.759 0.978,0.849 0.436,1.461 -0.319,0.359 -1.486,2.16 -2.595,4.004 -2.795,4.646 -4.024,6.046 -6.432,7.33 -3.802,2.027 -7.788,2.231 -14.162,0.727 -3.73,-0.88 -4.317,-0.499 -1.933,1.253 2.278,1.674 6.932,4.096 8.929,4.647 2.269,0.627 4.555,0.601 6.534,-0.07 z m -78.994,-10.797 c -0.323,-3.759 -0.737,-4.641 -2.248,-4.786 -1.33,-0.128 -2.18,0.418 -2.18,1.4 0,1.076 2.004,4.746 3.033,5.555 1.532,1.205 1.666,0.995 1.395,-2.169 z m 12.345,-0.07 c 2.643,-2.643 -0.913,-6.709 -3.849,-4.4 -0.75,0.59 -0.929,1.028 -0.929,2.267 0,1.24 0.179,1.678 0.929,2.268 1.258,0.99 2.778,0.936 3.849,-0.135 z m 69.312,-0.725 c 2.028,-1.049 2.348,-3.163 0.726,-4.786 -1.246,-1.245 -2.704,-1.348 -4.055,-0.286 -0.82,0.646 -0.933,0.962 -0.841,2.369 0.09,1.4 0.272,1.736 1.305,2.43 1.418,0.953 1.529,0.964 2.865,0.273 z m -12.775,-3.812 c 0.394,-0.837 0.981,-2.432 1.304,-3.544 0.541,-1.86 0.542,-2.091 0.02,-2.887 -0.726,-1.108 -1.287,-1.091 -2.682,0.08 -1.117,0.94 -1.125,0.972 -0.97,3.616 0.149,2.56 0.672,4.256 1.311,4.256 0.166,0 0.624,-0.686 1.017,-1.523 z m -74.368,-11.22 c 2.796,-2.322 6.553,-4.321 9.222,-4.907 3.02,-0.663 7.126,-0.309 9.613,0.83 1.135,0.519 2.155,0.945 2.267,0.945 0.112,0 -0.344,-0.565 -1.013,-1.255 -4.194,-4.328 -10.236,-5.511 -15.331,-3.003 -3.644,1.794 -9.191,8.055 -12.838,14.488 -1.094,1.93 -1.081,1.922 2.344,-1.627 1.893,-1.962 4.475,-4.424 5.736,-5.471 z m 98.425,0.825 c 0,-0.419 -6.47,-6.046 -8.938,-7.772 -4.992,-3.494 -10.168,-5.33 -13.618,-4.833 -3.571,0.515 -7.458,3.15 -9.604,6.512 -1.381,2.163 -1.257,2.392 0.513,0.942 4.737,-3.882 11.056,-4.726 17.583,-2.349 3.283,1.197 8.024,3.771 11.418,6.2 2.164,1.549 2.646,1.786 2.646,1.3 z m 177.131,248.523 c -1.994,-5.272 -5.307,-11.365 -7.96,-14.641 -2.772,-3.423 -2.837,-3.594 -2.693,-7.123 0.131,-3.195 2.509,-16.286 3.679,-20.25 0.194,-0.658 3.188,6.097 4.677,10.551 3.792,11.349 5.285,23.238 3.855,30.71 -0.287,1.501 -0.569,2.776 -0.627,2.834 -0.06,0.06 -0.477,-0.879 -0.931,-2.081 z m -13.737,-82.389 c -0.784,-6.286 -2.591,-12.767 -5.178,-18.573 -0.917,-2.058 -4.655,-8.643 -4.906,-8.643 -0.07,0 0.493,1.433 1.248,3.184 2.779,6.446 5.25,16.519 5.25,21.401 v 1.937 l -3.792,-3.599 c -2.086,-1.979 -7.15,-6.302 -11.254,-9.605 l -7.461,-6.006 0.406,-1.099 c 0.226,-0.613 0.398,-2.969 0.389,-5.331 -0.02,-4.733 -0.422,-6.273 -4.207,-16.008 -4.684,-12.049 -6.028,-18.273 -5.722,-26.502 0.372,-10.003 3.055,-16.455 9.742,-23.422 6.267,-6.528 13.995,-10.724 24.791,-13.461 3.28,-0.831 16.205,-3.044 16.44,-2.814 0.06,0.06 -0.961,0.602 -2.266,1.213 -3.337,1.561 -11,5.925 -14.957,8.516 -8.913,5.837 -15.588,12.541 -18.777,18.855 -2.278,4.513 -3.348,10.987 -2.725,16.49 1.148,10.132 4.628,17.496 15.072,31.887 7.135,9.832 8.818,12.751 9.99,17.334 1.229,4.806 0.758,12.158 -1.052,16.42 l -0.587,1.382 z m -218.78,-74.105 c -2.228,-0.319 -4.763,-1.639 -6.382,-3.324 -0.759,-0.789 -1.379,-1.541 -1.379,-1.67 0,-0.129 1.071,-0.159 2.381,-0.07 2.076,0.145 2.508,0.07 3.371,-0.618 1.122,-0.889 1.196,-2.307 0.153,-2.959 -0.49,-0.307 -1.011,-0.185 -2.475,0.581 -2.184,1.143 -2.763,1.178 -4.73,0.285 -1.737,-0.789 -2.581,-2.185 -2.581,-4.27 0,-2.88 1.81,-4.528 6.457,-5.88 8.975,-2.612 21.811,-1.295 23.74,2.436 0.719,1.389 0.616,3.786 -0.22,5.158 -1.329,2.18 -4.863,2.852 -7.379,1.404 -1.153,-0.664 -1.492,-0.718 -2.275,-0.361 -1.142,0.521 -1.178,1.48 -0.1,2.498 1.285,1.207 2.738,1.475 5.067,0.933 1.122,-0.261 2.103,-0.411 2.18,-0.334 0.275,0.276 -1.819,2.695 -3.195,3.692 -1.765,1.278 -3.973,2.016 -7.347,2.453 -2.887,0.374 -2.973,0.375 -5.291,0.04 z" id="path119" /></g></svg>