<?xml version="1.0" encoding="utf-8"?>
<!DOCTYPE svg PUBLIC "-//W3C//DTD SVG 1.0//EN" "http://www.w3.org/TR/2001/REC-SVG-20010904/DTD/svg10.dtd">
<svg version="1.0" xmlns="http://www.w3.org/2000/svg" width="653px" height="560px" viewBox="0 0 653 560" preserveAspectRatio="xMidYMid meet">
 <g fill="#000000">
  <path d="M217.06 464.15 c-4.31 -1.57 -8.16 -4.43 -10.14 -7.52 -2.22 -3.50 -2.86 -5.95 -2.86 -10.67 l0 -3.85 -3.56 -0.99 c-2.62 -0.70 -4.26 -1.63 -6.24 -3.56 l-2.74 -2.51 -0.17 -4.72 c-0.23 -3.96 0.06 -5.66 1.87 -11.84 4.26 -14.81 18.13 -64.43 23.15 -82.91 l5.19 -19.18 -0.82 -7.29 c-0.47 -3.96 -1.11 -7.52 -1.46 -7.87 -0.93 -0.93 -12.48 -0.70 -18.42 0.35 -2.86 0.58 -7.75 1.69 -10.79 2.57 -3.03 0.87 -6.82 1.57 -8.45 1.57 l-2.92 0.06 0 -4.02 0 -4.02 3.21 -1.11 c13.29 -4.55 29.91 -6.24 41.10 -4.26 5.83 1.05 11.72 3.91 21.63 10.49 8.10 5.48 8.10 4.84 -0.06 -1.75 -12.54 -10.14 -16.56 -11.19 -47.11 -12.83 -9.68 -0.52 -17.96 -1.05 -18.37 -1.17 -0.82 -0.29 -0.99 -5.36 -0.17 -6.65 0.58 -0.93 6.01 -0.70 27.58 1.17 25.36 2.16 31.43 4.08 42.74 13.47 2.68 2.22 2.33 1.75 -1.57 -2.04 -8.40 -8.10 -13.18 -9.80 -35.86 -12.65 -15.39 -1.92 -17.49 -2.27 -26.53 -4.43 l-6.30 -1.52 0 -4.31 0 -4.31 1.81 0 c0.99 0 3.79 0.52 6.24 1.11 6.94 1.75 13.88 2.97 25.48 4.37 l10.73 1.28 0.35 -3.79 c2.27 -24.84 9.39 -55.80 17.61 -76.73 6.59 -16.73 12.71 -27.46 25.48 -44.49 15.51 -20.70 37.37 -44.31 49.38 -53.17 5.48 -4.08 12.77 -7.75 17.72 -9.04 2.16 -0.52 6.12 -0.87 10.49 -0.87 6.18 0 7.58 0.23 11.72 1.63 2.86 0.99 7.23 3.32 11.08 5.77 3.50 2.27 10.03 6.18 14.52 8.63 29.39 16.27 45.07 26.41 59 38.36 17.02 14.52 22.91 26.59 22.91 46.93 0 9.68 -0.99 14.63 -3.91 20.52 -2.22 4.31 -2.27 4.37 -4.66 4.55 -2.22 0.17 -2.51 0 -3.32 -1.52 -2.33 -4.55 -12.13 -10.84 -21.92 -14.11 -4.31 -1.46 -29.91 -8.22 -30.14 -7.93 -0.12 0.06 0.12 5.19 0.47 11.31 1.11 18.83 -0.70 40.23 -4.72 55.21 -3.21 12.07 -6.94 19.07 -15.57 29.27 l-3.09 3.67 3.21 6.41 c4.14 8.22 4.26 10.32 0.87 14.87 -1.28 1.75 -2.33 3.27 -2.33 3.38 0 0.64 18.19 -3.96 33.35 -8.40 4.84 -1.40 8.86 -2.27 10.20 -2.16 l2.16 0.17 1.92 5.83 c1.05 3.21 1.87 6.82 1.92 7.99 l0 2.16 -5.95 2.27 c-9.85 3.79 -28.86 9.80 -38.71 12.30 -20 5.01 -31.66 6.59 -49.56 6.70 l-12.83 0.06 -1.92 1.63 c-1.81 1.52 -2.16 1.57 -8.57 1.57 -3.73 0 -7.23 -0.29 -7.87 -0.64 -0.93 -0.47 -1.75 -0.29 -3.79 0.64 -2.33 1.17 -3.15 1.22 -8.63 0.87 -3.32 -0.23 -6.70 -0.70 -7.40 -1.11 -0.76 -0.35 -1.92 -1.69 -2.62 -2.92 -0.99 -1.69 -2.33 -2.80 -5.83 -4.66 -2.57 -1.40 -5.89 -3.32 -7.52 -4.31 l-2.92 -1.81 -0.17 1.87 c-0.12 1.05 -1.98 25.95 -4.14 55.45 l-3.91 53.58 -1.63 1.28 c-0.93 0.70 -2.62 1.63 -3.85 1.98 -2.62 0.76 -8.34 0.82 -10.96 0.12 -0.99 -0.29 -1.87 -0.41 -1.87 -0.17 0 0.23 -0.52 3.85 -1.17 7.99 -0.64 4.20 -1.17 8.75 -1.17 10.20 0 3.15 -0.41 3.79 -2.51 4.61 -2.74 1.05 -11.95 0.76 -15.39 -0.47z m11.08 -24.14 c6.36 -38.42 11.95 -74.16 15.57 -99.23 0.93 -6.70 1.87 -12.94 2.04 -13.82 0.23 -1.57 0.17 -1.63 -1.98 -1.63 l-2.27 0 -3.61 15.04 c-7.70 32.07 -11.19 46.29 -17.84 73.11 -7.70 31.19 -7.58 29.85 -3.44 34.69 1.81 2.16 7.11 5.42 8.69 5.42 0.35 0 1.63 -5.89 2.86 -13.58z m17.72 -9.04 c0.52 -0.29 1.22 -6.59 2.22 -19.94 2.57 -33.87 5.54 -76.03 5.48 -78.13 -0.06 -1.11 -1.22 5.83 -2.62 15.45 -3.03 21.11 -11.19 76.14 -11.66 79.06 -0.35 1.98 -0.23 2.16 1.87 3.03 2.57 1.05 3.67 1.17 4.72 0.52z m-38.95 -2.27 c0.70 -2.57 14.87 -59.94 21.28 -86.06 2.45 -9.91 4.43 -18.19 4.43 -18.48 0 -0.47 -1.75 -1.34 -2.10 -0.99 -0.12 0.06 -2.92 9.97 -6.30 21.98 -3.32 12.01 -9.91 35.45 -14.58 52.07 -4.66 16.67 -8.34 30.49 -8.16 30.84 0.41 0.64 3.79 2.80 4.43 2.80 0.23 0 0.70 -0.99 0.99 -2.16z m47.11 -100.87 c-0.17 -0.58 -0.29 -0.12 -0.29 0.99 0 1.11 0.12 1.57 0.29 1.05 0.12 -0.58 0.12 -1.52 0 -2.04z m103.66 -0.41 c4.84 -0.82 12.54 -2.39 17.20 -3.56 9.33 -2.27 24.60 -6.76 24.31 -7.11 -0.12 -0.12 -3.38 0.58 -7.29 1.52 -8.98 2.22 -17.72 3.56 -24.02 3.73 l-4.96 0.12 0.06 -2.68 c0 -2.33 0.58 -3.50 4.84 -9.91 5.54 -8.28 5.42 -8.28 -0.99 -0.12 -4.78 5.95 -9.74 10.55 -14.28 13.29 -4.96 2.86 -8.92 3.85 -17.43 4.20 -7.29 0.35 -7.99 0.47 -8.28 1.52 -0.29 1.17 -0.06 1.17 10.90 0.82 7.99 -0.23 13.70 -0.76 19.94 -1.81z m-73.58 -0.64 c-0.17 -0.52 -1.69 -1.63 -3.32 -2.45 -3.85 -1.92 -7.64 -4.55 -10.67 -7.35 -2.22 -2.04 -2.51 -2.16 -2.51 -1.05 0 0.64 -0.29 1.22 -0.70 1.22 -0.41 0 -0.47 0.17 -0.17 0.52 0.87 0.76 16.79 9.97 17.32 9.97 0.23 0 0.29 -0.41 0.06 -0.87z m60.17 -10.96 c3.03 -1.46 5.66 -3.32 9.04 -6.59 7.52 -7.17 7.87 -8.28 1.46 -4.02 -7 4.61 -13.41 7.99 -20.93 10.90 l-5.89 2.27 6.01 -0.29 c5.36 -0.23 6.47 -0.47 10.32 -2.27z m-98.24 0.52 c0 -0.17 -9.33 -6.47 -13.93 -9.39 l-2.57 -1.57 0.41 1.87 c0.17 1.05 0.35 2.68 0.35 3.61 0 2.10 1.57 2.86 9.39 4.49 6.12 1.28 6.36 1.34 6.36 0.99z m39.35 -4.96 c1.63 -0.23 3.56 -0.76 4.31 -1.17 1.92 -1.05 7.81 -0.58 9.33 0.76 0.99 0.87 1.46 0.99 3.03 0.41 1.05 -0.35 2.57 -0.64 3.38 -0.64 0.87 0 2.16 -0.41 2.92 -0.93 1.05 -0.76 2.27 -0.87 6.06 -0.64 4.37 0.23 5.25 0.12 10.32 -1.75 19.07 -7.05 36.32 -20 49.67 -37.26 7.70 -10.09 11.78 -21.98 14.11 -41.63 1.17 -9.50 1.75 -23.85 1.11 -25.54 -0.47 -1.22 -0.70 -0.99 -3.09 2.62 -3.91 5.95 -11.25 14.93 -17.78 21.57 -5.83 6.01 -5.83 6.01 -8.63 6.01 -1.57 0 -3.32 -0.29 -3.91 -0.58 -2.97 -1.57 -22.62 -31.31 -31.95 -48.39 l-2.45 -4.37 0 6.76 c0 13.76 -2.62 29.15 -7.29 43.49 -6.12 18.66 -11.95 26.88 -24.43 34.28 -10.67 6.36 -23.85 11.49 -35.62 13.88 l-6.59 1.34 4.08 3.15 c2.22 1.75 7.11 6.76 10.84 11.08 3.73 4.31 9.15 10.32 12.07 13.29 4.20 4.37 5.48 5.36 6.41 5.07 0.64 -0.23 2.51 -0.58 4.08 -0.82z m-13.12 -68.39 c0 -0.23 -0.58 -0.47 -1.28 -0.47 -0.76 0 -2.10 -0.52 -3.09 -1.17 -0.93 -0.64 -1.92 -1.17 -2.10 -1.17 -0.23 0 -1.87 1.81 -3.67 4.02 -1.75 2.22 -4.72 5.66 -6.53 7.64 l-3.32 3.56 1.05 3.32 1.05 3.32 8.92 -9.27 c4.96 -5.13 8.98 -9.50 8.98 -9.80z m3.21 15.33 c2.27 -1.22 5.89 -3.38 7.99 -4.78 l3.91 -2.51 -2.74 -1.57 -2.74 -1.57 -3.38 3.61 c-4.90 5.13 -8.16 9.10 -7.58 9.10 0.23 0 2.33 -1.05 4.55 -2.27z m-19.47 -22.04 l3.50 -4.26 -1.69 0 c-0.93 0 -2.39 -0.58 -3.27 -1.22 -0.87 -0.70 -1.63 -1.17 -1.75 -1.05 -2.80 3.56 -5.01 6.94 -5.01 7.70 0 0.47 0.29 2.27 0.70 3.96 l0.70 3.03 1.69 -1.98 c0.87 -1.11 3.21 -3.91 5.13 -6.18z m37.72 4.78 c4.43 -1.87 5.77 -3.96 9.45 -14.63 4.90 -14.11 7.75 -28.92 7.81 -40.17 0.06 -9.97 -1.17 -11.95 -7.40 -11.95 -11.14 0 -28.63 5.71 -39.65 13 -8.86 5.83 -13.47 11.19 -15.63 18.42 -0.76 2.45 -0.70 2.57 0.82 3.91 1.40 1.22 1.98 1.34 5.36 0.99 2.62 -0.23 4.02 -0.12 4.66 0.41 1.05 0.87 1.17 5.66 0.17 7.87 -0.58 1.34 -0.52 1.69 0.82 2.97 1.40 1.46 1.52 1.46 3.27 0.58 0.99 -0.52 3.32 -2.62 5.19 -4.72 3.09 -3.50 3.56 -3.79 5.71 -3.79 5.01 0 5.13 3.27 0.58 10.79 -1.75 2.86 -3.21 5.54 -3.21 5.89 0 0.35 0.64 1.22 1.40 1.92 2.33 2.22 5.01 0.58 10.61 -6.47 2.92 -3.61 3.38 -3.96 5.36 -3.96 2.86 0 3.61 0.82 3.61 3.91 0 1.87 -0.70 3.79 -2.68 7.46 l-2.68 4.96 1.75 1.75 c2.04 2.04 1.87 1.98 4.66 0.87z m78.83 -31.89 c5.66 -6.94 8.16 -10.67 12.65 -18.60 l3.50 -6.18 -5.60 -1.57 c-3.09 -0.87 -7 -2.22 -8.69 -2.97 -8.57 -3.91 -17.14 -11.72 -20.58 -18.66 -1.69 -3.50 -1.92 -4.55 -2.16 -10.20 l-0.29 -6.30 -2.22 1.17 c-1.92 0.99 -3.15 1.11 -8.05 0.93 -4.90 -0.12 -6.06 -0.35 -7.58 -1.52 l-1.81 -1.28 -2.27 4.55 c-2.62 5.25 -4.72 11.25 -4.72 13.58 0 4.20 6.01 16.79 15.04 31.43 5.01 8.22 17.43 26.76 19.01 28.51 l1.22 1.34 3.96 -4.26 c2.22 -2.39 6.06 -6.88 8.57 -9.97z m-125.47 10.55 c-1.28 -0.87 -1.63 -0.58 -1.63 1.40 l0.06 1.87 1.17 -1.40 c0.87 -1.11 0.99 -1.52 0.41 -1.87z m187.56 -32.36 c-3.50 -2.97 -15.68 -10.73 -20.93 -13.29 -12.83 -6.24 -28.28 -11.37 -44.66 -14.93 -3.03 -0.64 -6.12 -1.28 -6.82 -1.46 -0.76 -0.17 -1.34 -0.06 -1.34 0.23 0 1.17 6.59 7.58 10.61 10.38 7.58 5.19 6.41 4.84 40.99 13.82 8.05 2.10 16.56 4.43 18.95 5.25 2.39 0.76 4.49 1.40 4.66 1.46 0.17 0 -0.47 -0.64 -1.46 -1.46z m-156.08 -18.25 c8.92 -3.09 18.66 -4.84 26.64 -4.90 7.17 -0.06 8.51 0.23 11.08 2.57 1.17 1.05 1.17 0.99 0.99 -3.73 -0.12 -2.62 0.12 -6.24 0.47 -7.99 0.87 -3.79 3.96 -11.08 7 -16.33 1.69 -2.97 2.22 -4.61 2.45 -7.58 0.47 -6.18 3.27 -10.20 8.45 -12.36 1.05 -0.47 2.97 -2.33 4.61 -4.55 5.54 -7.64 8.75 -11.31 12.59 -14.28 l3.91 -3.09 -3.03 -1.34 c-2.45 -1.11 -4.02 -1.40 -8.34 -1.40 -5.07 0 -5.48 0.12 -10.32 2.51 -7 3.44 -13.29 8.40 -22.27 17.32 -15.16 15.10 -29.33 32.59 -46.64 57.31 l-3.38 4.90 5.19 -2.62 c2.86 -1.40 7.64 -3.44 10.61 -4.43z m150.42 1.28 c-10.38 -12.42 -10.96 -13.35 -10.96 -17.78 0 -5.48 1.92 -6.65 10.20 -6.12 l4.90 0.29 -1.57 -1.34 c-3.21 -2.62 -15.16 -11.25 -20.81 -14.98 -11.37 -7.46 -37.72 -23.38 -38.60 -23.26 -0.82 0.06 -7.05 12.30 -8.98 17.55 -3.38 9.33 -6.01 23.73 -4.49 24.84 0.41 0.35 3.79 1.05 7.46 1.63 13.06 1.98 29.97 6.53 41.57 11.19 7.17 2.86 18.31 8.57 22.16 11.25 1.34 0.99 2.68 1.75 2.92 1.81 0.29 0 -1.46 -2.27 -3.79 -5.07z m-69.67 -57.31 c0.82 -1.75 2.45 -4.84 3.61 -6.88 l2.16 -3.67 -2.86 1.46 c-1.52 0.76 -3.61 2.16 -4.66 3.09 -1.98 1.75 -7.11 7.58 -8.98 10.20 l-1.17 1.57 2.16 0.99 c1.11 0.52 2.74 1.87 3.61 2.92 l1.52 1.92 1.57 -4.20 c0.82 -2.33 2.22 -5.66 3.03 -7.40z"/>
  <path d="M343.76 285.92 c-1.75 -1.75 -1.17 -4.43 1.98 -8.63 2.86 -3.67 3.03 -3.85 5.42 -3.85 3.03 0 3.91 0.76 3.91 3.50 0 2.33 -1.22 4.55 -4.20 7.75 -1.63 1.69 -2.51 2.16 -4.14 2.16 -1.17 0 -2.51 -0.41 -2.97 -0.93z"/>
  <path d="M307.67 284.70 c-0.23 -0.17 -0.41 -1.57 -0.41 -3.09 0 -2.57 0.23 -2.92 3.15 -5.77 2.74 -2.51 3.56 -2.97 5.42 -2.97 2.92 0 3.67 0.82 3.67 3.79 0 2.10 -0.35 2.74 -3.09 5.42 -2.80 2.74 -3.32 3.03 -5.71 3.03 -1.46 0 -2.86 -0.17 -3.03 -0.41z"/>
  <path d="M326.33 280.62 c-0.23 -0.17 -0.41 -1.46 -0.41 -2.86 0 -2.16 0.41 -2.97 3.56 -6.76 4.20 -5.01 4.31 -5.13 6.76 -5.13 3.21 0 3.67 0.41 3.67 3.61 0 2.68 -0.29 3.21 -3.56 7.23 l-3.50 4.31 -3.09 0 c-1.69 0 -3.27 -0.17 -3.44 -0.41z"/>
  <path d="M301.55 272.74 c-0.41 -0.41 -0.70 -1.81 -0.70 -3.09 0 -2.22 0.35 -2.74 3.44 -5.71 2.86 -2.74 3.85 -3.32 5.54 -3.32 2.57 0 3.85 1.28 3.85 3.91 0 1.81 -0.52 2.62 -3.38 5.54 -3.03 2.97 -3.67 3.38 -5.71 3.38 -1.28 0 -2.62 -0.29 -3.03 -0.70z"/>
  <path d="M362.47 272.45 c-0.87 -0.82 -0.35 -6.06 0.99 -9.56 l1.40 -3.73 3.09 0 3.15 0 0.17 2.51 c0.17 2.57 -1.11 7.52 -2.57 9.91 -0.64 0.99 -1.40 1.28 -3.38 1.28 -1.34 0 -2.68 -0.17 -2.86 -0.41z"/>
  <path d="M349.06 266.10 c-1.22 -1.22 0.76 -8.98 3.27 -12.89 0.70 -1.17 6.01 -0.99 6.47 0.17 0.82 2.10 0.23 5.36 -1.57 8.98 l-1.87 3.79 -2.92 0.17 c-1.63 0.12 -3.15 0 -3.38 -0.23z"/>
  <path d="M321.08 263.12 c-0.23 -0.17 -0.41 -1.52 -0.41 -2.97 0 -2.22 0.41 -3.09 2.97 -6.36 2.97 -3.73 3.03 -3.73 5.71 -3.56 l2.68 0.17 0.17 3.09 c0.17 2.86 0 3.38 -1.98 5.83 -1.22 1.52 -2.57 3.09 -3.09 3.50 -0.93 0.76 -5.42 0.99 -6.06 0.29z"/>
  <path d="M372.15 254.09 c0.58 -8.10 0.52 -8.05 4.26 -8.05 l3.15 0 0 4.55 c0 2.45 -0.29 5.48 -0.64 6.70 l-0.58 2.16 -3.27 0 -3.27 0 0.35 -5.36z"/>
  <path d="M342.07 253.80 c-0.99 -0.93 -0.29 -6.06 1.22 -9.85 l1.69 -4.02 3.15 0 3.15 0 0.17 2.33 c0.23 2.57 -0.52 5.66 -2.33 9.50 -1.17 2.39 -1.28 2.45 -3.91 2.45 -1.52 0 -2.97 -0.17 -3.15 -0.41z"/>
  <path d="M315.01 251.46 c-0.47 -0.17 -0.76 -1.34 -0.76 -2.92 0 -2.16 0.47 -3.21 2.68 -6.36 2.57 -3.56 2.80 -3.73 5.13 -3.73 2.97 0 3.85 0.76 3.85 3.50 0 2.10 -2.04 5.95 -4.61 8.63 -1.22 1.22 -4.37 1.69 -6.30 0.87z"/>
  <path d="M362.82 250.88 c-1.05 -0.41 -1.05 -12.48 -0.06 -13.47 0.82 -0.82 4.43 -0.93 5.60 -0.17 1.17 0.76 0.76 12.71 -0.47 13.47 -0.93 0.58 -3.85 0.70 -5.07 0.17z"/>
  <path d="M377.34 240.27 c-0.87 -0.52 -2.27 -10.96 -1.69 -12.48 0.29 -0.76 1.11 -0.99 3.32 -0.99 3.56 0 3.85 0.52 4.43 7.46 0.35 3.85 0.23 4.72 -0.58 5.54 -1.05 1.05 -4.20 1.34 -5.48 0.47z"/>
  <path d="M331.92 238.69 c-1.17 -0.52 -0.87 -4.72 0.58 -9.56 l1.40 -4.37 3.15 0 3.15 0 -0.06 4.14 c0 3.15 -0.35 4.78 -1.46 7 -1.28 2.68 -1.57 2.86 -3.73 2.97 -1.28 0.06 -2.68 0 -3.03 -0.17z"/>
  <path d="M359.27 209.48 l0.17 -4.55 2.62 0 2.62 0 0.17 4.55 0.17 4.49 -2.97 0 -2.97 0 0.17 -4.49z"/>
  <path d="M369.47 205.46 c-0.23 -0.23 -0.41 -2.51 -0.41 -5.01 l0 -4.61 2.80 0.17 2.74 0.17 0 4.66 0 4.66 -2.33 0.17 c-1.34 0.12 -2.57 0 -2.80 -0.23z"/>
  <path d="M351.86 203.42 c-0.23 -0.64 -0.23 -2.62 0 -4.37 l0.35 -3.15 2.92 0 2.92 0 -0.17 4.26 -0.17 4.20 -2.74 0.17 c-2.33 0.17 -2.74 0 -3.09 -1.11z"/>
  <path d="M359.97 192.69 c-0.17 -0.82 -0.17 -2.92 0.06 -4.72 l0.41 -3.21 2.68 0.17 2.74 0.17 0 4.37 0 4.37 -2.74 0.17 c-2.57 0.17 -2.80 0.06 -3.15 -1.34z"/>
  <path d="M375.59 189.66 l0.17 -4.55 2.62 0 2.62 0 0.17 4.55 0.17 4.49 -2.97 0 -2.97 0 0.17 -4.49z"/>
  <path d="M345.57 191.99 c-0.23 -0.17 -0.41 -2.27 -0.41 -4.66 l0 -4.26 2.86 0 c3.27 0 3.56 0.41 3.56 4.43 0 3.79 -0.76 4.90 -3.44 4.90 -1.22 0 -2.39 -0.17 -2.57 -0.41z"/>
  <path d="M337.23 183.42 c-0.17 -0.41 -0.23 -2.45 -0.12 -4.49 l0.17 -3.73 2.92 0 2.92 0 0.17 4.55 0.17 4.49 -2.97 0 c-1.92 0 -3.03 -0.29 -3.27 -0.82z"/>
  <path d="M330 163.54 l0 -4.96 2.92 0 2.92 0 0 4.96 0 4.96 -2.92 0 -2.92 0 0 -4.96z"/>
 </g>
 <g fill="#ffffff">
  <path d="M0 279.86 l0 -279.86 326.50 0 326.50 0 0 279.86 0 279.86 -326.50 0 -326.50 0 0 -279.86z m230.71 183.01 c2.10 -0.76 2.51 -1.46 2.51 -4.31 0 -1.28 0.58 -6.36 1.28 -11.25 1.05 -7.52 1.40 -8.92 2.16 -8.63 0.52 0.12 2.10 0.70 3.56 1.22 4.43 1.63 11.25 0.17 13.06 -2.86 0.52 -0.82 2.04 -19.12 4.72 -56.90 2.22 -30.61 4.02 -55.80 4.14 -55.91 0.06 -0.06 2.97 1.52 6.47 3.61 3.44 2.04 7.64 4.43 9.27 5.25 2.04 1.05 3.21 2.10 3.67 3.27 1.28 2.97 2.51 3.67 7.99 4.20 4.61 0.47 5.36 0.41 7.70 -0.70 1.40 -0.70 2.68 -1.63 2.86 -2.04 0.29 -0.87 1.92 -1.17 1.92 -0.35 0 0.23 0.76 0.87 1.69 1.46 1.22 0.70 3.03 0.99 6.70 0.99 4.66 0 5.07 -0.12 6.88 -1.69 l1.92 -1.69 12.83 0 c17.67 0 29.21 -1.52 49.50 -6.59 13 -3.27 44.66 -13.76 44.66 -14.87 0 -0.70 -3.67 -11.66 -4.08 -12.07 -0.23 -0.29 -5.01 0.82 -10.55 2.39 -16.85 4.90 -37.55 9.91 -38.19 9.33 -0.06 -0.12 1.69 -2.74 3.91 -5.89 2.22 -3.15 4.02 -6.12 4.02 -6.59 0 -0.70 -6.06 -13.41 -6.76 -14.17 -0.47 -0.52 -3.21 2.57 -6.18 6.88 -7.93 11.54 -15.80 19.47 -22.51 22.68 -4.20 1.98 -4.66 2.10 -12.13 2.33 -5.83 0.17 -8.05 0.06 -8.69 -0.47 -1.75 -1.46 -0.64 -2.45 4.90 -4.43 15.45 -5.48 29.73 -14.69 41.57 -26.82 9.91 -10.09 15.33 -17.67 18.95 -26.47 5.89 -14.40 9.15 -40.35 7.81 -62.15 -0.35 -5.66 -0.82 -11.31 -0.99 -12.54 -0.35 -1.92 -0.23 -2.27 0.64 -2.27 1.46 0 25.25 6.18 31.78 8.22 8.92 2.86 15.86 6.53 20 10.67 1.98 1.98 3.91 4.08 4.26 4.72 0.93 1.69 1.98 0.58 4.26 -4.31 4.66 -10.09 4.84 -24.72 0.41 -37.37 -6.53 -18.89 -27.75 -36.21 -78.77 -64.43 -4.49 -2.45 -11.02 -6.36 -14.52 -8.63 -8.45 -5.48 -13.93 -7.40 -21.05 -7.40 -6.47 0 -10.79 1.05 -17.02 4.08 -6.41 3.15 -12.77 7.99 -20.99 15.92 -23.03 22.27 -46.70 52.41 -56.32 71.83 -12.19 24.49 -21.63 60.05 -24.60 92.59 -0.29 2.97 -0.58 3.91 -1.28 3.91 -1.98 0 -24.72 -2.97 -29.33 -3.79 -4.43 -0.87 -10.14 -2.16 -12.94 -2.97 -0.87 -0.29 -1.05 0.06 -1.05 2.27 l0 2.62 6.30 1.52 c9.04 2.16 11.14 2.51 26.53 4.43 21.86 2.74 27.23 4.55 35.10 11.84 2.45 2.27 7.58 7.64 11.37 12.01 10.44 12.07 15.33 16.44 22.51 20.06 1.63 0.82 3.15 1.92 3.38 2.45 0.58 1.52 0.41 5.54 -0.23 5.54 -2.62 0 -15.68 -7.70 -35.10 -20.76 -17.37 -11.66 -22.68 -14.52 -29.33 -15.68 -10.14 -1.81 -24.60 -0.17 -37.61 4.26 -3.15 1.11 -3.21 1.17 -3.21 3.38 0 2.74 0.06 2.74 7.87 0.58 9.33 -2.57 15.45 -3.50 24.02 -3.50 5.13 0 8.22 0.17 8.63 0.58 0.58 0.58 2.27 12.13 2.45 16.85 0.06 0.99 -2.27 10.44 -5.19 20.99 -5.89 21.22 -20.06 71.71 -23.32 83.02 -2.74 9.62 -2.57 12.07 1.17 15.63 1.92 1.81 3.61 2.74 6.18 3.44 l3.56 0.99 0 3.85 c0 2.10 0.29 4.78 0.58 5.89 2.10 7.52 10.38 13.35 19.07 13.41 1.98 0 4.31 -0.29 5.25 -0.64z m29.85 -154.04 c-18.89 -17.78 -24.43 -21.22 -37.43 -23.44 -4.43 -0.76 -20.93 -2.27 -37.26 -3.50 l-5.07 -0.41 -0.41 1.57 c-0.23 0.82 -0.17 1.75 0.12 2.04 0.29 0.23 8.57 0.87 18.37 1.40 34.40 1.87 36.26 2.57 56.61 20.87 7.35 6.59 9.97 8.45 10.32 7.35 0.12 -0.41 -2.22 -3.03 -5.25 -5.89z"/>
  <path d="M221.79 454.77 c-6.18 -2.45 -10.14 -7.58 -10.14 -13.23 0 -1.81 3.56 -17.43 9.56 -41.63 5.25 -21.28 11.54 -47.23 14.05 -57.66 2.45 -10.44 4.55 -19.01 4.61 -19.07 0.06 -0.12 1.87 0 4.02 0.23 3.61 0.29 3.91 0.47 3.91 1.75 0 3.67 -10.49 72.18 -17.96 117.07 -2.16 13.12 -2.27 13.41 -3.67 13.53 -0.76 0.06 -2.74 -0.35 -4.37 -0.99z"/>
  <path d="M203.83 432.32 c-1.28 -0.47 -2.97 -1.46 -3.79 -2.27 l-1.46 -1.46 8.92 -31.66 c4.90 -17.43 11.66 -41.63 15.04 -53.81 3.38 -12.19 6.30 -22.27 6.36 -22.39 0.12 -0.12 1.63 0.12 3.32 0.52 l3.15 0.70 -1.34 5.66 c-2.51 10.67 -9.62 39.53 -17.78 72.53 -6.76 27.05 -8.40 33.06 -9.21 33.06 -0.52 -0.06 -1.98 -0.41 -3.21 -0.87z"/>
  <path d="M239.16 432.03 c-2.27 -1.05 -2.51 -1.34 -2.22 -2.74 0.64 -3.21 9.80 -65.42 13.18 -89.67 2.39 -17.20 2.10 -16.03 4.14 -16.03 1.57 0 1.69 0.12 1.69 2.51 0 2.62 -3.67 54.46 -6.12 86.70 -0.99 13.35 -1.69 19.65 -2.22 19.94 -1.28 0.82 -5.95 0.47 -8.45 -0.70z"/>
  <path d="M286.85 335.48 c0 -0.17 0.52 -0.76 1.22 -1.28 0.64 -0.58 1.40 -2.16 1.75 -3.50 0.99 -4.37 -0.41 -8.92 -3.38 -11.08 -1.52 -1.11 -1.52 -1.22 -0.52 -1.63 0.58 -0.23 1.52 -0.17 2.04 0.17 1.46 0.93 3.44 4.78 3.85 7.58 0.47 3.21 -0.99 8.63 -2.62 9.50 -1.22 0.64 -2.33 0.76 -2.33 0.23z"/>
  <path d="M294.26 333.20 c1.22 -3.67 0.82 -9.68 -0.87 -13.18 -1.57 -3.21 -1.63 -4.02 -0.23 -4.02 3.96 0 6.36 11.43 3.61 17.37 -0.76 1.69 -1.46 2.45 -2.27 2.45 -1.11 0 -1.11 -0.12 -0.23 -2.62z"/>
  <path d="M306.68 334.90 c0 -0.23 0.41 -0.93 0.93 -1.46 2.57 -2.86 1.98 -10.38 -1.05 -13.41 -1.34 -1.28 -1.63 -1.92 -1.17 -2.39 1.17 -1.17 3.38 0.41 4.78 3.32 2.39 4.96 0.87 13.53 -2.57 14.17 -0.52 0.12 -0.93 0 -0.93 -0.23z"/>
  <path d="M313.09 334.95 c0 -0.23 0.41 -1.87 0.93 -3.61 1.17 -4.08 0.76 -8.05 -1.34 -12.36 -1.17 -2.45 -1.34 -3.21 -0.70 -3.56 4.14 -2.62 7.35 13 3.61 17.90 -1.11 1.52 -2.51 2.39 -2.51 1.63z"/>
  <path d="M324.40 329.71 c0.23 -0.87 0.52 -2.27 0.70 -3.15 l0.35 -1.52 7.64 -0.06 c6.36 0 8.40 -0.23 11.60 -1.34 7.99 -2.68 15.10 -8.69 23.44 -19.88 2.51 -3.38 4.78 -6.18 4.96 -6.30 0.41 -0.17 2.39 3.61 2.39 4.55 0 0.29 -2.33 4.02 -5.19 8.28 -5.36 8.10 -6.18 9.56 -5.36 10.03 0.76 0.47 10.90 -0.76 18.42 -2.27 6.18 -1.28 25.60 -6.36 33.06 -8.69 l2.68 -0.87 0.41 1.52 c0.17 0.82 0.12 1.69 -0.12 1.98 -1.63 1.52 -27.99 9.97 -41.86 13.41 -16.15 4.02 -25.07 5.25 -40.17 5.60 l-13.35 0.35 0.41 -1.63z"/>
  <path d="M303.94 329.42 c0.23 -0.82 0.41 -2.22 0.41 -3.21 0 -1.34 0.17 -1.57 0.58 -0.87 0.87 1.40 0.70 3.85 -0.41 4.72 -0.87 0.76 -0.93 0.64 -0.58 -0.64z"/>
  <path d="M320.20 323.06 c-0.41 -1.75 -0.64 -3.27 -0.47 -3.38 0.47 -0.47 1.57 3.85 1.40 5.19 -0.17 0.93 -0.47 0.29 -0.93 -1.81z"/>
  <path d="M245.69 318.28 c-4.90 -0.47 -14.11 -2.45 -15.92 -3.44 -0.82 -0.41 -1.17 -1.57 -1.46 -4.49 -0.23 -2.16 -0.52 -4.96 -0.76 -6.12 -0.17 -1.46 -0.12 -2.22 0.35 -2.22 1.34 0 25.13 15.51 25.13 16.44 0 0.52 -0.52 0.52 -7.35 -0.17z"/>
  <path d="M278.98 314.37 c-2.97 -2.16 -9.27 -8.80 -17.72 -18.60 -6.76 -7.81 -11.25 -11.89 -16.97 -15.39 l-3.21 -1.98 5.25 -0.70 c18.48 -2.62 40.75 -12.07 51.07 -21.63 6.47 -5.95 10.84 -13.88 15.39 -27.69 6.47 -19.71 8.98 -42.85 5.83 -53.35 -1.05 -3.38 -3.61 -6.70 -6.36 -8.10 -2.74 -1.40 -10.84 -1.17 -19.42 0.64 -12.30 2.51 -22.21 6.47 -31.13 12.42 -2.22 1.46 -4.20 2.51 -4.37 2.33 -0.64 -0.64 4.43 -9.10 11.19 -18.54 15.98 -22.45 28.16 -37.20 42.50 -51.54 19.47 -19.47 32.01 -24.20 46.23 -17.49 4.43 2.10 5.07 2.86 2.80 3.44 -0.76 0.17 -3.21 1.75 -5.36 3.50 -3.91 3.03 -7.17 6.70 -12.71 14.34 -1.63 2.22 -3.56 4.08 -4.61 4.55 -5.19 2.16 -7.99 6.18 -8.45 12.36 -0.23 2.97 -0.76 4.61 -2.45 7.58 -7.81 13.53 -9.15 21.69 -5.36 31.66 5.19 13.35 33.23 57.66 37.37 59 2.10 0.64 3.32 -0.17 9.10 -6.24 7.40 -7.75 13.76 -15.74 19.01 -23.85 l4.31 -6.59 0.47 4.96 c1.34 14.23 -1.46 40.52 -5.77 54.34 -3.79 12.01 -12.42 23.90 -25.60 35.22 -11.25 9.74 -22.39 16.21 -36.15 21.16 -5.83 2.10 -6.47 2.22 -7.70 1.46 -1.75 -1.17 -4.55 -1.11 -6.41 0.12 -0.82 0.52 -2.51 1.05 -3.73 1.05 -1.40 0.06 -2.97 0.58 -4.08 1.40 l-1.81 1.34 -1.87 -1.81 c-2.33 -2.27 -4.84 -2.80 -7.23 -1.57 -0.99 0.52 -2.74 0.93 -3.91 0.93 -2.22 0 -5.31 1.28 -5.66 2.33 -0.12 0.35 -1.22 -0.12 -2.51 -1.05z m71.01 -32.36 c2.92 -3.61 3.56 -4.96 2.68 -6.01 -1.17 -1.40 -2.10 -0.93 -4.78 2.57 -3.44 4.49 -3.44 4.55 -2.45 5.60 1.22 1.17 2.16 0.70 4.55 -2.16z m-35.16 -1.87 c2.62 -2.62 3.09 -3.38 2.57 -4.20 -0.35 -0.52 -0.93 -1.11 -1.28 -1.22 -0.93 -0.29 -7.11 5.66 -7.11 6.88 0 2.80 2.16 2.27 5.83 -1.46z m19.76 -5.19 c3.61 -4.37 4.31 -6.36 2.62 -7 -1.34 -0.52 -2.04 0.06 -6.01 4.78 -4.26 5.13 -4.55 6.53 -1.46 6.53 0.93 0 2.33 -1.28 4.84 -4.31z m-26.06 -6.70 c3.38 -3.38 3.85 -4.78 1.81 -5.54 -0.93 -0.35 -7.75 5.71 -7.75 6.94 0 0.76 1.17 2.04 1.98 2.04 0.29 0 2.10 -1.52 3.96 -3.44z m58.42 1.57 c1.28 -2.04 2.86 -7.40 2.45 -8.40 -0.17 -0.52 -0.87 -0.82 -1.57 -0.70 -0.99 0.12 -1.63 1.11 -2.74 4.31 -0.82 2.27 -1.34 4.55 -1.11 5.07 0.52 1.40 1.98 1.22 2.97 -0.29z m-11.43 -9.39 c2.04 -4.14 2.10 -6.24 0.17 -6.24 -1.40 0 -1.81 0.64 -3.79 5.36 -1.69 4.14 -1.63 5.31 0.41 5.01 0.93 -0.12 1.81 -1.28 3.21 -4.14z m-30.14 0.64 c0.52 -0.41 1.92 -1.98 3.09 -3.50 2.27 -2.86 2.62 -5.25 0.87 -5.60 -1.05 -0.17 -6.94 6.76 -6.94 8.16 0 1.69 1.46 2.16 2.97 0.93z m51.77 -5.54 c0.35 -1.22 0.64 -3.44 0.64 -4.96 0 -2.57 -0.12 -2.80 -1.40 -2.80 -1.57 0 -1.81 0.58 -2.45 6.30 -0.41 3.61 -0.41 3.61 1.11 3.61 1.28 0 1.63 -0.41 2.10 -2.16z m-29.79 -5.54 c2.74 -6.06 2.97 -8.63 0.70 -8.63 -1.22 0 -2.10 1.57 -4.08 7.05 -1.57 4.43 1.40 5.77 3.38 1.57z m-27.58 -1.46 c0.87 -0.93 2.22 -2.74 3.03 -4.14 1.17 -1.98 1.34 -2.62 0.76 -3.32 -1.22 -1.52 -2.16 -0.99 -4.90 2.86 -2.74 3.85 -3.21 5.31 -1.92 5.77 1.22 0.52 1.52 0.47 3.03 -1.17z m47.17 -0.93 c0.17 -0.70 0.35 -2.92 0.35 -4.84 0 -2.80 -0.23 -3.67 -0.93 -3.96 -1.87 -0.70 -2.57 0.76 -2.57 5.48 0 3.15 0.23 4.66 0.76 4.84 1.17 0.41 2.04 -0.17 2.39 -1.52z m14.63 -10.20 c0.29 -1.05 -0.58 -7.29 -1.17 -8.28 -0.47 -0.76 -2.45 -0.76 -2.86 -0.06 -0.52 0.87 0.76 8.98 1.52 9.45 0.93 0.58 2.10 0 2.51 -1.11z m-44.72 -3.15 c0.76 -1.46 1.40 -3.79 1.46 -5.19 0.12 -2.39 0 -2.57 -1.28 -2.57 -1.28 0 -1.57 0.47 -2.92 4.84 -1.22 4.14 -1.28 4.96 -0.58 5.42 1.28 0.82 1.87 0.35 3.32 -2.51z"/>
  <path d="M261.78 266.16 c0 -0.23 2.62 -3.21 5.89 -6.59 3.27 -3.38 7.75 -8.34 10.03 -11.02 l4.14 -4.90 1.11 1.52 c1.57 2.10 5.13 3.79 8.10 3.79 l2.51 0.06 -2.04 1.69 c-6.65 5.66 -19.59 12.71 -28.39 15.39 -0.76 0.23 -1.34 0.23 -1.34 0.06z"/>
  <path d="M251.93 261.78 c-2.33 -7.58 -2.45 -7.05 1.98 -11.78 2.16 -2.33 5.66 -6.41 7.75 -9.04 2.10 -2.68 4.02 -4.84 4.26 -4.84 0.29 0 0.76 0.52 1.11 1.11 0.99 1.92 4.49 3.67 7.29 3.67 1.46 0.06 2.62 0.17 2.62 0.35 0 1.05 -22.39 24.60 -23.32 24.60 -0.29 0 -1.05 -1.81 -1.69 -4.08z"/>
  <path d="M246.74 242.89 c-0.70 -3.03 -1.28 -5.95 -1.28 -6.47 0 -0.52 1.63 -3.09 3.61 -5.71 1.98 -2.62 3.61 -4.84 3.73 -4.96 0.06 -0.12 1.05 0.82 2.16 2.04 1.81 1.92 2.45 2.22 5.42 2.51 l3.38 0.29 -4.72 5.83 c-5.66 7 -10.03 11.95 -10.61 11.95 -0.23 0 -0.99 -2.45 -1.69 -5.48z"/>
  <path d="M287.38 242.02 c-2.39 -2.45 -2.22 -4.49 0.93 -10.38 2.92 -5.31 3.09 -6.06 1.69 -7.23 -1.05 -0.82 -0.70 -1.11 -6.59 5.89 -3.21 3.79 -5.54 5.25 -8.57 5.25 -3.15 0 -4.90 -1.81 -4.90 -4.96 0 -1.75 0.76 -3.61 3.27 -7.70 2.68 -4.49 3.15 -5.60 2.57 -6.30 -1.17 -1.46 -1.87 -1.05 -5.42 2.92 -3.21 3.56 -6.88 6.12 -8.80 6.12 -0.47 0 -1.63 -0.70 -2.62 -1.52 -2.04 -1.69 -2.39 -4.14 -1.11 -7.64 1.17 -3.27 0.23 -4.02 -4.55 -3.79 -3.44 0.17 -4.26 0.06 -5.71 -1.11 -1.52 -1.22 -1.63 -1.52 -1.40 -4.55 0.35 -4.78 3.21 -10.44 7.35 -14.63 11.08 -11.08 33.17 -19.82 50.08 -19.82 8.45 0 9.21 1.17 9.21 13.70 -0.06 12.94 -2.68 26.88 -7.87 41.92 -3.67 10.67 -5.01 12.77 -9.45 14.63 -3.44 1.40 -6.12 1.17 -8.10 -0.82z"/>
  <path d="M244.06 225.29 c-0.35 -2.74 -0.52 -9.56 -0.17 -9.56 0.06 0 1.17 0.52 2.45 1.17 1.28 0.64 2.92 1.17 3.61 1.17 0.76 0 1.34 0.29 1.34 0.64 0 0.82 -5.83 9.27 -6.41 9.27 -0.23 0 -0.58 -1.22 -0.82 -2.68z"/>
  <path d="M356.93 223.77 c-6.24 -8.16 -20.17 -30.03 -26.59 -41.69 -9.15 -16.62 -9.45 -21.75 -2.04 -36.38 l2.80 -5.66 2.16 1.98 c2.86 2.57 5.31 3.32 9.91 3.03 3.03 -0.17 4.08 -0.52 5.89 -1.98 1.22 -0.99 2.74 -2.57 3.44 -3.56 l1.17 -1.75 0 8.80 -0.06 8.80 1.98 4.08 c1.46 2.92 3.32 5.42 6.70 8.80 7.05 7.05 13.12 10.26 26.12 13.88 2.74 0.76 3.27 1.11 2.97 1.98 -0.87 2.33 -8.57 15.51 -11.60 19.71 -5.36 7.52 -18.83 22.97 -20.06 22.97 -0.23 0 -1.52 -1.40 -2.80 -3.03z m6.18 -14.28 c-0.12 -2.04 -0.41 -2.80 -1.05 -2.80 -0.64 0 -0.93 0.76 -1.05 2.80 -0.17 2.45 -0.06 2.74 1.05 2.74 1.11 0 1.22 -0.29 1.05 -2.74z m9.74 -8.69 c0 -2.22 -0.23 -2.86 -0.99 -3.03 -0.87 -0.17 -1.05 0.23 -1.05 2.68 0 1.57 0.17 3.03 0.41 3.27 0.93 0.93 1.63 -0.23 1.63 -2.92z m-16.73 -0.70 c0.17 -2.10 0 -2.45 -0.93 -2.45 -0.87 0 -1.22 0.52 -1.46 1.92 -0.35 2.39 0.06 3.44 1.28 3.21 0.64 -0.12 0.99 -0.93 1.11 -2.68z m7.99 -10.61 c0 -1.92 -0.23 -2.68 -0.93 -2.80 -0.70 -0.12 -1.05 0.41 -1.28 1.92 -0.41 2.62 0 3.91 1.28 3.67 0.70 -0.12 0.93 -0.87 0.93 -2.80z m15.33 0.17 c-0.12 -2.04 -0.41 -2.80 -1.05 -2.80 -0.64 0 -0.93 0.76 -1.05 2.80 -0.17 2.45 -0.06 2.74 1.05 2.74 1.11 0 1.22 -0.29 1.05 -2.74z m-30.14 -0.41 c0.93 -1.98 0.23 -4.43 -1.22 -4.43 -0.99 0 -1.17 0.41 -1.17 2.51 0 3.61 1.22 4.55 2.39 1.92z m-7.75 -9.50 c-0.17 -2.33 -0.35 -2.80 -1.34 -2.80 -0.87 0 -1.22 0.47 -1.34 1.92 -0.29 2.62 0.17 3.61 1.63 3.61 1.11 0 1.22 -0.29 1.05 -2.74z m-7.46 -16.21 c0 -2.80 -0.12 -3.21 -1.17 -3.21 -1.05 0 -1.17 0.41 -1.17 3.21 0 2.80 0.12 3.21 1.17 3.21 1.05 0 1.17 -0.41 1.17 -3.21z"/>
  <path d="M442.23 194.09 c-5.19 -2.92 -12.54 -5.31 -31.19 -10.14 -26.06 -6.76 -32.13 -8.45 -34.63 -9.74 -4.20 -2.16 -10.67 -6.88 -13.70 -10.09 -2.97 -3.09 -5.83 -8.10 -5.13 -8.80 0.87 -0.93 23.03 4.08 34.52 7.75 19.36 6.24 35.86 14.98 46.70 24.72 4.49 4.08 8.80 8.69 8.05 8.63 -0.29 0 -2.33 -1.05 -4.61 -2.33z"/>
  <path d="M442.52 187.15 c-9.27 -9.33 -21.16 -16.79 -36.67 -23.03 -11.49 -4.61 -28.45 -9.15 -41.45 -11.14 -3.67 -0.58 -7.05 -1.28 -7.52 -1.63 -0.64 -0.47 -0.70 -1.75 -0.41 -5.71 0.64 -9.10 3.96 -21.63 7.75 -29.33 2.57 -5.13 6.76 -12.54 7.17 -12.54 0.82 0 29.33 17.32 40.23 24.43 12.42 8.05 31.78 23.26 30.84 24.20 -0.17 0.17 -1.87 -0.35 -3.79 -1.11 -10.26 -4.14 -17.61 -4.14 -18.66 0 -0.82 3.21 0.58 5.31 13.58 20.87 9.04 10.79 16.15 20.58 15.22 20.99 -0.12 0.06 -2.92 -2.62 -6.30 -6.01z"/>
  <path d="M336.59 141.39 c-5.77 -3.50 -6.88 -10.67 -2.45 -15.74 2.16 -2.45 5.01 -3.44 8.80 -3.09 5.95 0.58 10.09 6.36 8.98 12.42 -0.47 2.33 -3.21 5.77 -5.66 7.05 -2.57 1.28 -6.82 1.05 -9.68 -0.64z m9.39 -2.33 c6.01 -4.55 3.09 -13.70 -4.37 -13.70 -7 0 -9.97 8.51 -4.55 13.12 1.40 1.17 2.39 1.46 4.78 1.46 1.75 0 3.50 -0.41 4.14 -0.87z"/>
  <path d="M353.73 128.85 c-1.34 -3.85 -3.38 -6.06 -6.82 -7.64 -1.63 -0.70 -2.92 -1.46 -2.92 -1.69 0 -0.58 7.29 -9.50 10.32 -12.65 4.61 -4.72 10.03 -7 13 -5.42 0.99 0.52 0.82 0.99 -2.22 5.95 -3.61 6.06 -7.11 13.99 -8.63 19.71 -0.58 2.10 -1.17 3.96 -1.34 4.20 -0.23 0.23 -0.82 -0.87 -1.40 -2.45z"/>
 </g>
</svg>